<svg id="Layer_1" data-name="Layer 1" xmlns="http://www.w3.org/2000/svg" viewBox="0 0 569 87.6"><defs><style>.cls-1{fill:#fff;}.cls-10,.cls-2{fill:none;}.cls-2{stroke:#ffcf0d;stroke-miterlimit:10;stroke-width:3px;}.cls-3{fill:#ffcf0d;}.cls-4{fill:#5f6163;}.cls-5{fill:#1d1d1b;}.cls-6{fill:#145e90;}.cls-7{fill:#cdcbca;}.cls-8{fill:#f2910b;}.cls-9{fill:#e20919;}.cls-11{isolation:isolate;}</style></defs><title>logoV2</title><path class="cls-1" d="M41.3,24.6a11.33,11.33,0,0,1,3.6-.6,10.93,10.93,0,0,1,1.5-.8c-2.8-1.3-5.7-2.5-8.6-3.7A21.3,21.3,0,0,1,35,24.9c1.4.4,2.7.8,4,1.3A7.33,7.33,0,0,1,41.3,24.6Z"/><path class="cls-1" d="M.1,53.1A43.61,43.61,0,0,1,.4,48v.1a.6.6,0,0,1-.1.4.37.37,0,0,0-.1.3A12.25,12.25,0,0,0,0,50.7v1.5a2.48,2.48,0,0,1,.1.9Z"/><path class="cls-1" d="M53.7,42.3a31.61,31.61,0,0,1,3.6,7.1A13.86,13.86,0,0,1,60.5,43a58.63,58.63,0,0,1-7.3-1.3C53.4,41.9,53.5,42.1,53.7,42.3Z"/><path class="cls-1" d="M39.8,39.8a4.91,4.91,0,0,1,4.6,2c.8-.5,1.6-1,2.4-1.4l.9-.3c-.2-.1-.5-.1-.7-.2-2.1-.7-4.2-1.6-6.3-2.4a2.09,2.09,0,0,0-.7,1.3A3.55,3.55,0,0,1,39.8,39.8Z"/><path class="cls-1" d="M73.5,61.7c1.3-3.4,3.2-7.3,3.7-11.2A17.27,17.27,0,0,1,72.1,48c1.4,4.5,1.4,10.3,1.2,14.2C73.4,62,73.5,61.9,73.5,61.7Z"/><path class="cls-1" d="M12,44.6c.2-.1.4-.1.6-.2a36.39,36.39,0,0,1,3.5-5.2c-2.4,1.1-4.2,2.4-4.9,5.4a.6.6,0,0,1-.1.4A3.55,3.55,0,0,0,12,44.6Z"/><path class="cls-1" d="M14.4,74.7a6.9,6.9,0,0,1,1.1-5,9.09,9.09,0,0,1,1.8-2.1h-.1a6.82,6.82,0,0,1-6.9-3.3c0,4,0,8-.2,12.1A32,32,0,0,1,14.4,74.7Z"/><path class="cls-1" d="M31.9,46c.6-.8,1.3-1.6,2-2.4a5.82,5.82,0,0,1-2.5-1.2c-3.5-3-7.1,1.7-9.3,5.6a11.37,11.37,0,0,1,1.3,3C22.9,45.8,29.2,43.2,31.9,46Z"/><path class="cls-1" d="M71,70c-2.3,2.6-6.1,3.1-10.1,3.3a3.46,3.46,0,0,1-1.6.8c3.7.4,7.4,1,11.1,1.7A27.84,27.84,0,0,1,71,70Z"/><path class="cls-1" d="M31.9,46c.6-.8,1.3-1.6,2-2.4a5.82,5.82,0,0,1-2.5-1.2c-3.5-3-7.1,1.7-9.3,5.6a11.37,11.37,0,0,1,1.3,3C22.9,45.8,29.2,43.2,31.9,46Z"/><path class="cls-1" d="M39.8,39.8a4.91,4.91,0,0,1,4.6,2c.8-.5,1.6-1,2.4-1.4l.9-.3c-.2-.1-.5-.1-.7-.2-1.9-.7-3.7-1.4-5.6-2.1h-.9a1.39,1.39,0,0,0-.5,1A3.55,3.55,0,0,1,39.8,39.8Z"/><path class="cls-1" d="M60.5,43a60.49,60.49,0,0,1-7.2-1.3c.1.2.3.3.4.5a31.61,31.61,0,0,1,3.6,7.1A14,14,0,0,1,60.5,43Z"/><rect class="cls-2" x="330" y="50.3" width="237.5" height="29"/><path class="cls-3" d="M305.8,63.1v2.1a.22.22,0,0,1-.2.2h-.2a.22.22,0,0,1-.2-.2V63.1a.22.22,0,0,1,.2-.2h.3c.1,0,.1.1.1.2"/><path class="cls-3" d="M181.1,60.9v6.4c0,.2.1.2.3.2h2.1c.1,0,.2.1.2.3v2.5c0,.1-.1.3-.2.3h-3.2a2.27,2.27,0,0,1-1.6-.6,1.61,1.61,0,0,1-.6-1.3V61c0-.2-.1-.2-.2-.2h-1.3c-.2,0-.3-.1-.3-.2V58.1c0-.1.1-.3.2-.3h1.4c.2,0,.2-.1.2-.2V54.3c0-.2.1-.2.3-.2h2.5c.2,0,.2.1.2.2v3.1c0,.2.1.2.3.2h2c.1,0,.3.1.3.2v2.6c0,.2-.1.2-.3.2h-2q-.3.15-.3.3"/><path class="cls-3" d="M169.9,67.6h4.7c.1,0,.3.1.3.2v2.5c0,.1-.1.3-.2.3h-4.8a6.87,6.87,0,0,1-2.4-.5,4.63,4.63,0,0,1-1.8-1.3,4.52,4.52,0,0,1-1.1-1.7,4.06,4.06,0,0,1-.4-1.9V63.1a5.87,5.87,0,0,1,.4-2.3,3.86,3.86,0,0,1,1.1-1.7,5.64,5.64,0,0,1,2-1.1,9,9,0,0,1,2.8-.4h4.2c.2,0,.3.1.3.2v2.5c0,.2-.1.2-.3.2H170a2.43,2.43,0,0,0-2.1.9,3.14,3.14,0,0,0-.7,2.1v1.1a2.88,2.88,0,0,0,.7,2c.3.7,1,1,2,1"/><path class="cls-3" d="M139.9,61v8.8c0,.5-.2.8-.7.8h-1.7a.55.55,0,0,1-.5-.3,1.85,1.85,0,0,1-.2-.7V59.3a1.61,1.61,0,0,1,.5-1.1,2.11,2.11,0,0,1,1.3-.5h5.6a3.29,3.29,0,0,1,1.7.4,4.51,4.51,0,0,1,1.4,1,4.19,4.19,0,0,1,.9,1.4,4.53,4.53,0,0,1,.3,1.6v8.2c0,.1-.1.3-.2.3h-2.6c-.2,0-.2-.1-.2-.3V62.4a3.55,3.55,0,0,0-.2-1,1,1,0,0,0-.5-.6c-.3-.1-.5-.2-.8-.3a3.4,3.4,0,0,0-1-.1h-2.4c-.2,0-.3.1-.5.2a.52.52,0,0,0-.2.4"/><path class="cls-3" d="M126.3,61v8.8c0,.5-.2.8-.7.8h-1.7a.55.55,0,0,1-.5-.3,1.85,1.85,0,0,1-.2-.7V59.3a1.61,1.61,0,0,1,.5-1.1,2.11,2.11,0,0,1,1.3-.5h5.6a3.29,3.29,0,0,1,1.7.4,4.51,4.51,0,0,1,1.4,1,4.19,4.19,0,0,1,.9,1.4,4.53,4.53,0,0,1,.3,1.6v8.2c0,.1-.1.3-.2.3h-2.6c-.2,0-.2-.1-.2-.3V62.4a3.55,3.55,0,0,0-.2-1,1,1,0,0,0-.5-.6c-.3-.1-.5-.2-.8-.3a3.4,3.4,0,0,0-1-.1H127c-.2,0-.3.1-.5.2a.52.52,0,0,0-.2.4"/><path class="cls-3" d="M94.9,65.3v-7a6.45,6.45,0,0,1,.3-2,3.55,3.55,0,0,1,.4-.9c.2-.3.4-.5.5-.7a4.89,4.89,0,0,1,1.8-1.4,5.93,5.93,0,0,1,2.3-.5h6.6c.2,0,.2.1.2.2v2.7c0,.2-.1.2-.2.2h-6.4a2.07,2.07,0,0,0-1.4,1,3.84,3.84,0,0,0-.5,2.1v6.3a2,2,0,0,0,.6,1.4,3.51,3.51,0,0,0,1.4.6h6.4c.2,0,.2.1.2.2v2.8c0,.2-.1.3-.2.3h-6.5c-.5,0-.9-.1-1.3-.1a2.93,2.93,0,0,1-1-.3,4.52,4.52,0,0,1-1.7-1.1,6.15,6.15,0,0,1-1.2-1.9,1.85,1.85,0,0,1-.2-.7,4.87,4.87,0,0,1-.1-1.2"/><path class="cls-3" d="M196.1,54.2v1.5a.22.22,0,0,1-.2.2h-8.5a.22.22,0,0,1-.2-.2V54.2a.22.22,0,0,1,.2-.2h8.5l.2.2"/><path class="cls-3" d="M302.2,62.9H212.5c-4.2,0-7.3,5.2-11.6,5.2H190.4a3.4,3.4,0,0,1-1-.1,2,2,0,0,1-.8-.4c-.2-.2-.4-.3-.5-.5l-.3-1.2c0-.2.1-.2.2-.2h9.2c.2,0,.3-.1.3-.2V62.9a7.61,7.61,0,0,0-.3-2.1,3.55,3.55,0,0,0-1.1-1.6,5.24,5.24,0,0,0-1.8-1,8.42,8.42,0,0,0-2.7-.4,10.68,10.68,0,0,0-2.5.3,5.7,5.7,0,0,0-2.2,1.1,4.74,4.74,0,0,0-1.6,2.1,9.19,9.19,0,0,0-.6,3.3,9,9,0,0,0,.4,2.8,3.87,3.87,0,0,0,1.2,1.9,5.44,5.44,0,0,0,2.3,1.1,13.42,13.42,0,0,0,3.5.4h9a9.85,9.85,0,0,0,1.7-.2,8.8,8.8,0,0,0,1.5-.5l1.8-.9c.8-.5,1.5-1,2.2-1.5.3-.2.7-.5,1-.7l.9-.6c.4-.2.7-.4,1.1-.6a1.85,1.85,0,0,1,.7-.2c.2,0,.4-.1.6-.1h89.7c.2,0,.2-.1.2-.2v-2c0-.3-.1-.4-.3-.4M188.1,61.6a1.46,1.46,0,0,1,.9-.6,5.64,5.64,0,0,1,1.2-.4,5.37,5.37,0,0,1,3.5.5,1.86,1.86,0,0,1,.9,1.5c0,.1-.1.3-.2.3h-6.5c-.2,0-.2-.1-.2-.3a1,1,0,0,1,.4-1"/><path class="cls-3" d="M330.4,64.1v.5c-.1.1-.2.4-.5.4l-1.8-.3v.5h-.5V63.3h.5v.5l1.8-.3a.55.55,0,0,1,.5.3Z"/><path class="cls-3" d="M304.8,63.1v2.1a.22.22,0,0,1-.2.2h-1.4a.22.22,0,0,1-.2-.2V63.1a.22.22,0,0,1,.2-.2h1.4a.22.22,0,0,1,.2.2"/><path class="cls-3" d="M306.8,63.1v2.1a.22.22,0,0,1-.2.2h-.2a.22.22,0,0,1-.2-.2V63.1a.22.22,0,0,1,.2-.2h.3c.1.1.1.1.1.2"/><path class="cls-3" d="M307.8,63.1v2.1a.22.22,0,0,1-.2.2h-.2a.22.22,0,0,1-.2-.2V63.1a.22.22,0,0,1,.2-.2h.3c.1.1.1.1.1.2"/><path class="cls-3" d="M322.3,61.5a.22.22,0,0,0-.2-.2H309.4a10.93,10.93,0,0,0-.8,1.5h-.3a.22.22,0,0,0-.2.2v2.1a.22.22,0,0,0,.2.2h.3a10.93,10.93,0,0,1,.8,1.5h12.7a.22.22,0,0,0,.2-.2V61.5Z"/><rect class="cls-3" x="322.6" y="63.2" width="4.6" height="1.9"/><path class="cls-3" d="M162.3,60.6a3.55,3.55,0,0,0-1.1-1.6,5.24,5.24,0,0,0-1.8-1,8.42,8.42,0,0,0-2.7-.4,10.68,10.68,0,0,0-2.5.3A6.5,6.5,0,0,0,152,59a4.74,4.74,0,0,0-1.6,2.1,9.19,9.19,0,0,0-.6,3.3,9,9,0,0,0,.4,2.8,3.87,3.87,0,0,0,1.2,1.9,5.44,5.44,0,0,0,2.3,1.1,13.42,13.42,0,0,0,3.5.4h4.2c.2,0,.2-.1.2-.3V67.8c0-.2-.1-.3-.2-.3h-5.9a3.4,3.4,0,0,1-1-.1,2,2,0,0,1-.8-.4c-.2-.2-.4-.3-.5-.6a1.85,1.85,0,0,1-.2-.7c0-.2.1-.2.2-.2h9.2c.2,0,.2-.1.2-.2V62.7a7.61,7.61,0,0,0-.3-2.1m-2.7,2.1h-6.4c-.2,0-.2-.1-.2-.3a1.09,1.09,0,0,1,.4-.9,1.46,1.46,0,0,1,.9-.6,5.64,5.64,0,0,1,1.2-.4,4.1,4.1,0,0,1,1.1-.1,5,5,0,0,1,2.4.6,1.86,1.86,0,0,1,.9,1.5c-.1.1-.2.2-.3.2"/><path class="cls-3" d="M121.1,59.8a3.45,3.45,0,0,0-.9-1.2,7.46,7.46,0,0,0-1.2-.7,3.18,3.18,0,0,0-1.4-.2h-5a4,4,0,0,0-1.5.3,2,2,0,0,0-1.2.8,8.34,8.34,0,0,0-.8,1.2,4.53,4.53,0,0,0-.3,1.6V66a9.85,9.85,0,0,0,.2,1.7,4,4,0,0,0,.6,1.5,4.26,4.26,0,0,0,1.2,1.1,4.06,4.06,0,0,0,1.9.4h4.4a13.55,13.55,0,0,0,2-.2,2.22,2.22,0,0,0,1.3-.8,2.75,2.75,0,0,0,.8-1.5,10.68,10.68,0,0,0,.3-2.5V61.5a8.47,8.47,0,0,0-.4-1.7m-2.7,4.3v2a1.23,1.23,0,0,1-.7,1.1,2.93,2.93,0,0,1-1.6.4h-2.3a1.7,1.7,0,0,1-.7-.1,1.85,1.85,0,0,1-.7-.2,1.21,1.21,0,0,1-.5-.5,1.88,1.88,0,0,1-.2-.8V62a1.42,1.42,0,0,1,.2-.6c.1-.2.3-.3.4-.4a1.42,1.42,0,0,1,.6-.2c.2,0,.4-.1.6-.1h2.7a1.7,1.7,0,0,1,.7.1,1.85,1.85,0,0,1,.7.2,1,1,0,0,1,.5.4c.1.2.2.3.2.5A16.2,16.2,0,0,1,118.4,64.1Z"/><path class="cls-4" d="M299.8,45.9h11.1c.2,0,.3,0,.4.1s.1.2.1.4v.5c0,.2,0,.3-.1.4s-.2.1-.4.1H298.7c-.2,0-.3,0-.4-.1a.52.52,0,0,1-.2-.4v-21a.52.52,0,0,1,.2-.4c.1-.1.2-.1.4-.1h.5c.2,0,.3,0,.4.1s.1.2.1.4l.1,20Z"/><path class="cls-4" d="M242,25.4h14.4c.2,0,.3,0,.4.1a.52.52,0,0,1,.2.4v.5c0,.2,0,.3-.2.4a.52.52,0,0,1-.4.2h-6.3V47c0,.4-.2.5-.5.5h-.5c-.4,0-.5-.2-.5-.5V27h-6.5c-.3,0-.6-.2-.6-.4v-.7c-.1-.3.1-.5.5-.5"/><path class="cls-4" d="M197.9,45.4a10.14,10.14,0,0,1-3.2,1.8,12.09,12.09,0,0,1-3.8.6,11.17,11.17,0,0,1-4.4-.9,11,11,0,0,1-6-6,11.17,11.17,0,0,1-.9-4.4,10.32,10.32,0,0,1,.4-3,9,9,0,0,1,1.1-2.7,11.51,11.51,0,0,1,4.1-4.1,8.08,8.08,0,0,1,2.7-1.1,10.32,10.32,0,0,1,3-.4,9.86,9.86,0,0,1,3.8.7,10.62,10.62,0,0,1,3.3,1.8.52.52,0,0,1,.2.4c0,.1-.1.2-.1.3l-.1.1c-.1.1-.1.2-.2.2l-.2.2c-.1.1-.1.1-.2.1h-.2c-.1,0-.1,0-.2-.1a7.61,7.61,0,0,0-2.8-1.5,8.15,8.15,0,0,0-3.1-.6,11.53,11.53,0,0,0-2.6.3,12.23,12.23,0,0,0-2.4,1,10,10,0,0,0-4.5,5.8,10.68,10.68,0,0,0-.3,2.5,7.46,7.46,0,0,0,.4,2.6,9.43,9.43,0,0,0,1,2.3,7,7,0,0,0,1.5,1.9,9.51,9.51,0,0,0,2,1.5,16,16,0,0,0,2.3,1,10.68,10.68,0,0,0,2.5.3,10.46,10.46,0,0,0,5.9-2c.1-.1.2-.1.4-.2s.1,0,.2-.1.1,0,.2.1l.3.3a.52.52,0,0,1,.2.4.37.37,0,0,1,.1.3c0,.1,0,.2-.1.2-.2.3-.3.3-.3.4"/><path class="cls-4" d="M165.6,47.9,149.8,28.6V47c0,.4-.2.5-.5.5h-.5c-.4,0-.6-.2-.6-.5V25.4a.37.37,0,0,1,.1-.3c0-.1.1-.2.3-.2a.52.52,0,0,1,.4.2c2.7,3.2,5.3,6.5,7.9,9.7s5.3,6.4,7.9,9.7V25.9c0-.4.2-.5.5-.5h.5c.4,0,.5.2.5.5V47.6a.37.37,0,0,1-.1.3c-.1.1-.2.2-.3.2s-.2-.1-.3-.2"/><path class="cls-4" d="M315.2,25.4h14.4c.4,0,.6.2.6.5v.5c0,.2,0,.3-.1.4s-.2.1-.4.1H316.4V38h10.7c.2,0,.3,0,.4.1a.52.52,0,0,1,.2.4V39c0,.2-.1.3-.1.4s-.2.1-.4.1H316.5v6.1H330c.3,0,.6.2.6.4v.7c0,.4-.2.5-.5.5H315.4c-.2,0-.3,0-.4-.1s-.1-.2-.1-.4V25.9c0-.2.1-.4.2-.4-.1-.1,0-.1.1-.1"/><path class="cls-4" d="M107.1,44.5c3.1-6.5,6.2-12.9,9.3-19.4.1-.2.2-.3.4-.3a.52.52,0,0,1,.4.2.6.6,0,0,1,.1.4c.7,7.2,1.4,14.4,2,21.6,0,.4-.2.5-.5.5h-.6c-.2,0-.3,0-.4-.2a.6.6,0,0,1-.1-.4c-.5-5.8-1-11.6-1.6-17.4-2.8,6-5.7,11.9-8.5,17.9a.22.22,0,0,1-.2.2.37.37,0,0,1-.3.1c-.2,0-.3-.1-.4-.3-2.8-6-5.7-11.9-8.5-17.9-.5,5.8-1,11.6-1.6,17.5,0,.4-.2.6-.5.6h-.7a.52.52,0,0,1-.4-.2.6.6,0,0,1-.1-.4c.6-7.2,1.3-14.4,2-21.6,0-.1.1-.3.1-.4a.52.52,0,0,1,.4-.2c.2,0,.3.1.4.3,3,6.5,6.1,12.9,9.3,19.4Z"/><path class="cls-4" d="M143.8,33.5c-.3-.9-.7-1.8-1.1-2.7a11.51,11.51,0,0,0-4.1-4.1,8.08,8.08,0,0,0-2.7-1.1,12.19,12.19,0,0,0-6,0c-.9.3-1.8.7-2.7,1.1a11.51,11.51,0,0,0-4.1,4.1,8.08,8.08,0,0,0-1.1,2.7,12.19,12.19,0,0,0,0,6,9,9,0,0,0,1.1,2.7,12.06,12.06,0,0,0,4.1,4.1,8.08,8.08,0,0,0,2.7,1.1,12.19,12.19,0,0,0,6,0,9,9,0,0,0,2.7-1.1,11.51,11.51,0,0,0,4.1-4.1,8.08,8.08,0,0,0,1.1-2.7,11.45,11.45,0,0,0,0-6m-1.6,5.6a10.38,10.38,0,0,1-2.5,4.3,9.51,9.51,0,0,1-2,1.5,16,16,0,0,1-2.3,1,11.53,11.53,0,0,1-2.6.3,10,10,0,0,1-3.8-.8,10.15,10.15,0,0,1-5.2-5.2,10,10,0,0,1-.8-3.8,7.46,7.46,0,0,1,.4-2.6,10.38,10.38,0,0,1,2.5-4.3,10.75,10.75,0,0,1,4.3-2.5,11.53,11.53,0,0,1,2.6-.3,8.38,8.38,0,0,1,3.8.8,10.15,10.15,0,0,1,5.2,5.2,10,10,0,0,1,.8,3.8,7.46,7.46,0,0,1-.4,2.6"/><path class="cls-4" d="M219.1,47h0c-3-7.3-6-14.4-9-21.6-.1-.2-.2-.3-.4-.3s-.1,0-.2.1-.1.2-.2.3-.1.2-.2.3-.1.2-.2.3c-2.9,6.9-5.8,13.8-8.7,20.8,0,.1,0,.1-.1.2s.1.2.3.3a2.2,2.2,0,0,0,.8.1c.3,0,.4-.2.6-.5.4-.9.8-1.9,1.2-2.8h13.2l.6,1.5c.2.5.4,1,.6,1.4a.66.66,0,0,0,.5.4,2.2,2.2,0,0,0,.8-.1q.3-.15.3-.3c.1,0,.1,0,.1-.1h0m-15.4-4.4,5.9-14.3h0l.3.6a1.42,1.42,0,0,1,.2.6c1.8,4.4,3.6,8.7,5.4,13.1Z"/><path class="cls-4" d="M237.7,37.7a6.19,6.19,0,0,0,.7-1.9,7.61,7.61,0,0,0,.3-2.1,8.15,8.15,0,0,0-.6-3.1,9.48,9.48,0,0,0-1.7-2.7,8.3,8.3,0,0,0-2.7-1.9,8.42,8.42,0,0,0-3.5-.7h-7.3a.65.65,0,0,0-.6.6V46.8c0,.3.2.6.4.6h.7c.3,0,.6-.2.6-.4V41.9h6.1a8.66,8.66,0,0,0,3.2-.6L236,47c.1.2.2.3.4.3h.9c.2,0,.4-.1.4-.3v-.3c-.9-2-1.9-4-2.9-6.1a10.1,10.1,0,0,0,1.6-1.3,4,4,0,0,0,1.3-1.6m-4.6,2.1a7.17,7.17,0,0,1-2.9.6h-6.1V27.1h6.1a7.17,7.17,0,0,1,2.9.6,8,8,0,0,1,2.1,1.5,5.71,5.71,0,0,1,1.3,2.1,7,7,0,0,1,.5,2.5,7.17,7.17,0,0,1-1.8,4.6,6,6,0,0,1-2.1,1.4"/><path class="cls-4" d="M274.5,47h0c-3-7.3-6-14.4-9-21.6-.1-.2-.2-.3-.4-.3s-.1,0-.2.1-.1.2-.2.3-.1.2-.2.3-.1.2-.2.3c-2.9,6.9-5.8,13.8-8.7,20.8,0,.1,0,.1-.1.2s.1.2.3.3a2.2,2.2,0,0,0,.8.1c.2,0,.4-.2.6-.5.4-.9.8-1.9,1.2-2.8h13.2l.6,1.5c.2.5.4,1,.6,1.4a.55.55,0,0,0,.6.4,2.2,2.2,0,0,0,.8-.1q.3-.15.3-.3V47m-15.4-4.4L265,28.3h0l.3.6a1.42,1.42,0,0,1,.2.6c1.8,4.4,3.6,8.7,5.4,13.1Z"/><path class="cls-4" d="M294.2,39.2a8.87,8.87,0,0,0-.8-1.7,15.37,15.37,0,0,0-1.2-1.3,6,6,0,0,0-1.5-.9,5.75,5.75,0,0,0,1.9-1.9,4.84,4.84,0,0,0,.7-2.6,4.19,4.19,0,0,0-.5-2.2,6.57,6.57,0,0,0-1.2-1.7,4.18,4.18,0,0,0-1.8-1.1,5.87,5.87,0,0,0-2.3-.4h-9a.37.37,0,0,0-.3.1.76.76,0,0,0-.2.5V47.1c0,.1.1.2.1.3a.37.37,0,0,0,.3.1h10.2a5.93,5.93,0,0,0,2.3-.5,5,5,0,0,0,1.9-1.3,6.27,6.27,0,0,0,1.8-4.5,14.16,14.16,0,0,0-.4-2M279.5,27h7.1a12.25,12.25,0,0,1,1.9.2,7.74,7.74,0,0,1,1.6.7,4.26,4.26,0,0,1,1.1,1.2,3.29,3.29,0,0,1,.4,1.7,4.53,4.53,0,0,1-.3,1.6,2.73,2.73,0,0,1-.9,1.2,5.67,5.67,0,0,1-1.3.8,4.53,4.53,0,0,1-1.6.3h-7.8l-.2-7.7Zm13,16.3a4.51,4.51,0,0,1-1,1.4,4.19,4.19,0,0,1-1.4.9,4.53,4.53,0,0,1-1.6.3h-9V36.4h8.9a3.29,3.29,0,0,1,1.7.4,7.1,7.1,0,0,1,1.4,1,8.64,8.64,0,0,1,1,1.6,4.48,4.48,0,0,1,.4,2,12.86,12.86,0,0,1-.4,1.9"/><path class="cls-1" d="M68.8,6.9a.52.52,0,0,0,.4-.2A3.29,3.29,0,0,1,70.8,6a2.77,2.77,0,0,1,.9-.1,3.55,3.55,0,0,1,1,.2,3.71,3.71,0,0,1,1.7,1.3c0,.1.1.1.1.2s.2.3.3.4a1.14,1.14,0,0,1,.3.8v.4c0,.2-.1.5-.1.7s-.1.3-.3.5a6.73,6.73,0,0,1-1.4,1.5c-.2.2-.5.4-.7.6s-.6.5-.9.8c-.7.5-1.3,1.1-2,1.6-.2.1-.3.3-.5.4a1,1,0,0,0-.4.5.37.37,0,0,1-.3.1c-.1,0-.1-.1-.2-.1a.6.6,0,0,1-.4-.1l-.6-.6c-.2-.3-.4-.5-.6-.8l-.7-.7a11.51,11.51,0,0,1-1.4-1.7c-.3-.4-.6-.9-.9-1.3a2,2,0,0,1-.4-.8c0-.1-.1-.1-.1-.2-.1-.3-.1-.6-.2-.9a2.62,2.62,0,0,1,.2-1.5,2.07,2.07,0,0,1,.6-1,2.65,2.65,0,0,1,.6-.5c.1-.1.1-.1.2-.1s.1,0,.2-.1.3-.1.4-.2c.4,0,.7-.1,1.1-.1a1.88,1.88,0,0,1,.8.2c.1,0,.1.1.2.1a3.29,3.29,0,0,1,.6.3l.4.4c.2.1.3.3.4.4A.37.37,0,0,0,68.8,6.9Z"/><path class="cls-1" d="M76.1,78.6h0a12.2,12.2,0,0,1,1.7.7,3.13,3.13,0,0,1,1,.5c.4.3.9.5,1.3.8.1,0,.1.1.2.1a4.74,4.74,0,0,1,1,1,1.79,1.79,0,0,1,.5.7l.9,2.1a1.7,1.7,0,0,1,.1.7v.3a1.49,1.49,0,0,1-.2.9c-.1.1-.1.2-.1.4s-.2.3-.4.3-.7.1-1,.1H70.4a19.27,19.27,0,0,0-2.4.1H59.1c-.3,0-.7.1-1,.1h-.3c-.2,0-.5-.1-.7,0H54.8a2.2,2.2,0,0,0-.8.1H36.7a1.7,1.7,0,0,1-1,0H34.3a5.44,5.44,0,0,0-1.8,0H28.1c-.2,0-.4.1-.7.1h-3a.37.37,0,0,1-.3-.1.19.19,0,0,0-.3,0h-.4c-.6,0-1.3-.1-1.9-.1H18.2a4.85,4.85,0,0,0-1.7,0h-.1a10.87,10.87,0,0,1-1.8.1H12.3a6.05,6.05,0,0,0-1.9,0H9.9a1.1,1.1,0,0,0-.8,0H5.3a5,5,0,0,0-1.2-.2H2.8c-.3,0-.6-.1-.9-.1-.1,0-.2-.1-.3-.2a3.33,3.33,0,0,1-.3-.6,5.7,5.7,0,0,1-.1-1.3,1.88,1.88,0,0,1,.2-.8,7.74,7.74,0,0,1,.7-1.6,7.55,7.55,0,0,1,1.1-1.4h0a4.18,4.18,0,0,1,1.5-1.1,16.18,16.18,0,0,1,1.8-1c.4-.2.8-.3,1.2-.5.2-.1.4-.1.6-.2s.1-.1.2-.1.1-.1,0-.1,0-.1-.1-.2a.6.6,0,0,1-.1-.4,1.42,1.42,0,0,0-.2-.6V77a1.93,1.93,0,0,0-.3-1c-.1-.3-.1-.6-.2-.9,0-.8-.2-1.5-.2-2.3-.1-.4,0-.8-.1-1.2V69.4c0-.4.1-.8.1-1.2v-.8c.1-.6.2-1.1.3-1.7,0-.1.1-.3.1-.4a2.92,2.92,0,0,1,.2-.9v-.3c0-.1-.1-.3-.1-.4L7,62.8c-.1-.1-.3-.2-.4-.4a1,1,0,0,1-.5-.4,9,9,0,0,1-1-.9,3,3,0,0,1-.8-.8c-.4-.4-.7-.8-1.1-1.2A19.23,19.23,0,0,1,1.4,56a12.09,12.09,0,0,1-.5-1.8c-.1-.3-.1-.7-.2-1a2.2,2.2,0,0,0-.1-.8V50.9A12.25,12.25,0,0,1,.8,49a.37.37,0,0,1,.1-.3.6.6,0,0,0,.1-.4H1c0-.2.2-.4.2-.6a1.42,1.42,0,0,1,.2-.6,1.42,1.42,0,0,0,.2-.6c0-.1,0-.1.1-.1a3.7,3.7,0,0,1,.5-1.1c.2,0,.2-.1.2-.1a4.67,4.67,0,0,1,.5-1c.2-.3.3-.5.5-.8,0-.1,0-.1.1-.1.2-.2.3-.5.5-.7a1.61,1.61,0,0,1,.4-.7c.1-.1.2-.2.2-.3a1,1,0,0,1,.4-.5c.2-.1.3-.3.5-.4a2.65,2.65,0,0,0,.6-.5.19.19,0,0,0,0-.3h0a.76.76,0,0,1-.2-.5c0-.2-.1-.4,0-.6s.3-.3.4-.5l.1-.1c.1,0,.2-.1.4-.1H7c.2,0,.5.1.7.1a.37.37,0,0,1,.3.1h.3c.1,0,.1,0,.1-.1a.37.37,0,0,0-.1-.3.62.62,0,0,1,.1-.7.37.37,0,0,0,.1-.3c.6-.5,1.2-1,1.7-1.4.2-.1.4-.3.6-.4l1.8-1.5a4.44,4.44,0,0,1,1.1-.8c.2-.2.5-.3.7-.5s.2-.1.3-.2a6.42,6.42,0,0,1,1.3-1c.2-.2.4-.3.6-.5s.2-.1.3-.2a2.09,2.09,0,0,0,.6-.4h.2c.1,0,.1,0,.1-.1v-.4a.9.9,0,0,0-.1-.5.84.84,0,0,1,.2-.7,2.65,2.65,0,0,1,.5-.6c.3-.3.5-.6.8-.9l.3-.3c.2-.2.4-.3.5-.5s.4-.3.5-.5.3-.3.5-.5a5.5,5.5,0,0,1,.9-.7,6.47,6.47,0,0,1,.9-.8c.1-.1.2-.1.2-.2l.1-.1c.2-.1.3-.2.5-.3h.5c.5,0,.4,0,.5-.5,0-.3.1-.5.1-.8a1.14,1.14,0,0,1,.3-.8,3.13,3.13,0,0,0,.5-1,4.19,4.19,0,0,1,.9-1.4c.1-.1.2-.2.2-.3l.1-.1a1,1,0,0,1,.4-.5c.2-.2.3-.4.5-.5l.2-.2a.76.76,0,0,0,.2-.5V14.8a1.27,1.27,0,0,1,.1-.6c0-.2.1-.5,0-.7a.85.85,0,0,1,0-.7c.1-.2,0-.5,0-.7s-.1-.5,0-.7v-.5a.9.9,0,0,1,.1-.5h0a1.7,1.7,0,0,1,0-1V8a2.77,2.77,0,0,1,.1-.9V6.9c-.1-.2,0-.4,0-.6a2.77,2.77,0,0,0,.1-.9V4.9c0-.4.1-.8.1-1.2a2.2,2.2,0,0,1-.1-.8V2.7a.85.85,0,0,0,0-.7h0c-.1-.5.2-.8.5-1.1.1-.1.1-.1.2-.1s.2-.1.3,0,.1.1.2.1l.9.3c.2,0,.3.1.4.3a6.47,6.47,0,0,0,.8.9c.2.3.5.5.7.8.8,1,1.7,2,2.5,3l.1.1c.1.1.1.1.2.1h.6a4.1,4.1,0,0,1,1.1.1c.4,0,.9.1,1.3.1h4.5a4.87,4.87,0,0,1,1.2.1c.2-.4.3-.4.5-.4h2.2a10.63,10.63,0,0,1,.9-1.1c.1-.1.1-.2.2-.2.6-.6,1.1-1.3,1.7-1.9.2-.2.3-.4.5-.6a1.76,1.76,0,0,0,.4-.5c.4-.4.7-.8,1.1-1.2l.3-.3L52,.2a.52.52,0,0,1,.4-.2.6.6,0,0,1,.4.1,4.74,4.74,0,0,1,1,1c.1.2.2.5.3.7v.1c-.1.2-.1.5-.2.7,0,0-.1.1,0,.1,0,.2-.1.4-.1.6v.5a.37.37,0,0,1-.1.3,1.41,1.41,0,0,0-.1.9v.2c0,.2-.1.5-.1.7a.6.6,0,0,1-.1.4v.2a.37.37,0,0,0,.1.3v.1a.85.85,0,0,0,0,.7c0,.4-.1.9-.1,1.3a.9.9,0,0,1-.1.5.9.9,0,0,1-.1.5v1c0,.2-.1.4-.1.6v.6a.37.37,0,0,1-.1.3v.1a.85.85,0,0,1,0,.7,1.27,1.27,0,0,0-.1.6,5,5,0,0,1-.2,1.2.37.37,0,0,0,.1.3l.1.1a9,9,0,0,1,1,.9c.2.3.5.5.7.8a1.79,1.79,0,0,1,.5.7,1,1,0,0,0,.4.5,1.61,1.61,0,0,1,.4.7,5.39,5.39,0,0,1,.7,1.3,4.18,4.18,0,0,1,.4,1c0,.1.1.1.2.1s.3-.1.4-.1h.3a.84.84,0,0,1,.7.2,5.5,5.5,0,0,1,.9.7c.1.1.2.1.2.2s.2.1.2.2.2.2.3.2a1,1,0,0,1,.5.4,2.65,2.65,0,0,0,.6.5c.7.5,1.4,1.1,2,1.6a5.73,5.73,0,0,1,1.1,1.1c0,.1.1.1.2.2l.2.2a.62.62,0,0,1,.2.7c0,.1-.1.1,0,.2a.37.37,0,0,1,.3.1c.2.1.5.2.7.3a1.21,1.21,0,0,1,.5.5c.1.2.4.3.5.5a1,1,0,0,0,.5.4c.3.3.7.6,1.1,1,.1.1.3.2.4.4a6.42,6.42,0,0,1,1.3,1c.7.7,1.5,1.3,2.2,2,.3.3.6.5.9.8a2.34,2.34,0,0,1,.7.7l3,3,.5.5.4.4a1.09,1.09,0,0,1,.4.9v.1c-.1.1-.1.2-.2.3h.7a1.14,1.14,0,0,1,.8.3l.2.2c.3.1.5.4.7.6a.37.37,0,0,1,.1.3c0,.1.1.2,0,.4s0,.2,0,.3A10.1,10.1,0,0,1,82,44.3c.1.1.2.2.2.3l.9,1.5c.2.5.5,1,.7,1.5a9,9,0,0,1,.8,2.8,5,5,0,0,1,.2,1.2,1.27,1.27,0,0,0,.1.6v1.4a1.1,1.1,0,0,0,0,.8,2.2,2.2,0,0,1-.1.8,1.85,1.85,0,0,1-.2.7c0,.1-.1.3-.1.4s-.1.2-.1.4a.37.37,0,0,0-.1.3,3.7,3.7,0,0,1-.5,1.1,6.73,6.73,0,0,1-.7,1.1c0,.1-.1.1-.1.2a5.26,5.26,0,0,1-1.2,1.4,6.89,6.89,0,0,1-1.3,1.1l-.9.6c-.2.1-.3.2-.5.3a2.09,2.09,0,0,1-.6.4c-.3.2-.7.4-1,.6-.1,0-.1,0-.1.1h0c-.4.3-.4.3-.3.8a2.77,2.77,0,0,1,.1.9,6.6,6.6,0,0,1,.1,1.4v3.8a.9.9,0,0,1-.1.5c0,.2-.1.4-.1.7a1.27,1.27,0,0,1-.1.6c0,.2-.1.3-.1.5a1.27,1.27,0,0,1-.1.6,2.2,2.2,0,0,0-.1.8,4.25,4.25,0,0,1-.2,1.1c-.1.5-.2.9-.3,1.4A1.81,1.81,0,0,1,76.1,78.6Z"/><path class="cls-5" d="M74.9,78.1h0c.6.2,1.1.5,1.7.7a3.13,3.13,0,0,1,1,.5c.4.3.8.5,1.2.8.1,0,.1.1.2.1a4.74,4.74,0,0,1,1,1c.2.2.3.5.5.7a11.92,11.92,0,0,1,.8,2,1.7,1.7,0,0,1,.1.7v.3a1.08,1.08,0,0,1-.2.8c-.1.1-.1.2-.1.4a.27.27,0,0,1-.3.3c-.3,0-.6.1-1,.1H58.3a3.4,3.4,0,0,0-1,.1H57c-.2,0-.5-.1-.7,0H36.6a1.7,1.7,0,0,1-1,0H34.2a4.85,4.85,0,0,0-1.7,0H28.2c-.2,0-.4.1-.6.1H24.7a.37.37,0,0,1-.3-.1.19.19,0,0,0-.3,0h-.4c-.6,0-1.3-.1-1.9-.1H18.7a4.85,4.85,0,0,0-1.7,0h-.1a9.7,9.7,0,0,1-1.7.1H10.7a1.1,1.1,0,0,0-.8,0H8.7a1.1,1.1,0,0,0-.8,0H6.4a4.1,4.1,0,0,1-1.1.1H4c-.3,0-.6-.1-.9-.1-.1,0-.2-.1-.3-.2l-.3-.6a4.87,4.87,0,0,1-.1-1.2,2.35,2.35,0,0,1,.2-.8,7.74,7.74,0,0,1,.7-1.6,6.42,6.42,0,0,1,1-1.3h0a3.27,3.27,0,0,1,1.5-1.1,17.39,17.39,0,0,1,1.8-1.1,5.36,5.36,0,0,0,1.1-.5c.2-.1.4-.1.6-.2s.1-.1.2-.1.1-.1,0-.1,0-.1-.1-.2a.6.6,0,0,1-.1-.4c0-.1-.1-.4-.1-.6v-.1c0-.4-.2-.7-.2-1a2.92,2.92,0,0,0-.2-.9c-.1-.7-.2-1.5-.3-2.2-.1-.4,0-.8-.1-1.2V69c0-.4.1-.8.1-1.1v-.8c.1-.5.2-1.1.3-1.6a.6.6,0,0,1,.1-.4,2.92,2.92,0,0,1,.2-.9v-.3c0-.1-.1-.3-.1-.4l-.9-.9c-.1-.1-.3-.2-.4-.4a1,1,0,0,0-.5-.4c-.3-.3-.7-.5-1-.8l-.8-.8a10.59,10.59,0,0,1-1-1.2,11.67,11.67,0,0,1-1.7-3.1,12.09,12.09,0,0,1-.5-1.8c-.1-.3-.1-.7-.2-1V50.9a11,11,0,0,1,.2-1.8.37.37,0,0,1,.1-.3c.1,0,.1-.1.2-.2h0c0-.2.2-.4.2-.6a1.42,1.42,0,0,1,.2-.6,1.42,1.42,0,0,0,.2-.6v-.1a3.7,3.7,0,0,1,.5-1.1l.1-.1a3.13,3.13,0,0,1,.5-1,2.18,2.18,0,0,1,.5-.8c0-.1,0-.1.1-.1a1.61,1.61,0,0,0,.4-.7,1.23,1.23,0,0,1,.4-.8c.1-.1.2-.2.2-.3a1,1,0,0,1,.4-.5l.4-.4a2.65,2.65,0,0,0,.6-.5c.1-.1.1-.2,0-.2a.76.76,0,0,1-.2-.5c0-.2-.1-.4,0-.6s.3-.3.4-.5l.1-.1c.1,0,.2-.1.3-.1H8c.2,0,.4.1.7.1a.37.37,0,0,1,.3.1h.3c.1,0,.1,0,.1-.1a.37.37,0,0,0-.1-.3.62.62,0,0,1,.1-.7v-.2l1.7-1.4a1,1,0,0,0,.5-.4L13.4,34a3.92,3.92,0,0,1,1-.8c.2-.2.5-.3.7-.5s.2-.1.3-.2a10.59,10.59,0,0,1,1.2-1c.2-.2.4-.3.6-.5s.2-.1.3-.2a2.09,2.09,0,0,0,.6-.4h.2c.1,0,.1,0,.1-.1v-.4a.9.9,0,0,0-.1-.5.84.84,0,0,1,.2-.7,2.65,2.65,0,0,1,.5-.6c.3-.3.5-.6.8-.9l.3-.3c.2-.2.4-.3.5-.5l.5-.5a1,1,0,0,1,.5-.4c.3-.3.6-.5.8-.7a5.5,5.5,0,0,1,.9-.7c.1-.1.2-.1.2-.2l.1-.1c.2-.1.3-.2.5-.3h.5c.5,0,.4,0,.5-.4a2.49,2.49,0,0,0,.1-.8,1.14,1.14,0,0,1,.3-.8,4.67,4.67,0,0,0,.5-1,6.38,6.38,0,0,1,.8-1.4c.1-.1.2-.2.2-.3l.1-.1a1,1,0,0,1,.4-.5,1.21,1.21,0,0,1,.5-.5l.2-.2a.76.76,0,0,0,.2-.5V15.5a1.27,1.27,0,0,1,.1-.6c0-.2.1-.5,0-.7a.85.85,0,0,1,0-.7c.1-.2,0-.5,0-.7s-.1-.5,0-.7v-.5a.9.9,0,0,1,.1-.5h0a1.7,1.7,0,0,1,0-1V8.7a2.77,2.77,0,0,1,.1-.9V7.6c-.1-.2,0-.4,0-.6a2.77,2.77,0,0,0,.1-.9V5.6c0-.4.1-.8.1-1.1s.1-.4,0-.6V3.7a.85.85,0,0,0,0-.7h0c-.1-.5.2-.8.5-1.1.1-.1.1-.1.2-.1s.2-.1.3,0,.1.1.2.1l.9.3c.2,0,.3.1.4.3s.3.5.5.8.5.5.7.8C33.4,5.1,34.2,6,35,7l.1.1c.1.1.1.1.2.1h.6a4.1,4.1,0,0,1,1.1.1c.4,0,.9.1,1.3.1h4.4a4.1,4.1,0,0,1,1.1.1.45.45,0,0,0,.5,0h.8c.4,0,.8.1,1.2.1h.2a4.44,4.44,0,0,1,.8-1.1c0-.4.1-.4.1-.5.6-.6,1.1-1.2,1.7-1.8.2-.2.3-.4.5-.6a1.76,1.76,0,0,0,.4-.5c.4-.4.7-.8,1.1-1.2l.3-.3.3-.3a.52.52,0,0,1,.4-.2.37.37,0,0,1,.3.1,4.74,4.74,0,0,1,1,1c.1.2.2.5.3.7V3c-.1.2-.1.5-.2.7,0,0-.1.1,0,.1a1.27,1.27,0,0,1-.1.6v.5a.37.37,0,0,1-.1.3,1.41,1.41,0,0,0-.1.9v.2c0,.2-.1.5-.1.7a.6.6,0,0,1-.1.4v.2a.37.37,0,0,0,.1.3V8a.9.9,0,0,0-.1.5c0,.4-.1.8-.1,1.3a.9.9,0,0,1-.1.5.9.9,0,0,1-.1.5v1c0,.2-.1.4-.1.6V13a.37.37,0,0,1-.1.3v.1c.1.2,0,.5,0,.7a1.27,1.27,0,0,0-.1.6,2,2,0,0,1-.2,1.1.37.37,0,0,0,.1.3l.1.1a9,9,0,0,1,1,.9c.2.3.5.5.7.8a1.79,1.79,0,0,1,.5.7,1,1,0,0,0,.4.5,2.09,2.09,0,0,1,.4.6c.2.4.5.8.7,1.3a4.18,4.18,0,0,1,.4,1c0,.1.1.1.2.1s.3-.1.4-.1h.3a.84.84,0,0,1,.7.2,5.5,5.5,0,0,1,.9.7l.2.2.2.2c.1.1.2.1.2.2.2.1.3.3.5.4a2.65,2.65,0,0,0,.6.5c.7.5,1.3,1.1,2,1.6a5.73,5.73,0,0,1,1.1,1.1c0,.1.1.1.2.2s.1.2.2.2a.62.62,0,0,1,.2.7c0,.1-.1.1,0,.2a.37.37,0,0,1,.3.1,1.85,1.85,0,0,0,.7.2l.5.5.5.5a1,1,0,0,0,.5.4c.3.3.7.6,1,.9.1.1.3.2.4.3a10.59,10.59,0,0,1,1.2,1,20,20,0,0,0,2.2,1.9,3,3,0,0,1,.8.8,4.35,4.35,0,0,0,.7.6c1,1,1.9,2,2.9,2.9l.5.5.4.4a1.23,1.23,0,0,1,.4.8v.1c-.1.1-.1.2-.2.3h.7a1.88,1.88,0,0,1,.8.2l.2.2a.9.9,0,0,1,.6.6.37.37,0,0,1,.1.3c0,.1.1.2,0,.4s0,.2,0,.3c.5.5.8,1.1,1.3,1.6.1.1.2.2.2.3a10.93,10.93,0,0,1,.8,1.5c.2.5.5,1,.7,1.5a12.9,12.9,0,0,1,.8,2.8,5,5,0,0,1,.2,1.2.75.75,0,0,0,.1.5v2.2a2.2,2.2,0,0,1-.1.8,1.85,1.85,0,0,1-.2.7c0,.1-.1.3-.1.4s-.1.2-.1.3a.37.37,0,0,0-.1.3,3.13,3.13,0,0,1-.5,1,4.13,4.13,0,0,1-.7,1.1c0,.1-.1.1-.1.2a4.89,4.89,0,0,1-1.2,1.3c-.4.4-.8.7-1.2,1.1l-.9.6c-.2.1-.3.2-.5.3a2.09,2.09,0,0,1-.6.4c-.3.2-.7.4-1,.6-.1,0-.1,0-.1.1-.4.3-.4.3-.3.8a2.77,2.77,0,0,1,.1.9,6.6,6.6,0,0,1,.1,1.4v3.8a.9.9,0,0,1-.1.5c0,.2-.1.4-.1.6a1.27,1.27,0,0,1-.1.6.9.9,0,0,1-.1.5,1.27,1.27,0,0,1-.1.6,2.2,2.2,0,0,0-.1.8,3.55,3.55,0,0,1-.2,1c-.1.5-.2.9-.3,1.4A3.72,3.72,0,0,1,74.9,78.1ZM13.1,51.4h0l-.3-.6a2.93,2.93,0,0,1-.4-1.6,4.25,4.25,0,0,1,.2-1.1,3.7,3.7,0,0,1,.5-1.1,3.22,3.22,0,0,1,2.1-1.5,4.1,4.1,0,0,1,1.1-.1h.6c.1,0,.2.1.3.1s.3.1.5.1a.44.44,0,0,0,.5-.1V41.2a2.77,2.77,0,0,1,.1-.9,1.27,1.27,0,0,1,.1-.6,2.27,2.27,0,0,1,.6-1.6c.1-.2.3-.3.4-.5a.37.37,0,0,0,.1-.3V37c0-.2-.1-.3-.1-.5a11.63,11.63,0,0,0-.4-1.8,2.2,2.2,0,0,1-.1-.8,11,11,0,0,1-.2-1.8v-.3c0-.1-.1-.1-.2-.1a.76.76,0,0,0-.4.2c-.3.2-.5.4-.8.6a2.84,2.84,0,0,0-1,.9l-.2.2c-.5.4-1,.7-1.5,1.1h0A10.1,10.1,0,0,0,13,36l-.2.2c-.3.1-.5.4-.7.6a1.38,1.38,0,0,1-.4.3,3.92,3.92,0,0,1-1,.8l-.1.1c-.1.1-.1.2-.1.4s.1.2.1.3a2.2,2.2,0,0,1,.1.8v.2c0,.1-.1.3-.1.4s-.2.2-.4.1a.52.52,0,0,1-.4-.2c-.1-.1-.3-.1-.4-.2-.3-.1-.5-.1-.8-.2H8.5c-.1.1-.2.1-.3.3s-.1.2,0,.3a.37.37,0,0,1,.1.3.37.37,0,0,0,.1.3c.1.1,0,.2-.1.3a4.35,4.35,0,0,0-.7.6.22.22,0,0,0-.2.2l-.6.9c-.3.5-.7,1.1-1,1.6,0,.1,0,.1-.1.1s-.2.4-.4.5c-.2.4-.3.7-.5,1.1l-.6,1.5c-.1.4-.2.7-.3,1.1s-.2.7-.3,1.1V50c0,.1-.1.3-.1.4,0,.3-.1.6-.1.9v1.3a5.7,5.7,0,0,0,.1,1.3c0,.2.1.3.1.5A6.47,6.47,0,0,0,4,55.7c.1.3.3.7.4,1s.3.5.4.8a12.74,12.74,0,0,0,1.3,1.9l.1.1a2.34,2.34,0,0,0,.7.7c.3.3.6.5.9.8l.3.3.2.2a2.7,2.7,0,0,1,.8.7,5.55,5.55,0,0,0,.8.6,1,1,0,0,1,.5.4c.1.1.1.2.2.2a.37.37,0,0,1,.1.3c-.1.3-.1.5-.2.8a4.25,4.25,0,0,0-.2,1.1v.1c-.1.3-.1.6-.2.9a4.87,4.87,0,0,0-.1,1.2,7.57,7.57,0,0,1-.1,1.5v3.1c0,.4.1.8.1,1.2a5,5,0,0,0,.2,1.2,10.46,10.46,0,0,0,.4,1.7l.3.9a.43.43,0,0,0,.4.4c.1,0,.2.1.3.1a1.7,1.7,0,0,0,1,0h1.1c.2-.1.4,0,.6,0H28.9a.85.85,0,0,1,.7,0H30a4.87,4.87,0,0,1,1.2-.1c.6,0,1.2.1,1.8.1h1a1.7,1.7,0,0,1,1,0h4.7a3.4,3.4,0,0,1,1,.1h1.4c.5-.1,1.1,0,1.7-.1h4a4.3,4.3,0,0,1,1.6,0h.2a.45.45,0,0,0,.5,0h1.8a1.1,1.1,0,0,1,.8,0h.6a2.05,2.05,0,0,1,1.1,0h7.1a2.2,2.2,0,0,1,.8.1,1.1,1.1,0,0,0,.8,0h1.7a2.05,2.05,0,0,1,1.1,0h4.7a2.05,2.05,0,0,1,1.1,0h.4a6.6,6.6,0,0,1,1.4-.1c.2,0,.4-.1.6-.1a.22.22,0,0,0,.2-.2c0-.2.1-.3.1-.5a4.25,4.25,0,0,0,.2-1.1,2.92,2.92,0,0,1,.2-.9c.1-.4.1-.8.2-1.1.1-.5.1-1,.2-1.5s.1-.9.2-1.3v-.1a8.6,8.6,0,0,0,.1-1.6V67.8c0-.8-.1-1.7-.1-2.5V65c-.1-.3-.1-.7-.2-1v-.2c.1-.2.1-.4.3-.6.6-.4,1.1-.7,1.7-1.1a1.79,1.79,0,0,1,.7-.5c.4-.3.9-.6,1.3-.9A2.7,2.7,0,0,0,80,60a3,3,0,0,0,.8-.8L82,57.4a4.18,4.18,0,0,0,.4-1c.1-.4.2-.9.3-1.3a5,5,0,0,0,.2-1.2,24.37,24.37,0,0,0-.1-2.7,14.16,14.16,0,0,0-.4-2c-.1-.2-.1-.4-.2-.6l-.1-.1a.52.52,0,0,0-.2-.4c-.1-.2-.1-.4-.2-.6-.2-.4-.4-.8-.6-1.3-.1-.1-.1-.2-.2-.4s-.5-.6-.7-.9c-.1-.1-.2-.3-.3-.4-.2-.3-.4-.5-.6-.8a3,3,0,0,1-.4-.8.45.45,0,0,1,0-.5c0-.1,0-.1-.1-.1s-.2-.1-.3-.1a1.27,1.27,0,0,0-.6.1c-.1,0-.1.1-.2.1s-.3.1-.5.1-.3.1-.4,0-.2-.1-.3-.2-.1,0-.1-.1a.52.52,0,0,1-.2-.4c0-.1-.1-.1-.1-.2a2.54,2.54,0,0,1,.2-1.2h0c.1-.3.2-.3-.1-.6l-.7-.7a4.35,4.35,0,0,1-.6-.7l-1.2-1.2a5.73,5.73,0,0,1-1.1-1.1l-.9-.9c-.7-.6-1.3-1.2-2-1.8l-1.5-1.2a6.47,6.47,0,0,1-.9-.8l-.3-.3a3,3,0,0,1-.8-.8l-.2-.2c-.2-.1-.3-.3-.5-.4a.64.64,0,0,0-.6,0,1.79,1.79,0,0,0-.7.5,1.93,1.93,0,0,0-.3,1c0,.1,0,.1-.1.2a.37.37,0,0,0-.1.3,6.47,6.47,0,0,1-.4,1.3,3.55,3.55,0,0,1-.4.9c-.1.3-.3.7-.4,1a10.41,10.41,0,0,1-.5,1.2c0,.1-.1.2-.1.4a.22.22,0,0,0,.2.2c.3,0,.6.1.9.1a4.25,4.25,0,0,1,1.1.2c.3.1.5.2.8.3.1.1.3.2.3.4a1.85,1.85,0,0,1,.2.7c0,.4.1.8.1,1.1v3.3a1.7,1.7,0,0,0,0,1v.4a2.85,2.85,0,0,0,0,1.3c0,.1,0,.1.1.1h1.5a2.77,2.77,0,0,1,.9.1c.2,0,.4.1.6.1a2.67,2.67,0,0,1,1.4.7l.1.1a4.43,4.43,0,0,1,1.2,1.5c.1.2.2.5.3.7a2.2,2.2,0,0,1,.1.8v.5a1.42,1.42,0,0,1-.2.6,2.09,2.09,0,0,1-.4.6,1.34,1.34,0,0,1-.7.6c-.1.1-.2.1-.3.2v.1c.1.1.2.1.3.2a1.79,1.79,0,0,1,.7.5,4.43,4.43,0,0,1,1.2,1.5c.1.2.2.5.3.7a1.06,1.06,0,0,1,.1.8v.2a2.66,2.66,0,0,1-.3,1.2c0,.1-.1.2-.2.3a2.18,2.18,0,0,0-.4.5l-.4.4c-.2.1-.3.2-.5.3s-.3.2-.5.3h-.2c-.1,0-.3.1-.4.1l.1.1c.3.2.5.5.8.7l.1.1a3.13,3.13,0,0,1,.5,1c.1.2.1.4.2.6a1.7,1.7,0,0,1,.1.7v.5a.52.52,0,0,1-.2.4c0,.1,0,.1-.1.2a1.6,1.6,0,0,1-.7.9,1.38,1.38,0,0,0-.4.3,3.7,3.7,0,0,1-1.1.5c-.3.1-.7.1-1,.2s-.8.1-1.3.2H65.7c-.1,0-.2,0-.2.1a.6.6,0,0,0-.1.4,2.05,2.05,0,0,1,0,1.1v.5a1.49,1.49,0,0,1-.2.9.6.6,0,0,0-.1.4c0,.1-.1.2-.1.3a2.65,2.65,0,0,1-.5.6,1.38,1.38,0,0,1-.4.3,1.8,1.8,0,0,1-.9.4c-.2.1-.4,0-.6.1s-.4,0-.6,0h-.3c-.5,0-.9.1-1.4.1a6.05,6.05,0,0,1-1.9,0H58a6.6,6.6,0,0,0-1.4.1H51.4a10.87,10.87,0,0,0-1.8.1H46.4a2.85,2.85,0,0,1-1.3,0H45c-.1.1-.2,0-.4,0H26.7c-.2,0-.5-.1-.7,0H23.8a3.4,3.4,0,0,0-1-.1,1.85,1.85,0,0,1-.7-.2c-.1,0-.1,0-.2-.1s-.5-.1-.7-.1-.2,0-.2-.1c-.2-.1-.5-.1-.7-.3a2.84,2.84,0,0,1-1-.9,3.7,3.7,0,0,1-.5-1.1,4.25,4.25,0,0,1-.2-1.1v-.2a1.7,1.7,0,0,1,0-1v-1l-.1-.1h-.2c-.1,0-.2.1-.4.1H16.6c-.3,0-.5-.1-.8-.1a1.42,1.42,0,0,1-.6-.2c-.2-.1-.5-.1-.7-.2a9.13,9.13,0,0,1-1.3-.8,2.65,2.65,0,0,1-.5-.6.52.52,0,0,1-.2-.4,2.66,2.66,0,0,1-.3-1.2v-.4a3.38,3.38,0,0,1,.9-1.9l.1-.1c0-.1,0-.1.1-.1-.1-.1-.3-.1-.4-.2a2.09,2.09,0,0,1-.6-.4,2.76,2.76,0,0,1-1.2-1.6,2.35,2.35,0,0,1-.2-.8V54.7a3,3,0,0,1,.5-1.3c.1-.1.1-.2.2-.4a2.54,2.54,0,0,1,1.3-1.2c.1,0,.3-.1.4-.1C12.8,51.5,13,51.4,13.1,51.4ZM63.7,46c0-.3.1-.5.1-.7V39.5a1.69,1.69,0,0,0-.3-1l-.1-.1a1.14,1.14,0,0,0-.8-.3H61.3a4.85,4.85,0,0,0-1.7,0H59a1.1,1.1,0,0,1-.8,0H51.6a1.7,1.7,0,0,1-.7-.1H49.6c-.4-.1-.9.1-1.3,0-.2.1-.4,0-.6,0h-.5a10.45,10.45,0,0,1-2.5,0h-.2a6.7,6.7,0,0,1-2,0H34.8c-.2,0-.5.1-.7,0h-.8c-.2-.1-.4,0-.6,0h-9a5.7,5.7,0,0,0-1.3.1c-.4,0-.9.2-1.3.2-.2.1-.3.2-.5.2h-.1a.66.66,0,0,0-.5.4,3,3,0,0,0-.4,1,1.7,1.7,0,0,0-.1.7v5.6c0,.1,0,.1.1.2a4.35,4.35,0,0,0,.7.4,2.7,2.7,0,0,1,.8.7,5.55,5.55,0,0,1,.6.8,3,3,0,0,1,.4,1,2.77,2.77,0,0,1,.1.9,1.78,1.78,0,0,1-.4,1c-.1.1-.1.1-.1.2a2.7,2.7,0,0,1-.7.8c-.2.1-.5.3-.7.4,0,.1,0,.1-.1.1.1.1.3.2.4.3a2.34,2.34,0,0,1,.7.7h0a1.61,1.61,0,0,1,.4.7c0,.1,0,.1.1.2a2.39,2.39,0,0,1,.3.7,3.79,3.79,0,0,1,0,1.5.76.76,0,0,1-.2.5,2,2,0,0,1-.9.9c-.2.1-.3.2-.5.3s-.3.2-.5.2-.1.1-.2.1v.1c.1.2.1.3.3.4a2.63,2.63,0,0,1,.9,1.4c0,.1.1.3.1.4a.37.37,0,0,0,.1.3,2.2,2.2,0,0,1-.1.8,4.05,4.05,0,0,1-.5.9h0a1,1,0,0,1-.5.4l-.6.3c-.1,0-.1.1-.2.1v3.3a3.7,3.7,0,0,0,.5,1.1,1.38,1.38,0,0,0,.4.3,3,3,0,0,0,1,.4,2.35,2.35,0,0,1,.8.2c.1,0,.2.1.3.1s.4.1.6.1c.5.1,1,.1,1.5.2a4.48,4.48,0,0,0,1.1.1h3.8a.45.45,0,0,0,.5,0c.2,0,.5-.1.7,0h2.8c.4.1.7,0,1.1.1H36c.4,0,.8.1,1.2.1a8.08,8.08,0,0,1,1.5.1h5.4a4.87,4.87,0,0,0,1.2-.1h5.5a6.6,6.6,0,0,1,1.4-.1h3.2a9.7,9.7,0,0,0,1.7-.1h0c.6,0,1.1-.1,1.7-.1H59a10.87,10.87,0,0,0,1.8-.1c.3,0,.6-.1.9-.1a3,3,0,0,0,1-.4c.4-.2.5-.3.6-.7v-.1c.1-.4.2-.7.3-1.1a3.4,3.4,0,0,0,.1-1,2.77,2.77,0,0,0-.1-.9c-.1-.1-.2-.1-.4-.2a3.13,3.13,0,0,1-1-.5,2.54,2.54,0,0,1-1.1-1.2c-.1-.3-.3-.7-.4-1V61.2a2.14,2.14,0,0,1,.9-1.8c.1-.1.2-.2.3-.2s0-.1,0-.2a3,3,0,0,1-.8-.4c-.4-.1-.6-.4-.9-.7l-.1-.1a2.67,2.67,0,0,1-.7-1.4,3.67,3.67,0,0,1,.1-1.8c0-.2.1-.3.2-.5a3.81,3.81,0,0,1,.9-1.3,1.79,1.79,0,0,1,.7-.5c.3-.1.6-.3.9-.4.1,0,.1,0,.1-.1s.1-.1,0-.1,0-.1-.1-.1a2.34,2.34,0,0,1-.7-.7c.1-.1-.1-.3-.1-.6a2.35,2.35,0,0,0-.2-.8v-.2c.1-.4.1-.7.2-1.1.1-.2.1-.3.2-.5a1,1,0,0,1,.4-.5,1.21,1.21,0,0,1,.5-.5l.9-.6C63.6,46.1,63.6,46.1,63.7,46ZM73,81a.9.9,0,0,0,.1.5c0,.1.1.3,0,.4v.2l.3.9a1.27,1.27,0,0,1,.1.6,2.77,2.77,0,0,1-.3,1.3h0c-.1.1,0,.2,0,.3h.2c.2,0,.5.1.7,0h5.2a1.27,1.27,0,0,0,.6-.1c.2,0,.3-.1.4-.4v-.2c.1-.2,0-.4,0-.5-.2-.5-.4-1.1-.6-1.6a2.29,2.29,0,0,0-.7-1,2.65,2.65,0,0,0-.6-.5c-.1,0-.1,0-.1-.1a3,3,0,0,0-.7-.5c-.2-.1-.3-.2-.5-.3-.6-.3-1.2-.5-1.8-.8-.1,0-.1,0-.2-.1l-1.2-.3c-.2,0-.3-.1-.5-.1H71.5a4.87,4.87,0,0,1-1.2-.1H69.1c-.5-.1-1.1,0-1.6-.1H65.6c-.3,0-.7.1-1,.1H62.2c-.5,0-1-.1-1.5-.1H58.3a3.4,3.4,0,0,1-1,.1H55.8a4.85,4.85,0,0,1-1.7,0h-.3a6.6,6.6,0,0,0-1.4.1H50.5c-.2,0-.4.1-.6,0a1.7,1.7,0,0,1-1,0h-.8c-.2.1-.5,0-.7.1H45.8c-.3,0-.6.1-.9.1a1.88,1.88,0,0,0-.8.2.37.37,0,0,0-.3.1,4.81,4.81,0,0,0-1.6.8A3.87,3.87,0,0,0,41,81.9c0,.1-.1.3-.1.4v1.5c0,.1.1.3.1.4a.22.22,0,0,0,.2.2,2.65,2.65,0,0,0,.6.5c.1.1.2.1.3.2a5.7,5.7,0,0,1,1.3.1h2.2a2.77,2.77,0,0,1,.9.1h1.9c.2.1.5,0,.7,0H51a2.85,2.85,0,0,1,1.3,0h1.9c.2,0,.4.1.5,0h2.7c.6-.1,1.1,0,1.7-.1h1.1a6.75,6.75,0,0,1,1.4-.2c.1,0,.3-.1.3-.2a.78.78,0,0,1,.4-.4c.2-.1.2-.3.3-.5s.1-.2,0-.3-.1-.5-.2-.7,0-.1-.1-.2a3.13,3.13,0,0,0-1.1-.9,2.77,2.77,0,0,0-1.3-.3h-.6a2.05,2.05,0,0,1-1.1,0h-.6a.47.47,0,0,1-.5-.5c0-.1,0-.2.2-.2s.2,0,.2-.1a.6.6,0,0,1,.4-.1h4.5a2.2,2.2,0,0,1,.8.1.52.52,0,0,1,.4.2l.1.1c0,.1.1.2.1.3a.37.37,0,0,1-.1.3h-.2c-.1,0-.1.1-.1.2a.6.6,0,0,1-.1.4c-.1.1-.1.2-.2.3a9.36,9.36,0,0,1,.4,1.6,2.2,2.2,0,0,1-.1.8c0,.1-.1.1-.1.2v.1c.1.1.2.3.3.4l.1.1h6.1a4.1,4.1,0,0,0,1.1-.1c.3-.1.6-.2.7-.4a1,1,0,0,0,.5-.4c.2-.2.2-.4.3-.6a1.73,1.73,0,0,0-.1-1c0-.1-.1-.2-.2-.3l-.3-.3a.27.27,0,0,0-.3-.3c-.1-.1-.2-.1-.4-.2a1.85,1.85,0,0,0-.7-.2,5.85,5.85,0,0,1-1.3-.2H69a3.4,3.4,0,0,0-1,.1h-.6c-.1,0-.1,0-.2-.1s-.1-.1-.1-.2a.3.3,0,0,1,0-.4c0-.1.1-.1.2-.2h.4a2.05,2.05,0,0,1,1.1,0h3.5a2.77,2.77,0,0,1,.9.1c.1,0,.1,0,.1.1l.1.1c0,.1.2.2.1.3s-.2,0-.3,0C73.1,81,73.1,81,73,81Zm-51.2.8H20.2c-.1,0-.2-.1-.3-.2a.45.45,0,0,1,0-.5L20,81c.1,0,.2-.1.4-.1h1.4a3.4,3.4,0,0,1,1-.1h1.8a13.4,13.4,0,0,1,2-.1h.2c.1,0,.4.2.4.4v.2c0,.2-.1.4-.3.4s-.4.1-.6.1c-.5.1-1,.2-1.4.3a3.13,3.13,0,0,0-1,.5l-.1.1c-.1.1-.1.2-.2.3a3.33,3.33,0,0,0-.3.6.85.85,0,0,0,0,.7.91.91,0,0,0,.3.7c.1.1.1.1.2.1s.3.1.5.2.6.1.8.2h2.7c.2,0,.5-.1.7,0h9.4a.37.37,0,0,0,.3-.1l.5-.5a1.8,1.8,0,0,0,.6-.9.6.6,0,0,0,.1-.4,3.4,3.4,0,0,0,.1-1,2,2,0,0,0-.3-1.1c0-.1,0-.1-.1-.1-.2-.2-.3-.4-.5-.5a4.35,4.35,0,0,0-.7-.6c-.1-.1-.2-.2-.3-.2-.3-.2-.7-.3-1-.5a2.66,2.66,0,0,0-1.2-.3h-4a.9.9,0,0,1-.5-.1h-.2a2.2,2.2,0,0,1-.8.1,5.7,5.7,0,0,0-1.3.1c-.2,0-.4.1-.5-.1H26.6c-.1,0-.1,0-.2.1H21.5a2.05,2.05,0,0,0-1.1,0H10.9c-.3,0-.5.1-.8.1a2.92,2.92,0,0,0-.9.2,1.14,1.14,0,0,0-.8.3.37.37,0,0,1-.3.1c-.2.1-.5.2-.7.3a6.38,6.38,0,0,0-1.4.8c-.2.2-.4.3-.6.5a1,1,0,0,0-.5.4l-.4.4c0-.5-.1-.5-.1-.4a5.09,5.09,0,0,0-.7,1.7v.1a1.18,1.18,0,0,0-.1,1c0,.2.1.3.2.3.3.1.5.2.8.3H7.5a2.2,2.2,0,0,0,.8-.1h3.6v-.1c0-.1,0-.1-.1-.2a2.93,2.93,0,0,1-.4-1.6c0-.2.1-.5.1-.7a.6.6,0,0,0-.1-.4,1.23,1.23,0,0,1-.4-.8c0-.1,0-.1-.1-.1h-.3a.75.75,0,0,1-.5-.1l-.3-.3a.37.37,0,0,1,.2-.5h2.1c.5,0,1-.1,1.5-.1h.7a12.1,12.1,0,0,0,1.9-.1h.9c.3,0,.4.2.4.5,0,.1,0,.1-.1.1-.1.3-.1.3-.2.3-.3,0-.5.1-.8.1a2.77,2.77,0,0,0-.9.1l-1.3.3a3.58,3.58,0,0,0-1.1.4c-.1,0-.1.1-.2.1l-.2.2a1.61,1.61,0,0,0-.4.7c-.1.2,0,.3-.1.5a.84.84,0,0,0,.2.7c.1.2.2.3.3.5s.2.2.4.3h9c.1,0,.2-.1.1-.2s-.1-.3-.2-.4a.9.9,0,0,1-.1-.5v-.3a1.27,1.27,0,0,1,.1-.6.37.37,0,0,0-.1-.3A2.08,2.08,0,0,0,21.8,81.8ZM41.7,27.4h1.6c.5,0,.9-.2,1.4-.2h.1a.6.6,0,0,1,.4-.1c.1,0,.3-.1.4-.1a2.07,2.07,0,0,0,.6-.2,4.05,4.05,0,0,0,.9-.5,4.44,4.44,0,0,0,1.1-.8,4,4,0,0,0,1-1.2c.1-.2.2-.3.3-.5a3,3,0,0,0,.5-1.6V20.3a4.71,4.71,0,0,0-.6-1.5A10.7,10.7,0,0,0,48,17.2c-.1,0-.1-.1-.2-.1a3.59,3.59,0,0,0-1-.7c-.3-.2-.7-.4-1-.6a13.36,13.36,0,0,0-1.8-.7c-.1,0-.3-.1-.4-.1-.4-.1-.8-.1-1.2-.2H42c-.2,0-.3,0-.4-.1-.1-.4-.3-.4-.5-.4h-1c-.2,0-.3.1-.5.1h-.4c-.1,0-.2.1-.4.1-.4,0-.7.2-1.1.2a1.42,1.42,0,0,0-.6.2,6.12,6.12,0,0,0-1.2.5h-.1c-.1,0-.1,0-.1.1-.2.1-.3.2-.5.3s-.3.3-.5.4-.3.3-.5.4-.1,0-.1.1c-.2.2-.3.4-.5.5l-.1.1c-.1.2-.3.4-.4.6a1,1,0,0,1-.4.5c-.1.1-.2.2-.2.3s-.2.3-.3.5l-.1.1c-.1.3-.2.5-.3.8v.5c-.1.2,0,.5,0,.7,0,.4.1.8.1,1.1a2.67,2.67,0,0,0,.7,1.4l.4.4a2.34,2.34,0,0,0,.7.7c.1.1.2.1.2.2a2.09,2.09,0,0,0,.6.4,1.61,1.61,0,0,0,.7.4c.2.2.4.2.6.3l.6.3c.2.1.3.1.5.2s.1.1.2.1h.2a4.25,4.25,0,0,0,1.1.2.6.6,0,0,1,.4.1c.2,0,.3.1.5.1.4,0,.7.1,1,.1h.2A4.87,4.87,0,0,1,41.7,27.4ZM32.9,16.2c0-.1,0-.1-.1-.1l-.4-.4c-.1-.1-.1-.1-.2,0h0a.37.37,0,0,0-.3.1c-.2.2-.4.2-.5.4l-.1.1c-.2.1-.3.2-.5.3s-.3.3-.4.4-.1,0-.1.1h0c-.3.2-.5.5-.8.7l-.6.6c-.1.2-.3.3-.4.5a10.63,10.63,0,0,0-.9,1.1,2.18,2.18,0,0,0-.5.8c-.2.3-.3.7-.5,1a2,2,0,0,0-.3,1.1c0,.1-.1.2-.1.4a1.27,1.27,0,0,1-.1.6v.4c0,.1,0,.1.1.2s.1.4.1.6.1.4.1.6l.3.9c.1.1.1.3.2.4s.3.4.5.6a3,3,0,0,0,.8.8c.3.3.7.5,1,.8.1.1.3.2.4.3l.1.1.6.3a3.13,3.13,0,0,0,1,.5c.1,0,.1.1.2.1.4.1.7.4,1.1.5a5.78,5.78,0,0,0,1.4.5c.5.2,1.1.3,1.6.5.3.1.6.1.9.2a2,2,0,0,0,.7.1c.2,0,.5.1.7.1h.8a4.1,4.1,0,0,0,1.1.1h1.4a2.05,2.05,0,0,0,1.1,0,2.77,2.77,0,0,1,.9-.1h.4c.3,0,.6-.1.9-.1a.6.6,0,0,0,.4-.1c.2,0,.4-.1.6-.1s.5-.1.8-.1a4.51,4.51,0,0,0,1.1-.3h.1a5.64,5.64,0,0,0,1.2-.4c.1,0,.2-.1.3-.1a1.42,1.42,0,0,1,.6-.2c.2-.1.5-.2.7-.3s.2-.1.3-.1.1-.1.2-.1a3.63,3.63,0,0,0,.7-.3c.4-.3.9-.6,1.3-.9a2.7,2.7,0,0,1,.8-.7A7.52,7.52,0,0,0,55.1,27c0-.1,0-.1.1-.1.1-.2.2-.5.3-.7a2,2,0,0,0,.3-1.1V23.8a1.7,1.7,0,0,0-.1-.7l-.3-1.2c-.1-.3-.2-.5-.3-.8a7.46,7.46,0,0,0-.7-1.2c-.1-.2-.3-.3-.4-.5s-.1-.1-.1-.2a1,1,0,0,0-.4-.5l-.6-.6a3,3,0,0,0-.8-.8,4.74,4.74,0,0,1-1-1,1.38,1.38,0,0,0-.4-.3,2.65,2.65,0,0,1-.6-.5c0-.1-.1-.1-.1-.2h-.1c-.1.1-.1.2-.2.3a2.65,2.65,0,0,1-.5.6l-.1.1v.1c0,.1,0,.1.1.1l.4.4a5.24,5.24,0,0,1,1,1.1,2.51,2.51,0,0,1,.4.7l.3.6c.1.3.2.5.3.8a3.18,3.18,0,0,1,.2,1.4v1.1c-.1.4-.1.8-.2,1.2v.1c0,.1,0,.1.1.1.3,0,.6-.1.9-.1s.2-.1.2-.2v-.2c.1-.2.2-.3.4-.2s.1,0,.2.1a.67.67,0,0,1,.4.7v1.1c0,.1,0,.1-.1.2a.37.37,0,0,1-.3.1c-.1,0-.1-.1-.2-.1s-.2-.1-.3-.2-.1-.1-.2-.1h-.3c-.2.1-.5.1-.7.2l-1.1.3a4.74,4.74,0,0,1-1,1,1.79,1.79,0,0,1-.7.5.52.52,0,0,1-.4.2c-.1,0-.1,0-.1.1s-.2.1-.3.2a.37.37,0,0,1-.3.1,8.65,8.65,0,0,1-1.7.7c-.1,0-.1.1-.2.1-.3.1-.6.2-1,.3-.2,0-.4.1-.6.1-.4.1-.9.1-1.3.2H41a1.27,1.27,0,0,1-.6-.1,4.25,4.25,0,0,1-1.1-.2c-.2,0-.4-.1-.6-.1s-.3-.1-.5-.1-.1,0-.2-.1c-.3-.1-.5-.2-.8-.3a6.12,6.12,0,0,1-1.2-.5,2.51,2.51,0,0,1-.7-.4c-.1-.1-.2-.1-.3-.2-.6-.4-1.2-.9-1.7-1.3a.78.78,0,0,1-.4-.4c-.1-.1-.2-.3-.4-.4s-.1-.1-.2,0H32a2.92,2.92,0,0,0-.9-.2c-.2,0-.3,0-.4-.1-.5-.4-.6-.4-.8-.4a.22.22,0,0,0-.2.2c0,.1,0,.1-.1.2a.37.37,0,0,1-.3.1.52.52,0,0,1-.4-.2c-.2-.3-.4-.5-.3-.9v-.9a.22.22,0,0,1,.2-.2.6.6,0,0,1,.4.1c.2.1.3.1.4.3s.3.1.4.3a.37.37,0,0,0,.3.1h.6s.1,0,0-.1-.1-.1-.1-.2a4.19,4.19,0,0,1-.4-1.6V21a4.1,4.1,0,0,1,.1-1.1,6.39,6.39,0,0,1,.8-1.9c.1-.1.2-.3.3-.4.3-.4.6-.7.9-1.1C32.7,16.5,32.8,16.3,32.9,16.2ZM53.6,30.1c-.1.1-.1.3-.2.4a3.55,3.55,0,0,0-.4.9,2.19,2.19,0,0,1-.3.5c-.1.1-.1.1-.1.2-.2.3-.3.7-.5,1,0,.1-.1.2-.1.3a10.09,10.09,0,0,1-.7,1.5c-.1.3-.3.5-.4.8,0,.1-.1.2-.2.3s-.1.1-.1.2a.3.3,0,0,0,0,.4c.1.1.2.1.3.2h8.7a.22.22,0,0,0,.2-.2c.1-.4.3-.7.4-1.1.1-.1.1-.3.2-.4a10.84,10.84,0,0,1,.8-1.9c0-.1.1-.2.1-.3a5.78,5.78,0,0,0,.5-1.4l.3-.9a15.87,15.87,0,0,1,.7-2c0-.1.1-.1.1-.2a.44.44,0,0,0-.1-.5,5.73,5.73,0,0,0-1.1-1.1c-.8-.6-1.6-1.3-2.4-1.9a5.24,5.24,0,0,1-1.1-1c-.2-.2-.4-.3-.6-.5a1.38,1.38,0,0,0-.4-.3l-.1-.1c-.1,0-.2.1-.3.1s-.1.1-.2.2v1.4c0,.3-.1.6-.1,1a.9.9,0,0,1-.1.5,6.11,6.11,0,0,1-.7,1.4c-.1.1-.2.3-.3.4s-.1.2-.2.3a4.74,4.74,0,0,1-1,1,1.38,1.38,0,0,1-.4.3c-.1,0-.1,0-.1.1C53.9,29.9,53.7,30,53.6,30.1Zm-26,6.6h3c.4,0,.7-.1,1-.1.1,0,.1,0,.1-.1a1.27,1.27,0,0,0-.1-.6c-.1-.1-.1-.1-.1-.2s0-.1-.1-.2c-.2-.5-.5-1.2-.7-1.6a3.55,3.55,0,0,1-.4-.9,2.19,2.19,0,0,0-.3-.5c-.1-.1-.1-.2-.2-.3a2,2,0,0,0-.4-.8.22.22,0,0,0-.2-.2.52.52,0,0,1-.2-.4c-.1-.2-.1-.3-.2-.5a.77.77,0,0,0-.2-.3c-.3-.2-.5-.4-.8-.6s-.5-.4-.8-.6a10.63,10.63,0,0,1-.9-1.1,4.13,4.13,0,0,1-.7-1.1c0-.1-.1-.1-.1-.2a1.42,1.42,0,0,1-.2-.6c0-.2-.1-.4-.1-.6s-.1-.1-.1-.2-.2-.1-.3-.2h-.2a.52.52,0,0,0-.4.2c-.1.1-.2.3-.4.3s-.1,0-.1.1h0c-.4.4-.9.8-1.3,1.2a3,3,0,0,0-.8.8c-.4.5-.9.9-1.3,1.4-.1.1-.1.2-.2.2l-.2.2c-.1.1-.2.2-.1.4a.76.76,0,0,1,.1.4.37.37,0,0,0,.1.3.9.9,0,0,1,.1.5.9.9,0,0,0,.1.5,7.72,7.72,0,0,1,.2,1.5c.1.4.1.9.2,1.3.1.7.3,1.4.4,2.2.1.4.2.4.5.4h.8a9.7,9.7,0,0,0,1.7-.1H27A1.27,1.27,0,0,0,27.6,36.7Zm38,21.7h0a4.87,4.87,0,0,0,1.2-.1h.5a6.53,6.53,0,0,0,2-.5c.1,0,.2-.1.3-.1a2.59,2.59,0,0,0,1.1-.7,1.23,1.23,0,0,0,.5-1c.1-.8.1-.7-.3-1.5,0-.1-.1-.2-.2-.3s-.1-.1-.1-.2a4.44,4.44,0,0,0-1.1-.8c-.5-.2-1.1-.3-1.7-.5a3.4,3.4,0,0,0-1-.1H64.3a8.8,8.8,0,0,0-1.5.5,4.05,4.05,0,0,0-.9.5l-.4.4a2.47,2.47,0,0,0-.8,1.6V56a.75.75,0,0,1,.1.5c0,.1,0,.1.1.2s.1.1.1.2a1.34,1.34,0,0,0,.7.6c.1.1.3.1.4.2a.76.76,0,0,0,.5.2,1.27,1.27,0,0,0,.6.1,7.72,7.72,0,0,0,1.5.2h.1A2.35,2.35,0,0,0,65.6,58.4Zm-49-.2h.9a4,4,0,0,0,1.5-.3c.2-.1.4-.1.6-.2l.6-.3a1.56,1.56,0,0,0,.8-.6,1.87,1.87,0,0,0,.5-1.4c0-.2,0-.3-.1-.4a3.25,3.25,0,0,0-1-1.3,1.61,1.61,0,0,0-.7-.4c-.1,0-.2-.1-.3-.1a2.77,2.77,0,0,0-1.3-.3h-.3a5.85,5.85,0,0,1-1.3-.2,8.33,8.33,0,0,1-1.5-.4,1.7,1.7,0,0,0-1,0c-.3,0-.5.2-.8.3a2,2,0,0,0-.9.9,6.36,6.36,0,0,0-.6,1.8,1.23,1.23,0,0,0,.2,1,2.7,2.7,0,0,0,.7.8c.1.1.3.2.4.3s.3.1.4.2a1.69,1.69,0,0,0,1,.3,2.35,2.35,0,0,1,.8.2,4.1,4.1,0,0,0,1.1.1ZM44.1,13.7c.1,0,.3.1.4.1.5.2,1.1.4,1.6.6a6.38,6.38,0,0,1,1.4.8c.4.3.3.3.6-.1a2.65,2.65,0,0,1,.5-.6c.1-.2.3-.3.3-.5a7.37,7.37,0,0,0,.4-1.4.9.9,0,0,1,.1-.5v-.9a.37.37,0,0,0-.1-.3c0-.2-.1-.3-.2-.5a2.66,2.66,0,0,0-1-1.1l-.9-.6c-.1,0-.1-.1-.2-.1a3,3,0,0,0-1-.4,4.1,4.1,0,0,0-1.1-.1,1.27,1.27,0,0,0-.6.1c-.2.1-.5.2-.7.3s-.1,0-.2.1-.1,0-.2.1a2.41,2.41,0,0,0-.8.6,2.65,2.65,0,0,0-.5.6l-.1.1c-.1.2-.1.3-.2.5s0,.1.1.1.5.1.7,0a1.23,1.23,0,0,1,1,.2c.1,0,.1.1.2.1a2.09,2.09,0,0,1,.7,1.3v.1a1.49,1.49,0,0,1-.2.9.19.19,0,0,0,0,.3h0ZM17.6,51.8c.4,0,.9-.1,1.3-.1a2.35,2.35,0,0,0,.8-.2,1.46,1.46,0,0,0,.9-.6l.1-.1a1.85,1.85,0,0,0,.5-1.2.9.9,0,0,0-.1-.5,4.05,4.05,0,0,0-.5-.9l-.1-.1a2.34,2.34,0,0,0-.7-.7,5.31,5.31,0,0,0-1.7-.8c-.1,0-.1,0-.2-.1a4.25,4.25,0,0,0-1.1-.2,1.1,1.1,0,0,0-.8,0l-.9.3c-.1,0-.2.1-.3.2a3,3,0,0,0-1.2,1.7.37.37,0,0,1-.1.3,1.1,1.1,0,0,0,0,.8.9.9,0,0,0,.1.5,2.54,2.54,0,0,0,1.1,1.2c.2.1.3.1.5.2a9.36,9.36,0,0,0,1.6.4A2.2,2.2,0,0,1,17.6,51.8ZM66,51.6h.9a.37.37,0,0,0,.3-.1c.2,0,.4-.1.6-.1l1-.3a3.13,3.13,0,0,0,1.1-.9,2,2,0,0,0,.3-1.1,5.64,5.64,0,0,0-.4-1.2l-.3-.3c-.2-.1-.3-.3-.5-.4a1.23,1.23,0,0,0-.8-.4c-.1,0-.2-.1-.3-.1s-.3-.1-.4-.1a4.78,4.78,0,0,0-2.9.3l-.6.3a4.44,4.44,0,0,0-1.1.8,1,1,0,0,0-.4.5c-.1.2-.2.3-.2.5s-.1.3-.1.5a1.13,1.13,0,0,0,.3,1.1,10.93,10.93,0,0,0,1.5.8c.3.1.6.1.9.2ZM33.7,15.5c.1-.1.2-.1.3-.2a2.18,2.18,0,0,1,.8-.5,7.74,7.74,0,0,1,1.6-.7l.9-.3c.1-.1.1-.1,0-.2h0a.55.55,0,0,1-.3-.5c0-.1-.1-.2-.1-.3a1.1,1.1,0,0,1,0-.8,2.51,2.51,0,0,1,.4-.7l.3-.3a1.85,1.85,0,0,1,.7-.2,1.8,1.8,0,0,1,1,.2c.1,0,.1,0,.2-.1a.37.37,0,0,0,.1-.3,3,3,0,0,0-.4-1c-.2-.2-.3-.4-.5-.6a1.38,1.38,0,0,0-.4-.3,1.61,1.61,0,0,1-.7-.4h-.1c-.1,0-.3-.1-.4-.1h-1a.9.9,0,0,0-.5.1,1.85,1.85,0,0,0-.7.2c-.1.1-.3.1-.4.2A4.36,4.36,0,0,0,33.1,10c-.2.2-.3.5-.5.7l-.3.6a2.77,2.77,0,0,0-.1.9v.5a8.8,8.8,0,0,0,.5,1.5c0,.1,0,.1.1.2A10.63,10.63,0,0,0,33.7,15.5ZM65.8,64.1h.7c.4,0,.7-.1,1.1-.1.1,0,.2,0,.2-.1a1.42,1.42,0,0,1,.6-.2c.2-.1.3-.1.5-.2a5.5,5.5,0,0,0,.9-.7.52.52,0,0,0,.2-.4c0-.1.1-.2.1-.3s.1-.2.1-.4A1.85,1.85,0,0,0,70,61c-.1-.4-.4-.6-.6-.9a4.05,4.05,0,0,0-.9-.5c-.1,0-.1,0-.2-.1l-1.7-.3H64.7a2,2,0,0,0-1.1.3c-.1,0-.1,0-.1.1a4.74,4.74,0,0,0-1,1c-.1.1-.1.1-.1.2a1.06,1.06,0,0,0-.1.8,3.55,3.55,0,0,0,.2,1,1,1,0,0,0,.5.6c.3.2.7.4,1,.6a1.85,1.85,0,0,0,.7.2H65a.9.9,0,0,1,.5.1ZM16.3,59.2H14.5c-.2.1-.5.2-.7.3s-.3.1-.4.3a1.38,1.38,0,0,1-.3.4,1.42,1.42,0,0,0-.2.6V61a1.27,1.27,0,0,0-.1.6v.1a1.56,1.56,0,0,0,.6.8,3.13,3.13,0,0,0,1,.5c.5.1,1,.2,1.6.3a5.46,5.46,0,0,0,1.8-.1h0c.2-.1.5-.1.7-.2s.3-.2.5-.3l.4-.2c.2-.1.3-.2.5-.3l.3-.3c.1-.1.1-.2.2-.4a1.1,1.1,0,0,0,0-.8,2.63,2.63,0,0,0-1.6-1.5,4.25,4.25,0,0,0-1.1-.2h-.3A2,2,0,0,1,16.3,59.2ZM34.9,36.6h1a.91.91,0,0,0,.7-.3c.1-.1.1-.2.2-.3s.1-.2.2-.3.1-.1.1-.2a.52.52,0,0,1,.2-.4c.2-.3.3-.6.5-.9.1-.1.1-.2.2-.3v-.1c0-.2-.1-.3-.3-.4a.9.9,0,0,1-.5-.1c-.2,0-.3-.1-.5-.1a4.25,4.25,0,0,1-1.1-.2c-.1,0-.2-.1-.3-.1a1.85,1.85,0,0,1-.7-.2c-.1,0-.1,0-.2-.1a.37.37,0,0,0-.3-.1h-.4c-.2,0-.2-.2-.4-.2a2.12,2.12,0,0,1-.7-.3c-.2-.1-.3-.1-.5-.2s-.3,0-.4.1c-.3.4-.3.2-.1.7.1.1.1.3.2.4s.2.3.3.5a3,3,0,0,1,.4,1v.1c.2.1.2.4.3.5s.2.3.3.5l.3.6c0,.1.1.1.1.2s.1.1.2.1H34A2.77,2.77,0,0,0,34.9,36.6Zm12.8.1h0a4.1,4.1,0,0,0,1.1-.1.52.52,0,0,0,.4-.2c.1-.2.3-.4.4-.6a8,8,0,0,1,.8-1.6c.2-.4.4-.7.6-1.1.1-.2.2-.3.2-.5s.1-.2.1-.3v-.2l-.1-.1a.37.37,0,0,0-.3-.1c-.2.1-.3.1-.5.2s-.2.1-.3.1a.37.37,0,0,0-.3.1c-.2.1-.3.1-.5.2a4.18,4.18,0,0,0-1,.4c-.2.1-.4.1-.6.2l-1.1.3c-.2-.2-.5-.1-.8-.1s-.3.1-.3.2l-.3.3c-.1.1-.1.1,0,.2a.52.52,0,0,1,.2.4,1.61,1.61,0,0,0,.4.7c.1.2.2.3.3.5l.3.6c.1.1.1.2.2.3s0,.1.1.1l.1.1ZM33.8,7.5c-.1-.1-.2-.3-.3-.4L32.4,5.7c-.1-.2-.3-.3-.4-.5a2.65,2.65,0,0,0-.5-.6,4.35,4.35,0,0,1-.6-.7c-.2-.3-.5-.5-.7-.8h-.1l-.2.2a.44.44,0,0,0-.1.5V5.1A6.08,6.08,0,0,0,29.7,7v.8c.1.2,0,.5,0,.7a.85.85,0,0,0,0,.7v2.1c0,.2-.1.4-.1.6v.2a1.1,1.1,0,0,1,0,.8v.5a1.7,1.7,0,0,1,.1.7.75.75,0,0,1-.1.5v.2c0,.1.1.2.1.3v1.1l.1.1c.2-.2.5-.3.7-.5s.2-.1.3-.2.1-.1.1-.2a1.27,1.27,0,0,1-.1-.6v-.4c0-.2-.1-.3-.1-.4v-.1c-.1-.6,0-1.1-.1-1.7V10.7a1.1,1.1,0,0,1,0-.8V6.3c0-.1,0-.1.1-.1s.5-.1.6.1.4.3.5.6l.1.1a1.38,1.38,0,0,0,.4.3c.3.2.5.5.8.7h.2c.2-.1.3-.2.5-.3-.1-.1-.1-.1,0-.2Zm13.7.3c.1.1.1.1.2.1s.3.2.5.3h.1l.2-.2c.3-.4.7-.9,1-1.3a9,9,0,0,1,.9-1c0-.1.1-.1.2-.2s.1-.1.2-.1.1,0,.2.1a.22.22,0,0,1,.2.2v.4c0,.4-.1.8-.1,1.2h0c-.1.6-.1,1.2-.2,1.8s-.1,1.2-.2,1.8c-.1.4-.1.9-.2,1.3v.1c0,.3-.1.6-.1,1a2.77,2.77,0,0,0-.1.9c0,.1,0,.2.1.2s.2.2.3.2a1.38,1.38,0,0,0,.4.3h.1c0-.1.1-.1.1-.2a12.25,12.25,0,0,0,.2-1.9v-.2c.1-.3,0-.5.1-.8,0-.5.1-1,.1-1.6,0-.4.1-.8.1-1.2a.75.75,0,0,1,.1-.5c0-.3.1-.6.1-.9a7.57,7.57,0,0,1,.1-1.5V5.8a1.27,1.27,0,0,0,.1-.6c0-.2.1-.5.1-.7V4.1c.1-.5.2-1,.3-1.4V2.5c0-.1-.1-.1-.1-.2s-.2-.1-.2-.1c-.2.1-.3.3-.4.4-.4.4-.7.8-1.1,1.2-.2.2-.3.5-.5.7a10.59,10.59,0,0,0-1,1.2l-.1.1-.6.6a3.92,3.92,0,0,0-.8,1C47.5,7.6,47.5,7.7,47.5,7.8ZM38.4,36.7h2.5a2.85,2.85,0,0,1,1.3,0h2.2c.3,0,.3-.1.3-.3v-.5a1.61,1.61,0,0,0-.3-.9c-.2-.3-.3-.5-.5-.8a.22.22,0,0,0-.2-.2c-.2-.1-.3-.2-.5-.3a.6.6,0,0,0-.4-.1H41.6c-.3,0-.6.1-.9.1h-.4a1.08,1.08,0,0,0-.8.2c-.1.1-.3.2-.4.3a1.38,1.38,0,0,0-.3.4c-.1.3-.3.5-.4.8A2.85,2.85,0,0,0,38.4,36.7Zm2.9-24.2a.71.71,0,0,0,.3.6,1.73,1.73,0,0,0,1,.1.76.76,0,0,0,.6-.8c0-.2-.1-.3-.1-.5s-.1-.2-.3-.2a2.2,2.2,0,0,0-.8-.1.68.68,0,0,0-.6.4A.9.9,0,0,0,41.3,12.5Zm-2.6.7a.75.75,0,0,0,.5-.1c.3-.2.4-.3.3-.7v-.1a1.06,1.06,0,0,0-.7-.6h-.2a.84.84,0,0,0-.7.4.6.6,0,0,0-.1.4.37.37,0,0,0,.1.3.55.55,0,0,0,.5.3A.37.37,0,0,0,38.7,13.2Zm1.9-3.4c.1-.1.1-.2.2-.3a2.65,2.65,0,0,1,.5-.6l.4-.4.1-.1s.1-.1,0-.1H39.5v.1a4.44,4.44,0,0,1,.8,1.1C40.4,9.6,40.4,9.7,40.6,9.8ZM39.5,79h0c-.1-.1-.2-.2-.3-.1V79Zm.9,2.5h0c0,.1,0,.2.1.2h0C40.5,81.6,40.5,81.6,40.4,81.5Z"/><path class="cls-5" d="M68.5,6.9a.52.52,0,0,0,.4-.2,3.14,3.14,0,0,1,1.6-.6,2.77,2.77,0,0,1,.9-.1,2.92,2.92,0,0,1,.9.2,3.27,3.27,0,0,1,1.5,1.1c.1.1.1.1.1.2a.52.52,0,0,1,.2.4,1.14,1.14,0,0,1,.3.8v.4c0,.2-.1.4-.1.7a.52.52,0,0,1-.2.4,8.64,8.64,0,0,1-1.3,1.4l-.6.6a2.7,2.7,0,0,1-.8.7l-1.8,1.5a1,1,0,0,0-.5.4l-.4.4a.37.37,0,0,1-.3.1c-.1,0-.1-.1-.2-.1a.6.6,0,0,1-.4-.1l-.6-.6a4.35,4.35,0,0,0-.6-.7,4.35,4.35,0,0,1-.6-.7,10.1,10.1,0,0,1-1.3-1.6l-.9-1.2a2,2,0,0,1-.4-.8c0-.1-.1-.1-.1-.2-.1-.3-.1-.5-.2-.8a2.2,2.2,0,0,1,.2-1.4,2.07,2.07,0,0,1,.6-1c.2-.2.4-.3.6-.5s.1-.1.2-.1.1,0,.2-.1.3-.1.4-.2c.3,0,.7-.1,1-.1a2.35,2.35,0,0,1,.8.2c.1,0,.1.1.2.1a.55.55,0,0,1,.5.3l.4.4.4.4C68.3,6.7,68.4,6.8,68.5,6.9Zm.3,1.6a.6.6,0,0,0-.4.1h-.1c-.1-.1-.3-.1-.3-.3s-.1-.2-.1-.3c-.1-.3-.3-.6-.4-.9A1.76,1.76,0,0,0,66,6.3h-.5l-.6.3-.3.3c-.4.6-.4.4-.5,1.2,0,.2-.1.4,0,.6a2.84,2.84,0,0,0,.4,1.2l.9,1.2a10.63,10.63,0,0,0,.9,1.1l.3.3a6.81,6.81,0,0,1,1.2,1.2h0c.1.1.1.1.2,0,.8-.7,1.7-1.4,2.5-2.1l.2-.2a2.84,2.84,0,0,1,1-.9A8.64,8.64,0,0,0,73,9.1V9a.75.75,0,0,0,.1-.8,1.6,1.6,0,0,0-.7-.9A2.66,2.66,0,0,0,71.2,7a.9.9,0,0,0-.5.1c-.1.2-.3.2-.5.3s-.3.1-.4.2-.5.4-.7.6Z"/><path class="cls-6" d="M13.1,51.4c-.1,0-.3.1-.4.1s-.3.1-.4.1A2,2,0,0,0,11,52.8c-.1.1-.1.2-.2.4a6.94,6.94,0,0,0-.5,1.3,2.05,2.05,0,0,0,0,1.1,2.35,2.35,0,0,0,.2.8A4.81,4.81,0,0,0,11.7,58c.2.1.4.3.6.4l.4.2c0,.1,0,.1-.1.1l-.1.1a3.38,3.38,0,0,0-.9,1.9v.4a2.66,2.66,0,0,0,.3,1.2c.1.1.1.3.2.4a2.65,2.65,0,0,0,.5.6,5.67,5.67,0,0,0,1.3.8c.2.1.5.1.7.2s.4.1.6.2a2,2,0,0,0,.8.1h1.3a.6.6,0,0,0,.4-.1h.2c.1,0,.1,0,.1.1v1a1.7,1.7,0,0,0,0,1v.2a4.25,4.25,0,0,0,.2,1.1,3.7,3.7,0,0,0,.5,1.1,2.84,2.84,0,0,0,1,.9c.2.2.4.2.7.3.1,0,.1,0,.2.1s.5.1.7.1.2,0,.2.1c.2.1.5.1.7.2a3.08,3.08,0,0,0,1,.1h1.4a1.1,1.1,0,0,0,.8,0H44.5a2.85,2.85,0,0,0,1.3,0H49a10.87,10.87,0,0,1,1.8-.1h3.3a2.05,2.05,0,0,1,1.1,0H56a6.6,6.6,0,0,0,1.4-.1h2.3c.5,0,.9-.1,1.4-.1h.3c.2,0,.4.1.6,0a1.27,1.27,0,0,1,.6-.1,3.55,3.55,0,0,0,.9-.4,1.38,1.38,0,0,1,.4-.3,2.65,2.65,0,0,0,.5-.6.37.37,0,0,0,.1-.3c0-.1.1-.3.1-.4a2.92,2.92,0,0,0,.2-.9V67a2.05,2.05,0,0,0,0-1.1.6.6,0,0,1,.1-.4c.4-.2.5-.2.6-.2h1.1a5.85,5.85,0,0,0,1.3-.2c.3-.1.7-.1,1-.2a3.7,3.7,0,0,0,1.1-.5c.1-.1.3-.2.4-.3a1.6,1.6,0,0,0,.7-.9c0-.1,0-.1.1-.2s.1-.3.2-.4v-.5c0-.2-.1-.5-.1-.7a1.42,1.42,0,0,0-.2-.6,3.13,3.13,0,0,0-.5-1l-.1-.1c-.3-.2-.5-.5-.8-.7l-.1-.1c.1,0,.3-.1.4-.1h.2c.2,0,.3-.2.5-.3s.3-.2.5-.3.3-.3.4-.4a2.18,2.18,0,0,0,.4-.5.77.77,0,0,1,.2-.3,2.66,2.66,0,0,0,.3-1.2v-.2a2.2,2.2,0,0,0-.1-.8c-.1-.2-.2-.5-.3-.7a4.43,4.43,0,0,0-1.2-1.5,1.79,1.79,0,0,0-.7-.5c-.1-.1-.2-.1-.3-.2v-.1c.1-.1.2-.2.3-.2.3-.1.5-.4.7-.6a2.09,2.09,0,0,1,.4-.6,1.42,1.42,0,0,0,.2-.6v-.5c0-.3-.1-.5-.1-.8a1.49,1.49,0,0,0-.3-.7,4.43,4.43,0,0,0-1.2-1.5l-.1-.1a2.67,2.67,0,0,0-1.4-.7,1.27,1.27,0,0,0-.6-.1c-.3,0-.6-.1-.9-.1H65.4c-.1,0-.1,0-.1-.1a2.85,2.85,0,0,1,0-1.3v-.4a1.7,1.7,0,0,1,0-1V39.2a4.1,4.1,0,0,0-.1-1.1,1.85,1.85,0,0,0-.2-.7,1.38,1.38,0,0,0-.3-.4,1.14,1.14,0,0,0-.8-.3,4.25,4.25,0,0,0-1.1-.2c-.3,0-.6-.1-.9-.1a.22.22,0,0,1-.2-.2.6.6,0,0,1,.1-.4c.2-.4.3-.8.5-1.2a6.89,6.89,0,0,0,.4-1c.1-.3.3-.6.4-.9a10.38,10.38,0,0,0,.4-1.3c0-.1.1-.2.1-.3s.1-.1.1-.2c.1-.3.2-.7.3-1a1.79,1.79,0,0,1,.7-.5c.1,0,.2-.1.3-.1a.37.37,0,0,1,.3.1,1,1,0,0,0,.5.4l.2.2a3,3,0,0,0,.8.8l.3.3a6.47,6.47,0,0,0,.9.8l1.5,1.2c.6.6,1.3,1.2,2,1.8l.9.9a5.73,5.73,0,0,0,1.1,1.1l1.2,1.2a4.35,4.35,0,0,1,.6.7l.7.7c.3.3.2.3.1.6h0a2.54,2.54,0,0,0-.2,1.2c0,.1,0,.1.1.2a.52.52,0,0,1,.2.4c.1,0,.1,0,.1.1s.2.1.3.2H77c.2,0,.3-.1.5-.1s.1-.1.2-.1a.66.66,0,0,1,.6-.1c.1,0,.2.1.3.1l.1.1c-.1.2,0,.3,0,.5s.3.5.4.8.4.5.6.8c.1.1.2.3.3.4.2.3.5.6.7.9a.52.52,0,0,1,.2.4c.2.4.4.8.6,1.3.1.2.1.4.2.6a.52.52,0,0,1,.2.4c0,.1,0,.1.1.1a1.42,1.42,0,0,1,.2.6,14.16,14.16,0,0,1,.4,2,24.37,24.37,0,0,1,.1,2.7,5,5,0,0,1-.2,1.2c-.1.4-.2.9-.3,1.3a4.18,4.18,0,0,1-.4,1l-1.2,1.8a3,3,0,0,1-.8.8c-.3.3-.6.5-.8.7a3.81,3.81,0,0,1-1.3.9c-.2.2-.5.3-.7.5a9.91,9.91,0,0,1-1.7,1.1.71.71,0,0,0-.3.6v.2c.1.3.1.7.2,1V65a20.9,20.9,0,0,1,.1,2.5v1.7a8.6,8.6,0,0,1-.1,1.6v.1a5.85,5.85,0,0,1-.2,1.3c-.1.5-.1,1-.2,1.5a4.25,4.25,0,0,1-.2,1.1c-.1.3-.1.6-.2.9a4.25,4.25,0,0,0-.2,1.1c0,.2-.1.3-.1.5a.22.22,0,0,1-.2.2c-.2,0-.4.1-.6.1a6.6,6.6,0,0,0-1.4.1h-.4a2.05,2.05,0,0,0-1.1,0H65.7a2.05,2.05,0,0,0-1.1,0H62.9a1.1,1.1,0,0,1-.8,0,2.2,2.2,0,0,1-.8-.1H54.2a2.05,2.05,0,0,0-1.1,0h-.6a1.1,1.1,0,0,0-.8,0H43.6a9.7,9.7,0,0,0-1.7.1H40.5c-.3-.1-.7,0-1-.1H36.4a1.1,1.1,0,0,0-.8,0h-.8a1.7,1.7,0,0,0-1,0h-1c-.6,0-1.2-.1-1.8-.1a4.87,4.87,0,0,0-1.2.1h-.4c-.2,0-.5-.1-.7,0H20.3a1.7,1.7,0,0,1-1,0H16a1.39,1.39,0,0,0-.9,0h-1c-.2,0-.4-.1-.6,0H12.4a1.7,1.7,0,0,1-1,0,.37.37,0,0,1-.3-.1.78.78,0,0,1-.4-.4l-.3-.9a10.46,10.46,0,0,1-.4-1.7,5,5,0,0,0-.2-1.2c0-.4-.1-.8-.1-1.2V69a7.57,7.57,0,0,0,.1-1.5c0-.4.1-.8.1-1.2a2.39,2.39,0,0,1,.2-.9v-.1a4.25,4.25,0,0,1,.2-1.1c.1-.3.1-.5.2-.8a.37.37,0,0,0-.1-.3c-.1-.1-.1-.2-.2-.2a1,1,0,0,0-.5-.4c-.3-.2-.5-.4-.8-.6a5,5,0,0,1-.8-.7L7.9,61l-.3-.3c-.3-.3-.6-.5-.9-.8a2.34,2.34,0,0,1-.7-.7l-.1-.1a12.73,12.73,0,0,1-1.3-1.9,2,2,0,0,1-.4-.8,4.18,4.18,0,0,1-.4-1,6.47,6.47,0,0,1-.4-1.3c0-.2-.1-.3-.1-.5a2.77,2.77,0,0,0,.1-.9V51.3a2.77,2.77,0,0,1,.1-.9.6.6,0,0,1,.1-.4v-.2c.1-.4.2-.7.3-1.1s.2-.7.3-1.1l.6-1.5A3.7,3.7,0,0,0,5.3,45c.2-.2.2-.4.4-.5l.1-.1c.3-.6.7-1.1,1-1.6l.6-.9c.1-.1.1-.2.2-.2.2-.2.4-.5.7-.6a.37.37,0,0,0,.1-.3c0-.1-.1-.2-.1-.3a.37.37,0,0,0-.1-.3v-.3c0-.1.2-.2.3-.3h.1c.2.1.5.1.8.2a.52.52,0,0,1,.4.2c.1.1.2.1.4.2s.3,0,.4-.1.1-.2.1-.4v-.2c0-.3-.1-.5-.1-.8a.37.37,0,0,0-.1-.3c-.1-.2-.1-.2.1-.4l.1-.1a3.92,3.92,0,0,0,1-.8,1.38,1.38,0,0,1,.4-.3,4.35,4.35,0,0,0,.7-.6c.1,0,.1-.1.2-.2a10.1,10.1,0,0,1,1.6-1.3h0c.4-.4,1-.7,1.5-1.1l.2-.2c.3-.3.7-.6,1-.9a4.17,4.17,0,0,1,.8-.6.52.52,0,0,1,.4-.2s.2,0,.2.1v.3a11,11,0,0,1,.2,1.8c0,.3.1.5.1.8.1.6.3,1.2.4,1.8,0,.2.1.3.1.5v.3a.37.37,0,0,1-.1.3c-.1.2-.3.3-.4.5a2.27,2.27,0,0,0-.6,1.6,1.27,1.27,0,0,1-.1.6,2.77,2.77,0,0,0-.1.9v1.1a8.85,8.85,0,0,0,0,2.3v.7a.32.32,0,0,1-.3.3h-.2a.9.9,0,0,0-.5-.1.37.37,0,0,1-.3-.1.64.64,0,0,0-.6,0,4.1,4.1,0,0,1-1.1.1A3.22,3.22,0,0,0,13.1,47a3.7,3.7,0,0,0-.5,1.1,4.25,4.25,0,0,0-.2,1.1,2.93,2.93,0,0,0,.4,1.6Z"/><path class="cls-1" d="M63.7,46c-.1,0-.1.1-.2.1l-.9.6a1.21,1.21,0,0,0-.5.5,1,1,0,0,1-.4.5.76.76,0,0,0-.2.5,4.25,4.25,0,0,0-.2,1.1v.2c.1.3.1.5.2.8a1.61,1.61,0,0,0,.4.7,2.34,2.34,0,0,0,.7.7l.1.1v.1c-.1,0-.1,0-.1.1-.3.1-.6.3-.9.4a1.79,1.79,0,0,0-.7.5,3.81,3.81,0,0,0-.9,1.3c-.1.2-.1.3-.2.5a3.67,3.67,0,0,0-.1,1.8,2.67,2.67,0,0,0,.7,1.4l.1.1a1.6,1.6,0,0,0,.9.7,2,2,0,0,1,.8.4c.1,0,.1.1,0,.2s-.2.2-.3.2a2.43,2.43,0,0,0-.9,1.8v1.1a4.18,4.18,0,0,0,.4,1,2.54,2.54,0,0,0,1.1,1.2,3.13,3.13,0,0,0,1,.5c.1,0,.2.1.4.2.1.3,0,.6.1.9s-.1.6-.1,1a2,2,0,0,1-.3,1.1v.1a1.34,1.34,0,0,1-.6.7,4.18,4.18,0,0,1-1,.4,2.77,2.77,0,0,1-.9.1,10.87,10.87,0,0,1-1.8.1h-.2c-.6,0-1.1.1-1.7.1h0a9.7,9.7,0,0,1-1.7.1h-1a2.85,2.85,0,0,1-1.3,0h-.9a6.6,6.6,0,0,0-1.4.1H45.7a4.87,4.87,0,0,0-1.2.1H39.1a7.57,7.57,0,0,1-1.5-.1,4.87,4.87,0,0,1-1.2-.1H34.8a4.1,4.1,0,0,1-1.1-.1H25.9c-.4,0-.7-.1-1.1-.1a7.72,7.72,0,0,1-1.5-.2c-.2,0-.4-.1-.6-.1a.37.37,0,0,1-.3-.1,2.35,2.35,0,0,0-.8-.2,3,3,0,0,1-1-.4c-.1-.1-.3-.2-.4-.3a2.22,2.22,0,0,1-.5-1.1V64c.1,0,.1-.1.2-.1l.6-.3a1,1,0,0,0,.5-.4h0a1.05,1.05,0,0,0,.5-.9,2.2,2.2,0,0,0,.1-.8.37.37,0,0,0-.1-.3c0-.1-.1-.3-.1-.4a4.19,4.19,0,0,0-.9-1.4c-.1-.1-.2-.3-.3-.4v-.1c.1-.1.1-.1.2-.1s.3-.2.5-.2.3-.2.5-.3l.9-.9c.1-.2.2-.3.2-.5a3.79,3.79,0,0,0,0-1.5c-.1-.2-.1-.5-.3-.7,0-.1,0-.1-.1-.2a1.61,1.61,0,0,0-.4-.7h0a2.34,2.34,0,0,0-.7-.7c-.1-.1-.3-.2-.4-.3s0-.1.1-.1.5-.3.7-.4a2.7,2.7,0,0,0,.7-.8c0-.1,0-.1.1-.2a3,3,0,0,0,.4-1,1.41,1.41,0,0,0-.1-.9,3,3,0,0,0-.4-1,5.55,5.55,0,0,0-.6-.8,2.7,2.7,0,0,0-.8-.7c-.2-.1-.5-.3-.7-.4s-.1-.1-.1-.2V40.7A1.7,1.7,0,0,1,20,40a4.18,4.18,0,0,1,.4-1,1,1,0,0,1,.5-.4H21c.2-.1.3-.2.5-.2.4,0,.9-.2,1.3-.2s.9-.1,1.3-.1h24c.2,0,.4.1.6,0,.4.1.9-.1,1.3,0h.2a1.39,1.39,0,0,0,.9,0h.2c.2,0,.5.1.7.1H63a1.14,1.14,0,0,1,.8.3l.1.1a1.69,1.69,0,0,1,.3,1v5.8C63.8,45.5,63.8,45.8,63.7,46ZM28.5,50.9c.1.1.1.2.2.4s.2.2.3.2.4-.1.4-.3v-.7c0-.1,0-.1-.1-.2s-.1-.2-.2-.3l-.2-.2c-.2-.1-.3-.2-.5-.2h-.1c-.1,0-.2.1-.3.1a4.74,4.74,0,0,0-1,1c-.2.3-.4.7-.6,1a3,3,0,0,0-.4,1,2.77,2.77,0,0,0-.1.9v.5c0,.1.1.2.1.4a2.18,2.18,0,0,0,.5.8c.1.1.2.2.3.2a1.69,1.69,0,0,1,.5.2.6.6,0,0,0,.4.1h.5a2.35,2.35,0,0,0,.8-.2c.2-.1.4-.3.6-.4h.1c.1.1.1.2.2.3s.1.1.2.1a.45.45,0,0,0,.6-.3h0a.6.6,0,0,0,.1-.4.37.37,0,0,1,.1-.3l.1-.1c.3-.1.5-.3.8-.3s.4-.2.5.3v.1c.1.3.2.5.3.8,0,.1.1.1.2.2a.3.3,0,0,0,.4,0c.1,0,.1,0,.1-.1a.37.37,0,0,0,.1-.3,2.77,2.77,0,0,0-.1-.9c0-.1-.1-.3-.1-.4s0-.1.1-.2.3-.1.4-.2.1,0,.1.1v.1c0,.5-.1,1-.1,1.5v.2a.52.52,0,0,0,.2.4.6.6,0,0,0,.4.1c.1,0,.3-.1.3-.2a.9.9,0,0,0,.1-.5c0-.2.1-.5.1-.7h.1a1,1,0,0,0,.5.4,1.49,1.49,0,0,0,.9.4H37a1.62,1.62,0,0,0,.9-.5l.2-.2v-.4c0-.1,0-.1-.1-.1s-.2-.1-.4-.1-.2.1-.4.1a2.44,2.44,0,0,1-1.2,0c-.1,0-.1,0-.1-.1v-.1c.1-.1.3-.2.4-.3a6.47,6.47,0,0,0,.8-.9,1.69,1.69,0,0,0,.3-1,1.78,1.78,0,0,0-.4-1l-.1-.1c-.1-.1-.2-.1-.3-.2s-.4-.1-.6-.1a4.8,4.8,0,0,0-1.7.5c0,.1-.1.2-.1.3v.4c0,.3-.1.6-.1.9-.1.5,0,.5-.6.4a.6.6,0,0,1-.4-.1.22.22,0,0,1-.2-.2c-.1-.3-.1-.5-.2-.8s-.1-.6-.2-.9c0-.1-.1-.2-.1-.3v-.3c-.1-.2-.2-.3-.4-.2h-.2a.22.22,0,0,0-.2.2c-.1.2-.2.5-.3.7a3.7,3.7,0,0,0-.5,1.1c-.1.2-.1.4-.3.6a.37.37,0,0,0-.1.3c0,.1-.1.2-.1.3l-.1.1h-.1a.22.22,0,0,0-.2.2V54c-.1.1-.2.2-.3.2s-.2.1-.3.1l-.6.3a2.77,2.77,0,0,1-.9.1.55.55,0,0,1-.5-.3.9.9,0,0,1-.1-.5,3.4,3.4,0,0,1,.1-1c.1-.2.2-.5.3-.7a1.79,1.79,0,0,1,.5-.7C28.1,51,28.1,51,28.5,50.9Zm18.7,7.6c.1.1.1.2.2.2s.4.1.5-.1a.91.91,0,0,0,.2-1.1v-.1a.68.68,0,0,0-.8-.4.52.52,0,0,0-.4.2,2,2,0,0,0-.9.9,6.11,6.11,0,0,0-.7,1.4,3.4,3.4,0,0,0-.1,1v.2c0,.1,0,.1-.1.1H43.5c-.1,0-.1,0-.1-.1v-.6c0-.5,0-.5.5-.5h.3a.75.75,0,0,0,.7-.5c0-.1,0-.2-.1-.2l-.1-.1a1.14,1.14,0,0,0-.8-.3h-.1l-.1-.1c0-.1,0-.2.1-.2s.2-.1.3-.1.4-.1.6-.1h.2c.1-.1.2-.1.4-.1s.1,0,.2-.1.1-.2.1-.3,0-.2-.1-.2a2.3,2.3,0,0,0-1.4-.4.75.75,0,0,0-.5.1,6.89,6.89,0,0,0-.8.3c-.1.1-.2.1-.2.3v.2a.3.3,0,0,1,0,.4c0,.1-.1.3-.1.4s-.1.2-.2.3a.19.19,0,0,0,0,.3h0a.6.6,0,0,1,.1.4v1.1a2.2,2.2,0,0,0,.1.8c0,.2.1.3.2.5l.1.1c.1,0,.1.1.2.1a.9.9,0,0,0,.5.1,2.92,2.92,0,0,1,.9-.2c.2,0,.5-.1.7-.1a1,1,0,0,0,.7-.2h.1c.1,0,.1.1.2.1a2,2,0,0,0,.8.4c.2,0,.3.1.5,0s.6-.1.9-.2a2.57,2.57,0,0,0,.5-.2.77.77,0,0,0,.3-.2c.2-.1.3-.2.5-.3s.1,0,.1.1v.4c0,.2.1.3.1.5s.2.3.4.3.2.1.3.1.1-.1.2-.1.2-.2.2-.4v-.4a4.1,4.1,0,0,0-.1-1.1V58.7c0-.2,0-.2.2-.3a.9.9,0,0,1,.5-.1,2.92,2.92,0,0,0,.9-.2c.1,0,.1-.1.2-.1s.2-.1.3-.2a.37.37,0,0,0,.1-.3c0-.1-.1-.2-.2-.3s-.2-.1-.4-.1a2.85,2.85,0,0,0-1.3,0,1.27,1.27,0,0,0-.6.1h-.6a1.1,1.1,0,0,1-.8,0h-.2a.22.22,0,0,0-.2.2c0,.2-.1.5.1.7,0,.1,0,.1.1.1.1.2.2.2.4.3h.3V60c0,.1,0,.2-.1.2s-.1.1-.2.1a10.09,10.09,0,0,1-1.5.7,4.25,4.25,0,0,1-1.1.2c-.2,0-.5-.2-.5-.4v-.5a2,2,0,0,1,.4-.8A1.1,1.1,0,0,1,47.2,58.5ZM29.6,60.3a5.67,5.67,0,0,1-1.3.8,1.85,1.85,0,0,1-.7.2.67.67,0,0,1-.7-.4,1.88,1.88,0,0,1-.2-.8l.3-1.2c.1-.2.2-.5.3-.7a1.38,1.38,0,0,1,.3-.4.19.19,0,0,1,.3,0h0c.1,0,.1.1.1.2v.2c0,.1.1.3.2.3h.1a.55.55,0,0,0,.5-.3V58a1.7,1.7,0,0,0,.1-.7v-.2c-.1-.1-.1-.2-.2-.3l-.2-.2a.88.88,0,0,0-.7-.1c-.1,0-.1.1-.2.1a1.69,1.69,0,0,0-.5.2,2.73,2.73,0,0,0-.9,1.2,7.49,7.49,0,0,0-.5,1.6,1.73,1.73,0,0,0,.1,1,7.46,7.46,0,0,0,.7,1.2l.2.2c.2.1.5.2.7.3a1.7,1.7,0,0,0,1,0,3.38,3.38,0,0,0,1.2-.6,1.38,1.38,0,0,1,.4-.3h.1a2.34,2.34,0,0,0,.7.7h.4a2.66,2.66,0,0,0,1.2-.3,3.33,3.33,0,0,0,1.2-1.4,1.7,1.7,0,0,0,.1-.7v-.5c0-.1-.1-.3-.1-.4a2.54,2.54,0,0,0-1.2-1.1,1.27,1.27,0,0,0-.6-.1h-.2A2,2,0,0,0,30.2,59c0,.1-.1.3-.1.4A1.05,1.05,0,0,0,29.6,60.3ZM38.9,53h0v.6a4.87,4.87,0,0,0,.1,1.2c.1.3.1.4.5.5.2,0,.4-.1.4-.2a.9.9,0,0,0,.1-.5v-.8c0-.6.1-1.3.1-1.9,0-.2.1-.3.3-.4a1.85,1.85,0,0,1,.7-.2h.2c.2,0,.5-.1.7-.1h0v.1c-.2.3-.3.6-.5.9a8,8,0,0,0-.8,1.6c-.1.2-.1.4-.2.6a1,1,0,0,0-.1.9c0,.1,0,.1.1.2s.3.2.4.1.2-.1.3-.2a.86.86,0,0,0,.3-.6c0-.2.2-.3.4-.3l1.2-.3c.1,0,.2,0,.2.1a4.33,4.33,0,0,1,.1.5,1.42,1.42,0,0,0,.2.6.22.22,0,0,0,.2.2c.1,0,.2.1.3.1s.2.1.3,0,.1-.2.2-.3v-.2a.6.6,0,0,0-.1-.4c-.1-.2-.1-.5-.2-.7s0-.2.1-.2c.3-.1.6-.3.9-.4h.1a.3.3,0,0,0,0-.4c-.1,0-.2-.1-.3-.1a.37.37,0,0,0-.3-.1h-.6c-.1,0-.1,0-.1-.1v-.1l-.3-1.2c-.1-.2-.2-.5-.3-.7l-.3-.3c-.1,0-.1-.1-.2-.1a.6.6,0,0,0-.4.1.37.37,0,0,1-.3.1,2,2,0,0,0-1.1-.2,13.4,13.4,0,0,0-2,.1,5,5,0,0,0-1.2.2.22.22,0,0,0-.2.2h0a.48.48,0,0,0,.2.6l.2.2c.1,0,.3.1.4,0a.9.9,0,0,0,.5-.1l.1.1v.2C39.1,52.3,39,52.6,38.9,53Zm6.6,2.5.3.3a.52.52,0,0,0,.4.2.6.6,0,0,0,.4-.1c.2-.1.4-.1.5-.2a4.87,4.87,0,0,1,.7-.3,3.92,3.92,0,0,0,1-.8c.1-.1.1-.2.2-.3a.75.75,0,0,0,.1-.8,2,2,0,0,0-.4-.8.78.78,0,0,0-.4-.4v-.1c.1,0,.1-.1.2-.1.3-.3.4-.4.4-.8a.73.73,0,0,0-.2-.6c-.1-.1-.3-.2-.4-.3l-.9-.3H46.1a.37.37,0,0,0-.5.2h0v.1a1.7,1.7,0,0,0-.1.7c0,.6-.1,1.1-.1,1.7v.8C45.4,54.1,45.5,55.2,45.5,55.5Zm9.8,3.1c.1,0,.1-.1.2-.1a.35.35,0,0,0,.1-.5l-.1-.1c-.1,0-.1,0-.1-.1a3.55,3.55,0,0,0-1-.2,5.66,5.66,0,0,0-1.8.3c-.1,0-.1.1-.2.1s-.1.1-.1.2v.2a.64.64,0,0,1,0,.6.6.6,0,0,1-.1.4c0,.1-.1.2-.1.3,0,.5-.1,1-.1,1.5a.37.37,0,0,1-.1.3.88.88,0,0,0-.1.7c0,.1,0,.1.1.2s0,.1.1.1h.4a3.4,3.4,0,0,0,1-.1h.2c.4-.1.8-.1,1.2-.2H55c.3,0,.5-.1.8-.1.1,0,.2,0,.2-.1s.3-.3.3-.4v-.3c0-.1-.2-.2-.3-.2H54.8c-.5.1-1,0-1.6.1-.1,0-.1,0-.1-.1v-.6c.1,0,.1-.1.2-.1s.3-.1.4-.1c.3-.1.7-.1,1-.2a2.57,2.57,0,0,0,.5-.2c.2-.1.1-.1.1-.2v-.1c0-.1,0-.1-.1-.2a1.85,1.85,0,0,0-.7-.2H53.3c0-.2,0-.3.2-.4s.5-.1.7-.2Zm1-7.7c-.1-.4,0-.4-.5-.5a2.44,2.44,0,0,0-1.2,0,.6.6,0,0,0-.4.1c-.2.1-.3-.1-.4-.1h0c-.1,0-.3,0-.3.2s-.1.2-.2.3a.6.6,0,0,0-.1.4v.3c-.1.4-.1.8-.2,1.2,0,.1,0,.1-.1.1s-.2.2-.2.3v.3a.37.37,0,0,1,.1.3c0,.2-.1.4-.1.6a1.18,1.18,0,0,0,.1.8v.2a.52.52,0,0,0,.2.4l.3.3.1.1a1.1,1.1,0,0,0,.8,0c.6-.2,1.3-.3,1.9-.5.3,0,.5-.2.8-.3v-.1a.37.37,0,0,0-.1-.3c-.1-.1-.3-.1-.4-.3H54.7a2.2,2.2,0,0,0-.8.1.22.22,0,0,1-.2-.2.9.9,0,0,1,.1-.5c0-.1.1-.3.2-.3h.1a1.27,1.27,0,0,1,.6-.1c.2,0,.4-.1.6-.1s.1-.1.2-.1.2-.2.2-.3,0-.2-.1-.2a3.63,3.63,0,0,1-.7-.3.64.64,0,0,0-.6,0h-.1c-.1,0-.1,0-.1-.1a1.27,1.27,0,0,1,.1-.6.22.22,0,0,1,.2-.2c.1,0,.3-.1.4-.1l1.1-.3c.1,0,.1-.1.2-.1C56.2,51,56.2,50.9,56.3,50.9ZM38.5,49c0-.2-.1-.5-.1-.7s-.1-.6-.1-.9v-.8a3.4,3.4,0,0,0-.1-1c0-.1-.1-.3-.1-.4s-.2-.2-.3-.2h-.2c-.2,0-.3.1-.5.1s-.2.3-.3.4l-.3.3c-.1.1-.2.3-.3.4l-.3.3c-.1,0-.1-.1-.2-.1-.1-.3-.4-.5-.5-.8s-.3-.3-.4-.5h0c-.2-.1-.4-.1-.5.1h0c-.1.1-.1.2-.2.4-.1.6-.2,1.1-.3,1.7a4.3,4.3,0,0,0,0,1.6.71.71,0,0,0,.6.6h.1c.1,0,.2,0,.2-.1l.1-.1v-.8c0-.3.1-.7.1-1h0c0-.1,0-.1.1-.1h.1c.1.2.3.4.4.6a.55.55,0,0,0,.5.3h.2a.78.78,0,0,0,.4-.4,2.09,2.09,0,0,1,.4-.6l.1-.1h.1c.1.1,0,.2,0,.3a6.75,6.75,0,0,0,.2,1.4c0,.2.1.3.3.4a.77.77,0,0,1,.3.2h.3C38.4,49.2,38.5,49.1,38.5,49ZM45,47.3h0c.2.1.3.1.4.2l.5.5a3,3,0,0,1,.8.8l.3.3a.37.37,0,0,0,.3.1.55.55,0,0,0,.5-.3c0-.3.1-.6.1-.9V46.5a4.1,4.1,0,0,1,.1-1.1v-.3c-.1-.3-.2-.5-.6-.5h-.2q-.3.15-.3.3c0,.2-.1.3-.1.5,0,.4-.1.9-.1,1.3,0,.1,0,.2-.1.2s-.2-.1-.3-.1-.1-.1-.2-.2a3.13,3.13,0,0,1-.9-1.1c-.1-.2-.3-.3-.4-.5a.6.6,0,0,0-.4-.1c-.1,0-.1.1-.2.2a.37.37,0,0,0-.1.3l-.3,1.2a.37.37,0,0,1-.1.3,6.6,6.6,0,0,0-.1,1.4.76.76,0,0,0,.2.5c.1,0,.1.1.1.2s.1.1.2.1a.45.45,0,0,0,.5,0h.1c.1,0,.1-.1.1-.2A8.75,8.75,0,0,1,45,47.3ZM38.9,61.9a2.2,2.2,0,0,0,.1-.8v-1l.1-.1h0c.1.1.1.2.2.3.2.3.3.6.5.9s.3.5.7.6h.1c.2,0,.4-.1.4-.2s.1-.2.1-.3a2.07,2.07,0,0,1,.2-.6.9.9,0,0,0,.1-.5,4.1,4.1,0,0,0,.1-1.1,4.87,4.87,0,0,0-.1-1.2v-.3c0-.1-.1-.2-.1-.3a.52.52,0,0,0-.4-.2c-.2,0-.4.3-.4.5a4.88,4.88,0,0,1-.1,1.7c0,.2-.1.3-.1.5l-.1.1h-.1l-.1-.1c-.2-.4-.5-.8-.7-1.3a6.47,6.47,0,0,0-.8-.9c-.1,0-.1-.1-.2-.1a.37.37,0,0,0-.5.2h0c0,.3-.1.5-.1.8s-.1.8-.1,1.2v1.9q0,.15.3.3c.1,0,.2.1.3.1A1.7,1.7,0,0,0,38.9,61.9Zm2-16.8c-.1,0-.4.1-.6.1a.86.86,0,0,0-.6.3c-.1.1-.2.3-.3.4s-.1.2-.1.4-.1.5-.1.7a1.73,1.73,0,0,0,.1,1c.1.3.2.5.3.8a2.65,2.65,0,0,0,.5.6,2.38,2.38,0,0,0,1.1.6,1.7,1.7,0,0,0,.7-.1l.6-.3a2.34,2.34,0,0,0,.7-.7c.1-.2.2-.3.2-.5a.75.75,0,0,1,.1-.5v-.1c0-.2-.1-.5-.1-.7s-.1-.3-.1-.5-.1-.3-.2-.5a2.65,2.65,0,0,0-.6-.5A3,3,0,0,0,40.9,45.1ZM36.4,59.9h-.2a1,1,0,0,0-.4-.5,7.46,7.46,0,0,1-.7-1.2v-.1c-.1-.1-.1-.2-.3-.2s-.1-.1-.2-.1a.47.47,0,0,0-.5.3,1.27,1.27,0,0,0-.1.6c0,.7-.1,1.3-.1,2v1.2c0,.1.1.3.2.3a.9.9,0,0,0,.5.1c.1,0,.2-.1.3-.1s.1-.1.2-.2v-.1c0-.5.1-1,.1-1.5v-.1h.1a1.38,1.38,0,0,1,.3.4l.6.9c.1.3.4.4.6.5s.1,0,.2.1h.2c.1-.1.2-.1.2-.3s.1-.4.1-.6V61a13.4,13.4,0,0,0,.1-2c0-.3-.1-.5-.1-.8a.65.65,0,0,0-.6-.6h-.2a.37.37,0,0,0-.1.3v.6A6.75,6.75,0,0,1,36.4,59.9Zm13.1-5.3v.2c0,.2,0,.4.2.5v.1c.1.3.3.4.7.3l.9-.3c.1,0,.1-.1.2-.1s.3-.2.5-.3a1,1,0,0,0,.5-.4l.1-.1c.1-.3,0-.3-.2-.4s-.2-.1-.3,0a.6.6,0,0,1-.4.1.76.76,0,0,0-.5.2c-.1,0-.3.1-.4.1s-.1,0-.1-.1v-.1a3.4,3.4,0,0,1,.1-1c0-.3.1-.6.1-.9s.1-.6.1-.9a4.25,4.25,0,0,1,.2-1.1V50a.37.37,0,0,0-.1-.3c-.1-.1-.2-.2-.3-.2s-.3,0-.3.1-.2.3-.3.5a.9.9,0,0,0-.1.5c-.1.5-.1,1-.2,1.5-.1.8-.2,1.5-.3,2.3C49.5,54.4,49.5,54.6,49.5,54.6Zm4.7,2.6h.2c.3-.1.6-.1.9-.2h.1c.2-.1.2-.3.1-.5a.71.71,0,0,0-.6-.3l-1,.3a.22.22,0,0,0-.2.2c-.1.1,0,.2,0,.3h.1C53.8,57.1,54,57.2,54.2,57.2Z"/><path class="cls-7" d="M73,81h.2c.1,0,.3.1.3,0s-.1-.2-.1-.3,0-.1-.1-.1l-.1-.1a1.41,1.41,0,0,0-.9-.1h-5l-.2.2V81c0,.1.1.1.1.2s.1.1.2.1H68c.3-.1.7,0,1-.1h.1c.4.1.9.1,1.3.2a1.85,1.85,0,0,1,.7.2c.1.1.2.1.4.2s.3.2.3.3.1.3.2.3h.1c.1.1.2.2.2.3a1.73,1.73,0,0,1,.1,1,.86.86,0,0,1-.3.6c-.2.2-.3.4-.5.4a1.61,1.61,0,0,1-.7.4,2.08,2.08,0,0,1-1.1.1H63.7c-.1,0-.1,0-.1-.1s-.2-.3-.3-.4v-.1c0-.1.1-.1.1-.2a1.06,1.06,0,0,0,.1-.8,9.36,9.36,0,0,0-.4-1.6c.1-.1.1-.2.2-.3a.6.6,0,0,0,.1-.4c0-.1,0-.1.1-.2h.2c.1,0,.2-.1.1-.3s-.1-.2-.1-.3,0-.1-.1-.1a.52.52,0,0,0-.4-.2,2.2,2.2,0,0,0-.8-.1H57.9c-.2,0-.3,0-.4.1s-.1,0-.2.1a.22.22,0,0,0-.2.2.46.46,0,0,0,.4.5h2.4a2.77,2.77,0,0,1,1.3.3,3.13,3.13,0,0,1,1.1.9c.1.1.1.1.1.2s.1.5.2.7v.3c-.1.2-.2.3-.3.5l-.4.4c-.1.1-.2.2-.3.2a6.75,6.75,0,0,1-1.4.2H59.1c-.6.1-1.1,0-1.7.1h-2c-.2,0-.5.1-.7,0H52.3a2.85,2.85,0,0,0-1.3,0h-.6a.45.45,0,0,0-.5,0,1.1,1.1,0,0,1-.8,0H46.5a2.77,2.77,0,0,0-.9-.1H43.4a5.7,5.7,0,0,1-1.3-.1c-.1,0-.2-.1-.3-.2s-.4-.3-.6-.5l-.2-.2c0-.1-.1-.2-.1-.4s-.1-.3,0-.5v-.2a1.1,1.1,0,0,1,0-.8.6.6,0,0,1,.1-.4,3.87,3.87,0,0,1,1.2-1.9,4.81,4.81,0,0,1,1.6-.8.37.37,0,0,0,.3-.1,2.35,2.35,0,0,1,.8-.2c.3,0,.6-.1.9-.1h1.6a1.7,1.7,0,0,0,.7-.1h.3c.2.1.4,0,.5,0h1c.2.1.4,0,.6,0h1.9c.5-.1.9,0,1.4-.1h.3a4.85,4.85,0,0,0,1.7,0h1.5a3.4,3.4,0,0,0,1-.1h1.9c.2.1.3,0,.5,0a7.57,7.57,0,0,1,1.5.1h2.4a3.4,3.4,0,0,0,1-.1h1.9c.5.1,1.1,0,1.6.1h1.2a4.87,4.87,0,0,1,1.2.1h1.3c.2,0,.4.1.6,0a.9.9,0,0,1,.5.1l1.2.3c.1,0,.1,0,.2.1a14.17,14.17,0,0,1,1.8.8c.2.1.3.2.5.3a3,3,0,0,0,.7.5l.1.1c.3.1.4.3.6.5a2.29,2.29,0,0,1,.7,1,4.42,4.42,0,0,1,.6,1.6.45.45,0,0,1,0,.5v.2c0,.2-.2.3-.4.4-.1.7-.3.7-.5.7H74.2c-.2.1-.5,0-.7,0h-.1c-.1,0-.2-.1-.1-.2V85h0a1.52,1.52,0,0,0,.3-1.3c0-.2-.1-.4-.1-.6l-.3-.9v-.6A.73.73,0,0,1,73,81Z"/><path class="cls-7" d="M21.8,81.8h0a1.92,1.92,0,0,0,.4,1.2.37.37,0,0,1,.1.3,1.27,1.27,0,0,1-.1.6v.3a.9.9,0,0,0,.1.5c.1.1.1.3.2.4s0,.2-.1.2h-9c-.2,0-.3-.1-.4-.3s-.2-.3-.3-.5a.71.71,0,0,1-.3-.6.9.9,0,0,1,.1-.5c.1-.3.1-.5.4-.7l.2-.2c0-.1.1-.1.2-.1a3.58,3.58,0,0,1,1.1-.4l1.3-.3a2.77,2.77,0,0,1,.9-.1c.3,0,.5-.1.8-.1.1,0,.1-.1.2-.1l.1-.1c0-.2-.2-.5-.4-.5h-.9a12.1,12.1,0,0,0-1.9.1h-.7a7.57,7.57,0,0,0-1.5.1h-2c-.2,0-.3.2-.3.4v.1q0,.15.3.3a.9.9,0,0,0,.5.1h.3c.1,0,.1,0,.1.1a2,2,0,0,0,.4.8c.1.1.1.2.1.4s-.1.5-.1.7a1.8,1.8,0,0,0,.4,1.6c0,.1.1.1.1.2v.1c-.1,0-.2.1-.3,0H10.6a4.85,4.85,0,0,0-1.7,0H8.5a2.2,2.2,0,0,0-.8.1H4.8a1.14,1.14,0,0,1-.8-.3c-.1-.1-.2-.2-.2-.3a1.18,1.18,0,0,1,.1-1v-.1c.2-.6.5-1.1.7-1.7,0-.1.1-.1.1-.2l.4-.4c.2-.1.3-.3.5-.4a2.65,2.65,0,0,0,.6-.5,2.16,2.16,0,0,1,1.2-1.1c.2-.1.5-.2.7-.3s.2-.1.3-.1a1.14,1.14,0,0,1,.8-.3,2.92,2.92,0,0,0,.9-.2,2.2,2.2,0,0,1,.8-.1h.2a.85.85,0,0,1,.7,0h4.4a3.3,3.3,0,0,0,1.4,0h2.8a2.05,2.05,0,0,1,1.1,0h4.9c.1,0,.2,0,.2-.1h.2c.1.1.3,0,.5,0h.8a.9.9,0,0,0,.5.1,5.7,5.7,0,0,1,1.3-.1,2.2,2.2,0,0,0,.8-.1h.2a.9.9,0,0,0,.5.1h4a2.66,2.66,0,0,1,1.2.3c.3.2.7.3,1,.5.1.1.2.1.3.2s.5.4.7.6l.5.5.1.1c.1.4.2.7.3,1.1a3.4,3.4,0,0,1-.1,1c0,.1-.1.3-.1.4l-.6.9-.5.5c-.1.4-.2.4-.3.4H25.1c-.3-.1-.6-.1-.8-.2a.76.76,0,0,1-.5-.2c-.1,0-.1,0-.2-.1a.91.91,0,0,1-.3-.7v-.7a.86.86,0,0,1,.3-.6c.1-.1.1-.2.2-.3l.1-.1a3.13,3.13,0,0,1,1-.5l1.4-.3c.2,0,.4-.1.6-.1s.3-.2.3-.4v-.2c0-.2-.2-.3-.4-.4h-.2a13.4,13.4,0,0,0-2,.1H22.8a3.4,3.4,0,0,0-1,.1H20.4a.6.6,0,0,0-.4.1c-.1,0-.1,0-.1.1a.45.45,0,0,0,0,.5c.1.1.2.2.3.2h1.5C21.7,81.8,21.8,81.8,21.8,81.8Z"/><path class="cls-7" d="M41.7,27.4H40.4a3.4,3.4,0,0,0-1-.1c-.2,0-.3-.1-.5-.1s-.2-.1-.4-.1a4.25,4.25,0,0,1-1.1-.2h-.2c-.1,0-.1,0-.2-.1a.76.76,0,0,0-.5-.2l-.6-.3-.6-.3a1.61,1.61,0,0,1-.7-.4c-.2-.1-.4-.3-.6-.4l-.2-.2a2.34,2.34,0,0,1-.7-.7c-.1-.1-.2-.3-.4-.4a4.42,4.42,0,0,1-.6-1.6,4.1,4.1,0,0,1-.1-1.1V20c.2-.2.2-.5.3-.8,0-.1,0-.1.1-.1.1-.2.2-.3.3-.5s.1-.2.2-.3a1,1,0,0,0,.4-.5,2.09,2.09,0,0,1,.4-.6c0-.1,0-.1.1-.1s.3-.3.5-.5l.1-.1a1,1,0,0,0,.5-.4,1,1,0,0,0,.5-.4c.1-.1.4-.2.5-.3s.1,0,.1-.1h.1c.4-.2.8-.3,1.2-.5a1.42,1.42,0,0,1,.6-.2,4.25,4.25,0,0,1,1.1-.2c.1,0,.2-.1.4-.1h.4c.2,0,.3-.1.5-.1h1a.9.9,0,0,1,.5.1.6.6,0,0,0,.4.1h.4a5,5,0,0,0,1.2.2c.2,0,.3.1.4.1a13.36,13.36,0,0,1,1.8.7c.3.2.7.4,1,.6a3.59,3.59,0,0,1,1,.7c.1.1.1.1.2.1a5.39,5.39,0,0,1,1.4,1.6,4.71,4.71,0,0,1,.6,1.5v1.9a3,3,0,0,1-.5,1.6c-.1.2-.2.3-.3.5a10.59,10.59,0,0,1-1,1.2,4.44,4.44,0,0,1-1.1.8c-.3.2-.6.3-.9.5a1.42,1.42,0,0,1-.6.2c-.1,0-.3.1-.4.1a.6.6,0,0,0-.4.1h-.1a2.69,2.69,0,0,1-1.5.5h-.1a2.44,2.44,0,0,1-1.2,0C42,27.4,41.9,27.4,41.7,27.4Z"/><path class="cls-7" d="M32.9,16.2c-.1.1-.1.2-.2.3a10.63,10.63,0,0,0-.9,1.1c-.1.1-.2.3-.3.4a6.39,6.39,0,0,0-.8,1.9,4.1,4.1,0,0,0-.1,1.1v.5a4.19,4.19,0,0,0,.4,1.6c0,.1.1.1.1.2v.1h-.6a.37.37,0,0,1-.3-.1,1.38,1.38,0,0,0-.4-.3c-.1-.2-.3-.2-.4-.3a.6.6,0,0,0-.4-.1.22.22,0,0,0-.2.2v.9a1.61,1.61,0,0,0,.3.9.52.52,0,0,0,.4.2.37.37,0,0,0,.3-.1c.1-.1.1-.1.1-.2a.22.22,0,0,1,.2-.2.6.6,0,0,1,.4.1.6.6,0,0,0,.4.1,2.92,2.92,0,0,1,.9.2h.5l.4.4c.1.2.3.3.4.4.6.4,1.1.9,1.7,1.3.1.1.2.2.3.2a5.74,5.74,0,0,1,.7.4,6.12,6.12,0,0,0,1.2.5c.3.1.5.2.8.3.1,0,.1.1.2.1s.3.1.5.1.4.1.6.1a4.25,4.25,0,0,0,1.1.2,1.27,1.27,0,0,0,.6.1h2a5.85,5.85,0,0,0,1.3-.2c.2,0,.4-.1.6-.1s.7-.2,1-.3c.1,0,.1-.1.2-.1a8.65,8.65,0,0,0,1.7-.7c.1,0,.2-.1.3-.1s.2-.1.3-.2l.1-.1c.1-.1.3-.1.4-.2a1.79,1.79,0,0,1,.7-.5,4.74,4.74,0,0,0,1-1l1.1-.3c.2-.1.5-.1.7-.2h.3c.1,0,.1.1.2.1s.1.2.3.2.1.1.2.1.2,0,.3,0v-.1c.1-.1.1-.1.1-.2V23.8a.67.67,0,0,0-.4-.7c-.1,0-.1,0-.2-.1s-.4,0-.4.2v.2c0,.2,0,.2-.2.2a2.77,2.77,0,0,1-.9.1l-.1-.1v-.1a2.54,2.54,0,0,0,.2-1.2V21.2a3.18,3.18,0,0,0-.2-1.4c-.1-.3-.1-.6-.3-.8l-.3-.6c-.1-.2-.3-.5-.4-.7a5.24,5.24,0,0,0-1-1.1l-.4-.4-.1-.1V16c0-.1,0-.1.1-.1.2-.2.3-.4.5-.6s.1-.2.2-.3h.1c0,.1.1.1.1.2a1,1,0,0,0,.6.5,1.38,1.38,0,0,1,.4.3,4.74,4.74,0,0,0,1,1,3,3,0,0,1,.8.8l.6.6a1,1,0,0,0,.4.5c0,.1.1.1.1.2a1,1,0,0,0,.4.5,7.46,7.46,0,0,1,.7,1.2c.1.3.2.5.3.8a2.66,2.66,0,0,1,.3,1.2c0,.2.1.5.1.7v1.3a2,2,0,0,1-.3,1.1c-.1.2-.2.5-.3.7s0,.1-.1.1a7.52,7.52,0,0,1-1.5,1.6,2.7,2.7,0,0,0-.8.7c-.4.3-.9.6-1.3.9-.2.1-.5.2-.7.3s-.1.1-.2.1a.37.37,0,0,1-.3.1c-.2.1-.5.2-.7.3a1.42,1.42,0,0,1-.6.2c-.1,0-.2.1-.3.1a5.64,5.64,0,0,1-1.2.4h-.1l-1.1.3a2.2,2.2,0,0,1-.8.1c-.2,0-.4.1-.6.1a.6.6,0,0,0-.4.1c-.3,0-.6.1-.9.1H43a2.77,2.77,0,0,0-.9.1,2.05,2.05,0,0,1-1.1,0H39.6a4.1,4.1,0,0,1-1.1-.1h-.8c-.2,0-.5-.1-.7-.1s-.5-.1-.7-.1a2.92,2.92,0,0,1-.9-.2c-.5-.2-1.1-.3-1.6-.5a5.78,5.78,0,0,1-1.4-.5,3.7,3.7,0,0,1-1.1-.5c-.1,0-.1-.1-.2-.1a3.13,3.13,0,0,1-1-.5c-.2-.1-.4-.3-.6-.3s-.1,0-.1-.1h0a1.38,1.38,0,0,0-.4-.3c-.3-.3-.7-.5-1-.8a3,3,0,0,1-.8-.8,2.65,2.65,0,0,0-.5-.6.52.52,0,0,1-.2-.4l-.3-.9a1.27,1.27,0,0,1-.1-.6c0-.2-.1-.4-.1-.6s-.1-.1-.1-.2v-.4A1.27,1.27,0,0,0,26,23c0-.1.1-.2.1-.4.1-.4.2-.7.3-1.1a3.13,3.13,0,0,1,.5-1c.2-.3.3-.5.5-.8a10.63,10.63,0,0,1,.9-1.1c.1-.2.3-.3.4-.5l.6-.6a2.7,2.7,0,0,1,.8-.7l.1-.1c.2-.1.2-.3.4-.4s.3-.2.5-.3.1,0,.1-.1h0c.1-.2.4-.3.5-.4a.37.37,0,0,1,.3-.1h.2l.4.4C32.7,15.9,32.8,16.1,32.9,16.2Z"/><path class="cls-6" d="M53.6,30.1c.1-.1.3-.2.4-.3l.1-.1c.2,0,.3-.2.4-.3a4.74,4.74,0,0,0,1-1c.1-.1.2-.2.2-.3s.2-.3.3-.4a6.11,6.11,0,0,0,.7-1.4.9.9,0,0,0,.1-.5,3.4,3.4,0,0,1,.1-1V23.4a.22.22,0,0,1,.2-.2c.1,0,.2-.1.3-.1l.1.1a1.38,1.38,0,0,0,.4.3,2.65,2.65,0,0,1,.6.5,5.24,5.24,0,0,1,1.1,1c.8.6,1.6,1.3,2.4,1.9A5.73,5.73,0,0,1,63.1,28c.1.2.2.3.1.5s-.1.1-.1.2a11.76,11.76,0,0,0-.7,2l-.3.9c-.2.5-.3.9-.5,1.4,0,.1-.1.2-.1.3-.3.6-.5,1.3-.8,1.9a.52.52,0,0,1-.2.4,3.58,3.58,0,0,0-.4,1.1.22.22,0,0,1-.2.2H51.2c-.1,0-.3-.1-.3-.2v-.4c0-.1.1-.1.1-.2s.1-.2.2-.3a2,2,0,0,1,.4-.8,10.09,10.09,0,0,0,.7-1.5c0-.1.1-.2.1-.3.2-.3.3-.7.5-1,0-.1,0-.1.1-.2a2.19,2.19,0,0,0,.3-.5,3.55,3.55,0,0,1,.4-.9C53.5,30.4,53.5,30.2,53.6,30.1Z"/><path class="cls-6" d="M27.6,36.7H23.8c-.6.1-1.2,0-1.7.1h-.8c-.3,0-.4,0-.5-.4-.1-.7-.3-1.4-.4-2.2-.1-.4-.1-.9-.2-1.3s-.1-1-.2-1.5a.9.9,0,0,0-.1-.5.75.75,0,0,0-.1-.5.37.37,0,0,0-.1-.3.6.6,0,0,0-.1-.4c0-.2,0-.3.1-.4l.2-.2c.1-.1.1-.2.2-.2a8.64,8.64,0,0,1,1.3-1.4l.8-.8c.4-.4.9-.8,1.3-1.2l.1-.1a1.38,1.38,0,0,0,.4-.3.52.52,0,0,1,.4-.2h.2c.1,0,.2.1.3.2s.1.1.1.2.1.4.1.6a1.42,1.42,0,0,0,.2.6c0,.1.1.1.1.2a2.59,2.59,0,0,0,.7,1.1c.3.4.6.7.9,1.1a1.56,1.56,0,0,0,.8.6c.3.2.5.4.8.6.1.1.1.2.2.3s.1.3.2.5.1.3.2.4l.2.2a2,2,0,0,0,.4.8c.1.1.1.2.2.3s.2.3.3.5a3.55,3.55,0,0,0,.4.9,7.74,7.74,0,0,1,.7,1.6c0,.1.1.1.1.2s0,.1.1.2a1.27,1.27,0,0,1,.1.6c0,.1,0,.1-.1.1-.3,0-.7.1-1,.1H28A.6.6,0,0,0,27.6,36.7Z"/><path class="cls-7" d="M65.6,58.4h-.9a7.72,7.72,0,0,1-1.5-.2c-.2,0-.4-.1-.6-.1s-.3-.1-.5-.2-.3-.1-.4-.2a1.34,1.34,0,0,1-.7-.6c0-.1,0-.1-.1-.2s-.1-.1-.1-.2a.9.9,0,0,0-.1-.5v-.4a2.47,2.47,0,0,1,.8-1.6l.4-.4a4.05,4.05,0,0,1,.9-.5c.5-.2,1-.3,1.5-.5h2.5a3.4,3.4,0,0,1,1,.1,10.93,10.93,0,0,1,1.7.5,2.84,2.84,0,0,1,1.1.8c.1.1.1.1.1.2s.1.2.2.3a2,2,0,0,1,.3,1.5,1.23,1.23,0,0,1-.5,1,2.59,2.59,0,0,1-1.1.7c-.1,0-.2.1-.3.1a6.53,6.53,0,0,1-2,.5h-.5A1.67,1.67,0,0,0,65.6,58.4Z"/><path class="cls-7" d="M16.6,58.2H16c-.4,0-.7-.1-1.1-.1a2.35,2.35,0,0,1-.8-.2l-1-.3c-.1-.1-.3-.1-.4-.2a1.38,1.38,0,0,1-.4-.3,2.7,2.7,0,0,1-.7-.8,1.23,1.23,0,0,1-.2-1,6.36,6.36,0,0,1,.6-1.8,2,2,0,0,1,.9-.9c.3-.1.5-.3.8-.3a1.7,1.7,0,0,1,1,0,8.33,8.33,0,0,0,1.5.4c.4.1.9.1,1.3.2h.3a2.77,2.77,0,0,1,1.3.3c.1,0,.2.1.3.1a2.51,2.51,0,0,1,.7.4,4.12,4.12,0,0,1,1,1.3.6.6,0,0,1,.1.4,1.87,1.87,0,0,1-.5,1.4,5.55,5.55,0,0,1-.8.6l-.6.3c-.2.1-.4.1-.6.2a4,4,0,0,1-1.5.3Z"/><path class="cls-1" d="M44.1,13.7v-.5c.2-.3.1-.6.2-.9v-.1a2.09,2.09,0,0,0-.7-1.3c-.1-.1-.1-.1-.2-.1a3.55,3.55,0,0,0-1-.2h-.7l-.1-.1c.1-.2.1-.3.2-.5s0-.1.1-.1a2.65,2.65,0,0,0,.5-.6,2.65,2.65,0,0,1,.6-.5c.1,0,.1,0,.2-.1s.1,0,.2-.1.5-.2.7-.3a1.27,1.27,0,0,1,.6-.1,4.1,4.1,0,0,1,1.1.1,1.61,1.61,0,0,1,.9.3c.1,0,.1.1.2.1a1.46,1.46,0,0,1,.9.6,3.46,3.46,0,0,1,1,1.1c.1.2.1.3.2.5a.37.37,0,0,0,.1.3,1.39,1.39,0,0,1,0,.9.9.9,0,0,1-.1.5,3.26,3.26,0,0,1-.4,1.4c-.1.2-.2.3-.3.5s-.3.4-.5.6c-.3.4-.2.4-.6.1s-.9-.5-1.4-.8a4.42,4.42,0,0,0-1.6-.6C44.3,13.8,44.2,13.7,44.1,13.7Z"/><path class="cls-7" d="M17.6,51.8h-.9a9.36,9.36,0,0,1-1.6-.4c-.2-.1-.3-.1-.5-.2A1.67,1.67,0,0,1,13.5,50a.9.9,0,0,1-.1-.5,2.2,2.2,0,0,1,.1-.8c0-.1.1-.2.1-.3a3,3,0,0,1,1.2-1.7c.1-.1.2-.1.3-.2l.9-.3a1.1,1.1,0,0,1,.8,0,4.25,4.25,0,0,0,1.1.2c.1,0,.1,0,.2.1a8.86,8.86,0,0,1,1.7.8,2.34,2.34,0,0,1,.7.7c0,.1,0,.1.1.1a1.05,1.05,0,0,1,.5.9c0,.2.1.3.1.5a1.66,1.66,0,0,1-.5,1.2l-.1.1a1.46,1.46,0,0,1-.9.6c-.2.1-.5.1-.8.2A5.85,5.85,0,0,1,17.6,51.8Z"/><path class="cls-7" d="M66,51.6a2.77,2.77,0,0,1-.9-.1,2.92,2.92,0,0,1-.9-.2,10.93,10.93,0,0,1-1.5-.8,1.13,1.13,0,0,1-.3-1.1c0-.2.1-.3.1-.5a.76.76,0,0,1,.2-.5,1,1,0,0,1,.4-.5,4.44,4.44,0,0,1,1.1-.8l.6-.3a7,7,0,0,1,2.9-.3c.1,0,.3.1.4.1s.2.1.3.1a2,2,0,0,1,.8.4c.2.1.3.3.5.4l.3.3a5.64,5.64,0,0,1,.4,1.2,1.43,1.43,0,0,1-.3,1.1A3.13,3.13,0,0,1,69,51l-1,.3c-.2,0-.4.1-.6.1s-.2.1-.3.1A4.1,4.1,0,0,1,66,51.6Z"/><path class="cls-1" d="M33.7,15.5c-.1,0-.1,0-.1-.1a10.63,10.63,0,0,1-.9-1.1c0-.1,0-.1-.1-.2a8.8,8.8,0,0,1-.5-1.5v-.5c0-.3.1-.6.1-.9a.86.86,0,0,1,.3-.6c.2-.2.3-.5.5-.7a8.64,8.64,0,0,1,1.4-1.3c.1-.1.3-.1.4-.2a1.88,1.88,0,0,0,.8-.2c.2,0,.3-.1.5-.1h1c.1,0,.3.1.4.1h.1a1.61,1.61,0,0,1,.7.4,1.38,1.38,0,0,0,.4.3,2.65,2.65,0,0,1,.5.6,4.18,4.18,0,0,1,.4,1,.37.37,0,0,1-.1.3c-.1.1-.1.1-.2.1a1.8,1.8,0,0,0-1-.2,1.85,1.85,0,0,0-.7.2c-.1.1-.2.1-.3.3s-.3.5-.4.7a1.1,1.1,0,0,0,0,.8c0,.1.1.2.1.3a.55.55,0,0,0,.3.5h0v.2l-.9.3a7.74,7.74,0,0,0-1.6.7c-.3.2-.5.3-.8.5a.32.32,0,0,1-.3.3Z"/><path class="cls-7" d="M65.8,64.1h-.5a.9.9,0,0,1-.5-.1h-.3a1.85,1.85,0,0,1-.7-.2,2.07,2.07,0,0,1-1-.6,2.65,2.65,0,0,1-.5-.6,3.55,3.55,0,0,1-.2-1,1.06,1.06,0,0,1,.1-.8c0-.1,0-.1.1-.2a4.74,4.74,0,0,1,1-1c.1,0,.1,0,.1-.1l1.1-.3h1.9a4.67,4.67,0,0,1,1.7.3c.1,0,.1,0,.2.1a1.05,1.05,0,0,1,.9.5,1.46,1.46,0,0,1,.6.9,1.85,1.85,0,0,1,.2.7.6.6,0,0,1-.1.4c0,.1-.1.2-.1.3a.76.76,0,0,1-.2.4,5.5,5.5,0,0,1-.9.7.76.76,0,0,1-.5.2c-.2.1-.4.1-.6.2s-.1,0-.2.1a4.1,4.1,0,0,1-1.1.1Z"/><path class="cls-7" d="M16.3,59.2h1.4a1.39,1.39,0,0,1,1.1.2,2.94,2.94,0,0,1,1.6,1.5,1.1,1.1,0,0,1,0,.8c-.1.1-.1.2-.2.4l-.3.3c-.2.1-.3.2-.5.3l-.4.2c-.2.1-.3.2-.5.3s-.5.1-.7.2h0a5.46,5.46,0,0,1-1.8.1l-1.6-.3a1.91,1.91,0,0,1-1-.5,1.56,1.56,0,0,1-.6-.8v-.1a1.27,1.27,0,0,1,.1-.6V61a1.42,1.42,0,0,1,.2-.6c.1-.1.2-.3.3-.4s.3-.2.4-.3.5-.2.7-.3h.3A3.89,3.89,0,0,1,16.3,59.2Z"/><path class="cls-1" d="M34.9,36.6H33.7a.27.27,0,0,1-.3-.3l-.3-.6c-.1-.2-.2-.3-.3-.5s-.2-.3-.3-.5v-.1c-.1-.3-.3-.7-.4-1s-.2-.3-.3-.5-.1-.3-.2-.4c-.2-.4-.2-.3.1-.7.1-.1.2-.1.4-.1s.3.1.5.2.5.2.7.3.3.2.4.2h.4a.37.37,0,0,1,.3.1c.1.1.1.1.2.1s.5.1.7.2.2.1.3.1a4.25,4.25,0,0,0,1.1.2c.2,0,.3.1.5.1a.9.9,0,0,1,.5.1c.2.1.3.2.3.4V34c-.1.1-.1.2-.2.3-.2.3-.3.6-.5.9-.1.1-.1.2-.2.4s-.1.1-.1.2-.1.2-.2.3-.1.2-.2.3a.91.91,0,0,1-.7.3A3.4,3.4,0,0,0,34.9,36.6Z"/><path class="cls-1" d="M47.7,36.7h-1c-.1,0-.1,0-.1-.1l-.1-.1c-.1-.1-.1-.2-.2-.3l-.3-.6c0-.2-.2-.3-.3-.5a1.61,1.61,0,0,1-.4-.7c-.1-.1-.1-.3-.2-.4v-.2l.3-.3c.1-.1.2-.2.3-.2a2.92,2.92,0,0,0,.9-.2l1.1-.3c.2-.1.4-.1.6-.2a4.18,4.18,0,0,0,1-.4c.2-.1.3-.1.5-.2s.2-.1.3-.1a.37.37,0,0,0,.3-.1c.2-.1.3-.1.5-.2a.37.37,0,0,1,.3.1l.1.1V32c0,.1-.1.2-.1.3s-.2.3-.2.5c-.2.4-.4.7-.6,1.1a8,8,0,0,0-.8,1.6,2.09,2.09,0,0,1-.4.6.52.52,0,0,1-.4.2A1.5,1.5,0,0,1,47.7,36.7Z"/><path class="cls-7" d="M33.8,7.5h0a6.13,6.13,0,0,1-.6.4H33a2.7,2.7,0,0,1-.8-.7,1.38,1.38,0,0,0-.4-.3l-.1-.1a2.65,2.65,0,0,0-.5-.6c-.1-.2-.4-.2-.6-.1s-.1,0-.1.1h0V9.8a1.1,1.1,0,0,0,0,.8v.3a2.44,2.44,0,0,0,0,1.2,9.7,9.7,0,0,0,.1,1.7v.1c0,.1.1.3.1.4v.4a1.27,1.27,0,0,0,.1.6c0,.1,0,.2-.1.2s-.2.1-.3.2-.5.3-.7.5c-.1,0-.1,0-.1-.1h0V15a.37.37,0,0,0-.1-.3v-.2a.75.75,0,0,1,.1-.5,1.7,1.7,0,0,0-.1-.7v-.5a1.1,1.1,0,0,0,0-.8v-.2a1.27,1.27,0,0,1,.1-.6V9.1c-.1-.2,0-.5,0-.7a.85.85,0,0,0,0-.7V6.9A6.08,6.08,0,0,1,29.7,5a.85.85,0,0,0,0-.7V3.7c-.1-.2,0-.3.1-.5L30,3h.1c.2.3.5.5.7.8a4.35,4.35,0,0,1,.6.7c.2.2.3.4.5.6a1.76,1.76,0,0,1,.4.5L33.4,7C33.6,7.2,33.7,7.4,33.8,7.5Z"/><path class="cls-7" d="M47.5,7.8c0-.1.1-.1.1-.2.3-.3.5-.7.8-1L49,6l.1-.1a10.59,10.59,0,0,0,1-1.2,1.79,1.79,0,0,0,.5-.7,12,12,0,0,1,1.1-1.2l.4-.4c.1-.1.2,0,.2.1s.1.1.1.2v.2c-.1.5-.2,1-.3,1.4v.4c0,.2-.1.5-.1.7a1.27,1.27,0,0,1-.1.6v.3c0,.5-.1,1-.1,1.5,0,.3-.1.6-.1.9a.75.75,0,0,1-.1.5c0,.4-.1.8-.1,1.2a8.6,8.6,0,0,0-.1,1.6,2.2,2.2,0,0,1-.1.8V13a12.25,12.25,0,0,1-.2,1.9c0,.1,0,.1-.1.2h-.1a1.38,1.38,0,0,0-.4-.3c-.1-.1-.2-.2-.3-.2s-.1-.1-.1-.2c0-.3.1-.6.1-.9a3.4,3.4,0,0,0,.1-1v-.1c.1-.4.1-.9.2-1.3.1-.6.1-1.2.2-1.8s.1-1.2.2-1.8h0c0-.4.1-.8.1-1.2V5.9a.22.22,0,0,0-.2-.2c-.1,0-.1,0-.2-.1s-.2,0-.2.1l-.2.2a9,9,0,0,1-.9,1,6.42,6.42,0,0,0-1,1.3c0,.1-.1.1-.2.2H48c-.2-.1-.3-.2-.5-.3Q47.65,7.8,47.5,7.8Z"/><path class="cls-8" d="M38.4,36.7a2,2,0,0,1,.1-1.3,2,2,0,0,0,.4-.8c.1-.1.2-.3.3-.4s.3-.2.4-.3a1.08,1.08,0,0,1,.8-.2h.4c.3,0,.6-.1.9-.1h1.2a.6.6,0,0,1,.4.1c.2.1.3.2.5.3l.2.2c.2.3.3.5.5.8a1.61,1.61,0,0,1,.3.9v.5c0,.2,0,.3-.3.3H38.4Z"/><path class="cls-8" d="M41.3,12.5a.75.75,0,0,1,.1-.5.68.68,0,0,1,.6-.4,2.2,2.2,0,0,1,.8.1c.1,0,.2.1.3.2a.9.9,0,0,1,.1.5.76.76,0,0,1-.6.8,1.73,1.73,0,0,1-1-.1C41.5,13.1,41.3,12.8,41.3,12.5Z"/><path class="cls-8" d="M38.7,13.2h-.3a.55.55,0,0,1-.5-.3.37.37,0,0,1-.1-.3c0-.1.1-.3.1-.4a.67.67,0,0,1,.7-.4h.2a.86.86,0,0,1,.7.6v.1c.1.3,0,.5-.3.7Z"/><path class="cls-7" d="M40.6,9.8l-.1-.1c-.1-.1-.1-.2-.2-.3a4.44,4.44,0,0,0-.8-1.1V8.2h2.3v.1l-.1.1-.4.4c-.2.2-.3.4-.5.6S40.6,9.7,40.6,9.8Z"/><path d="M39.5,79h0c-.2.1-.3,0-.3-.1v-.1C39.3,78.8,39.4,78.8,39.5,79Z"/><path d="M40.4,81.5h0c.1.1.1.1.1.2h0C40.4,81.7,40.3,81.6,40.4,81.5Z"/><path class="cls-9" d="M68.8,8.5c.1-.1.1-.2.2-.2.2-.3.5-.4.7-.6a.52.52,0,0,1,.4-.2c.2-.1.5-.2.7-.3a.9.9,0,0,0,.5-.1,1.68,1.68,0,0,1,1.2.3,1.6,1.6,0,0,1,.7.9.75.75,0,0,1-.1.8v.1a8.64,8.64,0,0,1-1.3,1.4,9,9,0,0,0-1,.9l-.2.2c-.9.7-1.7,1.4-2.5,2.1-.1.1-.1.1-.2,0h0a6.82,6.82,0,0,0-1.2-1.2l-.3-.3a10.63,10.63,0,0,0-.9-1.1L64.6,10a2.84,2.84,0,0,1-.4-1.2V8.2A1.85,1.85,0,0,1,64.7,7l.3-.3c.2-.2.4-.2.6-.3h.5a1.6,1.6,0,0,1,1.4.8,3.55,3.55,0,0,1,.4.9c0,.1.1.2.1.3l.3.3h.1C68.6,8.6,68.7,8.5,68.8,8.5Z"/><path class="cls-5" d="M28.5,50.9c-.4.1-.5.1-.7.4a3,3,0,0,0-.5.7c-.1.2-.2.5-.3.7a3.4,3.4,0,0,0-.1,1c0,.2.1.3.1.5a.55.55,0,0,0,.5.3,2.77,2.77,0,0,0,.9-.1l.6-.3a.37.37,0,0,1,.3-.1c.2,0,.3-.1.3-.2v-.1a.19.19,0,0,1,0-.3h0v-.1a.22.22,0,0,1,.2-.2h.1c.1,0,.1,0,.1-.1s.1-.2.1-.3.1-.2.1-.3l.3-.6a3.7,3.7,0,0,1,.5-1.1c.1-.2.2-.5.3-.7a.22.22,0,0,1,.2-.2h.2c.2,0,.3,0,.4.2s.1.2.1.3a.37.37,0,0,1,.1.3c.1.3.1.6.2.9s.1.5.2.8a.22.22,0,0,0,.2.2.6.6,0,0,1,.4.1c.5.2.5.2.6-.4a2.77,2.77,0,0,0,.1-.9v-.4c0-.1.1-.2.1-.3a3.37,3.37,0,0,1,1.7-.5,1.27,1.27,0,0,1,.6.1c.1,0,.2.1.3.2s.1,0,.1.1a1.28,1.28,0,0,1,.4,1,1.69,1.69,0,0,1-.3,1,2.36,2.36,0,0,1-.8.9c-.1.1-.3.2-.4.3v.1l.1.1a2.44,2.44,0,0,0,1.2,0,.6.6,0,0,1,.4-.1c.1,0,.3.1.4.1s.1,0,.1.1v.4l-.2.2a1.62,1.62,0,0,1-.9.5h-.7a1.8,1.8,0,0,1-.9-.4c-.2-.1-.3-.3-.5-.4h-.1c0,.2-.1.5-.1.7a.9.9,0,0,1-.1.5c-.1.1-.2.2-.3.2a.6.6,0,0,1-.4-.1c-.1-.1-.1-.3-.2-.4V55c0-.5.1-1,.1-1.5v-.1l-.1-.1c-.1.1-.3.1-.4.2s-.1.1-.1.2.1.3.1.4a2.54,2.54,0,0,0,.2.7.37.37,0,0,1-.1.3l-.1.1a.3.3,0,0,1-.4,0,.22.22,0,0,1-.2-.2c-.1-.3-.3-.5-.3-.8v-.1c-.1-.5-.1-.4-.5-.3a6.89,6.89,0,0,0-.8.3l-.1.1c0,.1-.1.2-.1.3s-.1.3-.1.4c0,.4-.2.5-.5.4-.1,0-.1-.1-.2-.1s-.1-.2-.2-.3h-.1c-.2.1-.4.3-.6.4a1.88,1.88,0,0,1-.8.2h-.5c-.1,0-.3-.1-.4-.1a1.69,1.69,0,0,1-.5-.2.77.77,0,0,1-.3-.2,2.18,2.18,0,0,1-.5-.8c0-.1-.1-.2-.1-.4v-.5a2.77,2.77,0,0,1,.1-.9,4.18,4.18,0,0,1,.4-1c.2-.3.4-.7.6-1a4.74,4.74,0,0,1,1-1,.37.37,0,0,1,.3-.1h.1c.2.1.3.2.5.2a.22.22,0,0,1,.2.2c.1.1.1.2.2.3s.1.1.1.2v.7c0,.2-.2.3-.4.3s-.2,0-.3-.2C28.7,51.1,28.6,51,28.5,50.9Zm6.5,2h0v.2h.1A2,2,0,0,0,36.2,52c.1-.2.2-.3.1-.5a.22.22,0,0,0-.2-.2c-.2,0-.5.1-.7.1s-.3.2-.3.4A2.08,2.08,0,0,1,35,52.9ZM31.7,52h0l-.3.6a.37.37,0,0,1-.1.3l.1.1a.37.37,0,0,0,.3-.1c.1,0,.1,0,.1-.1A1.06,1.06,0,0,0,31.7,52Z"/><path class="cls-5" d="M47.2,58.5h0a4.35,4.35,0,0,0-.6.7c-.1.3-.3.5-.4.8a.45.45,0,0,0,0,.5c0,.2.3.4.5.4a4.25,4.25,0,0,0,1.1-.2c.5-.2,1-.5,1.5-.7.1,0,.1-.1.2-.1s.1-.1.1-.2V58.2h-.3c-.2,0-.3-.1-.4-.3s0-.1-.1-.1a.62.62,0,0,1-.1-.7.22.22,0,0,1,.2-.2h1.6a1.27,1.27,0,0,0,.6-.1,2.85,2.85,0,0,1,1.3,0c.1,0,.2.1.4.1s.2.1.2.3a.37.37,0,0,1-.1.3c-.1.1-.2.1-.3.2s-.1.1-.2.1a2.92,2.92,0,0,1-.9.2.9.9,0,0,0-.5.1c-.2,0-.2.1-.2.3v2.1a4.1,4.1,0,0,0,.1,1.1V62a.52.52,0,0,1-.2.4c-.1,0-.1.1-.2.1s-.2-.1-.3-.1-.3-.2-.4-.3a.9.9,0,0,1-.1-.5v-.4c0-.1,0-.1-.1-.1s-.3.2-.5.3-.2.2-.3.2a1.69,1.69,0,0,0-.5.2,2.92,2.92,0,0,1-.9.2h-.5a2,2,0,0,1-.8-.4c-.1-.1-.1-.1-.2-.1h-.1c-.2.2-.5,0-.7.2-.2,0-.5.1-.7.1a3.71,3.71,0,0,0-.9.2c-.3.1-.3.1-.5-.1s-.1-.1-.2-.1l-.1-.1a.76.76,0,0,1-.2-.5c0-.3-.1-.5-.1-.8V59.3a.6.6,0,0,0-.1-.4.19.19,0,0,1,0-.3h0c.1-.1.2-.2.2-.3s.1-.3.1-.4.1-.3,0-.4v-.2c0-.1.1-.2.2-.3a3.39,3.39,0,0,1,.8-.3c.2,0,.3-.1.5-.1a1.79,1.79,0,0,1,1.4.4c.1.1.1.1.1.2s-.1.2-.1.3-.1.2-.2.1a.6.6,0,0,0-.4.1h-.2a1.27,1.27,0,0,0-.6.1c-.1,0-.2.1-.3.1s-.1.2-.1.2,0,.1.1.1h.1c.3,0,.5.2.8.3l.1.1c.1.1.1.1.1.2a.75.75,0,0,1-.7.5h-.3c-.5,0-.5,0-.5.5v.6c0,.1,0,.1.1.1h.4a1.7,1.7,0,0,1,1,0h.2l.1-.1v-.2a1.73,1.73,0,0,1,.1-1,6.11,6.11,0,0,1,.7-1.4c.2-.4.6-.6.9-.9.1-.1.3-.1.4-.2a.68.68,0,0,1,.8.4v.1a.91.91,0,0,1-.2,1.1c-.1.2-.3.2-.5.1h0C47.3,58.6,47.3,58.5,47.2,58.5Z"/><path class="cls-5" d="M29.6,60.3a2.92,2.92,0,0,1,.2-.9.6.6,0,0,0,.1-.4,3.16,3.16,0,0,1,1.4-1.4h.2c.2,0,.4.1.6.1a2.54,2.54,0,0,1,1.2,1.1.6.6,0,0,1,.1.4v.5a1.7,1.7,0,0,1-.1.7,2.36,2.36,0,0,1-1.2,1.4,2.66,2.66,0,0,1-1.2.3h-.4a2.34,2.34,0,0,1-.7-.7h-.1c-.1.1-.3.2-.4.3a2.73,2.73,0,0,1-1.2.6,1.7,1.7,0,0,1-1,0c-.2-.1-.5-.2-.7-.3s-.2-.1-.2-.2a2.4,2.4,0,0,1-.7-1.2,3.4,3.4,0,0,1-.1-1,9.83,9.83,0,0,1,.5-1.6,2.73,2.73,0,0,1,.9-1.2.76.76,0,0,1,.5-.2c.1,0,.1,0,.2-.1a.88.88,0,0,1,.7.1.22.22,0,0,1,.2.2c.1.1.1.2.2.3v.2a1.7,1.7,0,0,1-.1.7v.2a.55.55,0,0,1-.5.3c-.1,0-.3-.1-.3-.2V58c0-.1,0-.2-.1-.2h-.3c-.1.1-.3.2-.3.4a2.12,2.12,0,0,1-.3.7l-.3,1.2a1.08,1.08,0,0,0,.2.8.57.57,0,0,0,.7.4h0a1.85,1.85,0,0,0,.7-.2A3.46,3.46,0,0,0,29.6,60.3Zm1.1-.1c0,.2,0,.5.1.6a.22.22,0,0,0,.2.2h.1a1.8,1.8,0,0,0,.9-.6l.1-.1c.1-.1.2-.2.2-.3a1.42,1.42,0,0,0,.2-.6.6.6,0,0,0-.1-.4c-.2-.1-.3-.2-.5-.3a1.27,1.27,0,0,0-.6.1,1,1,0,0,0-.5.6C30.8,59.7,30.7,60,30.7,60.2Z"/><path class="cls-5" d="M38.9,53a4.1,4.1,0,0,1,.1-1.1v-.2l-.1-.1a.9.9,0,0,0-.5.1H38c-.1,0-.1-.1-.2-.2a.73.73,0,0,1-.2-.6h0a.22.22,0,0,1,.2-.2,5,5,0,0,1,1.2-.2,13.4,13.4,0,0,1,2-.1,4.25,4.25,0,0,1,1.1.2c.1.1.2,0,.3-.1s.3-.2.4-.1.1.1.2.1.2.1.3.3.2.5.3.7l.3,1.2v.1c0,.1,0,.1.1.1h.6a.37.37,0,0,1,.3.1.37.37,0,0,0,.3.1.3.3,0,0,1,0,.4h-.1c-.3.1-.6.3-.9.4-.1,0-.1.1-.1.2s.1.5.2.7.1.2.1.4v.2c0,.1-.1.2-.2.3s-.2,0-.3,0-.2-.1-.3-.1a.22.22,0,0,1-.2-.2c-.1-.2-.1-.4-.2-.6a.9.9,0,0,1-.1-.5c0-.1-.1-.1-.2-.1l-1.2.3c-.2,0-.3.1-.4.3l-.3.6c-.1.1-.2.2-.3.2a.6.6,0,0,1-.4-.1c-.1-.1-.1-.1-.1-.2,0-.3-.1-.6.1-.9s.1-.4.2-.6a8,8,0,0,1,.8-1.6,4.05,4.05,0,0,0,.5-.9v-.1h0c-.2,0-.5.1-.7.1h-.2a1.85,1.85,0,0,0-.7.2c-.2.1-.3.2-.3.4,0,.6-.1,1.3-.1,1.9v.8a.9.9,0,0,1-.1.5.52.52,0,0,1-.4.2.64.64,0,0,1-.5-.5,4.87,4.87,0,0,1-.1-1.2A.73.73,0,0,0,38.9,53Zm3.3.2c.2,0,.4-.1.7-.1L43,53a2.35,2.35,0,0,0-.2-.8c0-.1,0-.1-.1-.1s-.1,0-.1.1-.3.5-.4.7V53C42.1,53.2,42.1,53.2,42.2,53.2Z"/><path class="cls-5" d="M45.5,55.5c0-.4-.1-1.4-.1-1.8v-.8c0-.6.1-1.1.1-1.7a1.7,1.7,0,0,1,.1-.7v-.1c.1-.2.2-.3.5-.2h1.3a1.61,1.61,0,0,1,.9.3c.1.1.3.1.4.3a.73.73,0,0,1,.2.6c0,.4-.1.5-.4.8l-.1.1v.1c.2.1.3.3.4.4a2,2,0,0,1,.4.8,1.06,1.06,0,0,1-.1.8c-.1.1-.1.2-.2.3a3.92,3.92,0,0,1-1,.8c-.2.1-.5.2-.7.3s-.3.1-.5.2a.76.76,0,0,1-.4.1.4.4,0,0,1-.4-.2Zm1-1.4v.6l.1.1h.1a2,2,0,0,0,.8-.4,2.65,2.65,0,0,0,.6-.5.66.66,0,0,0,.1-.6c0-.1-.1-.1-.1-.2a1.8,1.8,0,0,0-1-.2c-.1,0-.2.1-.3.1s-.2.1-.2.3A2.2,2.2,0,0,0,46.5,54.1Zm.9-2.9h-.5a.22.22,0,0,0-.2.2V52c0,.1,0,.1.1.1h.1c.2,0,.5,0,.6-.2l.1-.1a1,1,0,0,0,.5-.4v-.1A1.7,1.7,0,0,0,47.4,51.2Z"/><path class="cls-5" d="M55.3,58.6c-.3,0-.7.1-1,.1a1.85,1.85,0,0,0-.7.2c-.2.1-.2.2-.2.4h1.2a1.85,1.85,0,0,1,.7.2c.1,0,.1.1.1.2v.1c0,.1-.1.1-.1.2-.2.1-.3.2-.5.2a3.55,3.55,0,0,1-1,.2c-.1,0-.3.1-.4.1s-.1.1-.2.1v.6c0,.1,0,.1.1.1.5-.1,1,0,1.6-.1h1.2c.1,0,.2.1.3.2a.19.19,0,0,1,0,.3h0a1.38,1.38,0,0,1-.3.4c-.1,0-.1.1-.2.1a2.2,2.2,0,0,1-.8.1h-.2a5,5,0,0,1-1.2.2h-.2a3.4,3.4,0,0,1-1,.1h-.4c-.1,0-.1,0-.1-.1s0-.1-.1-.2a.62.62,0,0,1,.1-.7.37.37,0,0,0,.1-.3c0-.5.1-1,.1-1.5a.37.37,0,0,1,.1-.3.6.6,0,0,0,.1-.4.64.64,0,0,0,0-.6v-.2c0-.1,0-.1.1-.2s.1-.1.2-.1a5.66,5.66,0,0,1,1.8-.3,3.55,3.55,0,0,1,1,.2c.1,0,.1,0,.1.1q.45.3,0,.6C55.4,58.5,55.4,58.5,55.3,58.6Z"/><path class="cls-5" d="M56.3,50.9h0c-.1.2-.2.2-.3.2l-1.1.3c-.1,0-.3.1-.4.1a.22.22,0,0,0-.2.2c0,.2-.1.4-.1.6l.1.1H55a.91.91,0,0,1,.7.3c.1,0,.1.1.1.2s0,.2-.2.3-.1.1-.2.1a1.27,1.27,0,0,1-.6.1c-.2,0-.4.1-.6.1s-.3.1-.3.2v.1c0,.2-.1.3-.1.5a.22.22,0,0,0,.2.2,2.2,2.2,0,0,1,.8-.1h1.7c.1.1.3.2.4.3a.37.37,0,0,1,.1.3v.1c-.3.1-.5.3-.8.3-.6.2-1.3.3-1.9.5a1.1,1.1,0,0,1-.8,0c-.1,0-.1,0-.1-.1l-.3-.3a.52.52,0,0,1-.2-.4v-.2a2.2,2.2,0,0,1-.1-.8c0-.2.1-.4.1-.6a.37.37,0,0,0-.1-.3.19.19,0,0,1,0-.3h0c.1-.1.1-.2.2-.3l.1-.1a5,5,0,0,0,.2-1.2V51c0-.2,0-.3.1-.4s.2-.2.2-.3.2-.2.3-.2h0c.1,0,.2.1.4.1a.6.6,0,0,0,.4-.1c.2,0,.4-.1.6-.1a1.27,1.27,0,0,1,.6.1C56.2,50.5,56.2,50.4,56.3,50.9Z"/><path class="cls-5" d="M38.5,49c-.1.1-.2.1-.2.2a.19.19,0,0,1-.3,0h0c-.1,0-.2-.1-.3-.2a1.38,1.38,0,0,1-.3-.4,6.75,6.75,0,0,1-.2-1.4v-.3h-.1c-.1,0-.1,0-.1.1s-.3.4-.4.6a.78.78,0,0,1-.4.4H36c-.2-.1-.3-.2-.5-.3s-.3-.4-.4-.6H35l-.1.1h0c0,.3-.1.7-.1,1V49l-.1.1c.1.2,0,.2-.1.2h-.1a.52.52,0,0,1-.4-.2c-.1-.1-.1-.2-.2-.4a4.3,4.3,0,0,1,0-1.6c.1-.6.2-1.1.3-1.7a.52.52,0,0,1,.2-.4.75.75,0,0,1,.5-.1h0c.1.2.3.3.4.5a2.18,2.18,0,0,1,.5.8c0,.1.1.1.2.1l.3-.3a1.38,1.38,0,0,0,.3-.4l.3-.3a1.38,1.38,0,0,0,.3-.4c.2,0,.3-.1.5-.1h.2c.2,0,.3.1.3.2s.1.3.1.4c0,.3.1.7.1,1v.8a2.77,2.77,0,0,0,.1.9Z"/><path class="cls-5" d="M45,47.3v.2a8.75,8.75,0,0,0-.2,1.6c0,.1,0,.1-.1.2h-.1a.45.45,0,0,1-.5,0c-.1,0-.1-.1-.2-.1s-.1-.1-.1-.2a.76.76,0,0,1-.2-.5c0-.5.1-.9.1-1.4a.37.37,0,0,1,.1-.3l.3-1.2c0-.1.1-.2.1-.3a.22.22,0,0,1,.2-.2.6.6,0,0,1,.4.1,1,1,0,0,1,.4.5,3.13,3.13,0,0,0,.9,1.1l.2.2c.1.1.2.2.3.1a.31.31,0,0,0,.1-.2,5.7,5.7,0,0,0,.1-1.3.75.75,0,0,1,.1-.5.27.27,0,0,1,.3-.3h.2c.4,0,.6.1.6.5v.3c-.1.4,0,.8-.1,1.1v.4a2.05,2.05,0,0,0,0,1.1,2.77,2.77,0,0,1-.1.9c0,.2-.3.3-.5.3s-.2-.1-.3-.1l-.3-.3a3,3,0,0,0-.8-.8c-.2-.1-.3-.3-.5-.5s-.2-.2-.3-.2C45.1,47.3,45.1,47.3,45,47.3Z"/><path class="cls-5" d="M38.9,61.9c-.1.1-.2.1-.3.2s-.2-.1-.3-.1-.2-.2-.3-.3V59.8c0-.4.1-.8.1-1.2a2.2,2.2,0,0,1,.1-.8c0-.2.3-.3.5-.2s.1.1.2.1a6.47,6.47,0,0,1,.8.9c.2.4.5.8.7,1.3l.1.1s.1.1.1,0,.1,0,.1-.1.1-.3.1-.5a9.7,9.7,0,0,0,.1-1.7.66.66,0,0,1,.4-.5c.2,0,.3,0,.4.2a.37.37,0,0,1,.1.3V58c0,.4.1.8.1,1.2a4.1,4.1,0,0,1-.1,1.1c0,.2-.1.3-.1.5a1.42,1.42,0,0,1-.2.6c0,.1-.1.2-.1.3s-.3.3-.4.2h-.1c-.4-.2-.5-.2-.7-.6a7.26,7.26,0,0,0-.5-.9c-.1-.1-.1-.2-.2-.3h0c-.1,0-.1,0-.1.1v1C39,61.3,39,61.6,38.9,61.9Z"/><path class="cls-5" d="M40.9,45.1a3.19,3.19,0,0,1,1.4.3,2.65,2.65,0,0,1,.6.5.76.76,0,0,1,.2.5c0,.2.1.3.1.5s.1.4.1.7v.1a.9.9,0,0,0-.1.5.76.76,0,0,1-.2.5,2.34,2.34,0,0,1-.7.7l-.6.3a1.7,1.7,0,0,1-.7.1,2.38,2.38,0,0,1-1.1-.6c-.2-.2-.3-.4-.5-.6a1.14,1.14,0,0,1-.3-.8,3.4,3.4,0,0,1-.1-1c0-.2.1-.4.1-.7,0-.1.1-.3.1-.4s.2-.3.3-.4a.86.86,0,0,1,.6-.3C40.5,45.1,40.7,45,40.9,45.1Zm-.7,2.5a1.88,1.88,0,0,0,.2.8c0,.1,0,.1.1.1a.44.44,0,0,0,.5.1.9.9,0,0,0,.5-.1.82.82,0,0,0,.6-.4c.1-.2.2-.5.3-.7v-.2a.75.75,0,0,0-.1-.5.78.78,0,0,0-.4-.4c-.1,0-.2-.1-.3-.2a.64.64,0,0,0-.6,0,1.09,1.09,0,0,0-.8.8Z"/><path class="cls-5" d="M36.4,59.9a7.57,7.57,0,0,0,.1-1.5v-.6a.37.37,0,0,1,.1-.3h.2a.71.71,0,0,1,.6.6c0,.3.1.5.1.8a13.4,13.4,0,0,1-.1,2v.3c0,.2-.1.4-.1.6s-.1.2-.2.3-.1.1-.2,0-.1,0-.2-.1c-.3-.1-.5-.2-.6-.5l-.6-.9c-.1-.1-.2-.3-.3-.4h-.1v.1a7.57,7.57,0,0,0-.1,1.5v.1a.22.22,0,0,1-.2.2c-.1,0-.2.1-.3.1a.37.37,0,0,1-.3-.1c-.1-.1-.2-.2-.2-.3a2.44,2.44,0,0,1,0-1.2,13.4,13.4,0,0,0,.1-2c0-.2.1-.4.1-.6a.55.55,0,0,1,.5-.3c.1,0,.1.1.2.1s.2.1.3.2v.1a2.4,2.4,0,0,0,.7,1.2,1,1,0,0,0,.4.5C36.3,60,36.4,59.9,36.4,59.9Z"/><path class="cls-5" d="M49.5,54.6v-.3c.1-.8.2-1.5.3-2.3.1-.5.1-1,.2-1.5,0-.2.1-.3.1-.5a.55.55,0,0,1,.3-.5.37.37,0,0,1,.3-.1c.1,0,.2.1.3.2a.37.37,0,0,1,.1.3v.4c-.1.4-.1.8-.2,1.1a2.77,2.77,0,0,0-.1.9c0,.3-.1.6-.1.9a3.4,3.4,0,0,0-.1,1v.1l.1.1a.6.6,0,0,0,.4-.1c.2-.1.4-.1.5-.2A.6.6,0,0,1,52,54h.3c.3.1.3.1.2.4,0,.1,0,.1-.1.1s-.3.3-.5.4-.3.2-.5.3-.1.1-.2.1l-.9.3c-.3.1-.5,0-.7-.3v-.1a.76.76,0,0,1-.2-.5C49.5,54.8,49.5,54.7,49.5,54.6Z"/><path class="cls-5" d="M54.2,57.2a.9.9,0,0,1-.5-.1.37.37,0,0,1-.1-.3c.1-.1.1-.2.2-.2a1.93,1.93,0,0,1,1-.3.71.71,0,0,1,.6.3.44.44,0,0,1-.1.5h-.1a2.92,2.92,0,0,1-.9.2c0-.1,0-.1-.1-.1Z"/><path class="cls-1" d="M35,52.9c.1-.4.1-.7.2-1.1,0-.2.2-.3.3-.4a1.7,1.7,0,0,1,.7-.1.22.22,0,0,1,.2.2c0,.2-.1.3-.1.5a2.91,2.91,0,0,1-1.1,1.1h-.1C35,53,35.1,52.9,35,52.9Z"/><path class="cls-1" d="M31.7,52a2.35,2.35,0,0,1,.2.8c0,.1,0,.1-.1.1a.37.37,0,0,0-.3.1l-.1-.1a.37.37,0,0,1,.1-.3C31.5,52.4,31.6,52.3,31.7,52Z"/><path class="cls-1" d="M30.7,60.2a2.35,2.35,0,0,1,.2-.8c.1-.3.2-.5.5-.6a1.27,1.27,0,0,1,.6-.1.55.55,0,0,1,.5.3c.1.1.2.2.1.4a1.42,1.42,0,0,1-.2.6c-.1.1-.1.2-.2.3l-.1.1-.9.6h-.1a.22.22,0,0,1-.2-.2C30.7,60.7,30.7,60.5,30.7,60.2Z"/><path class="cls-1" d="M42.2,53.2c-.1,0-.1-.1,0,0l-.1-.2a2.51,2.51,0,0,1,.4-.7l.1-.1c.1,0,.1,0,.1.1a1.88,1.88,0,0,1,.2.8c0,.1,0,.1-.1.1Z"/><path class="cls-1" d="M46.5,54.1v-.7c0-.1.1-.2.2-.3A.37.37,0,0,1,47,53a1.23,1.23,0,0,1,1,.2c.1,0,.1.1.1.2a.66.66,0,0,1-.1.6,2.65,2.65,0,0,1-.6.5,2,2,0,0,1-.8.4h-.1c-.1,0-.1,0-.1-.1A1.7,1.7,0,0,0,46.5,54.1Z"/><path class="cls-1" d="M47.4,51.2h.5c.1,0,.1.1,0,.1a1,1,0,0,1-.5.4c-.1,0-.1,0-.1.1s-.4.2-.6.2h-.1l-.1-.1v-.2c0-.1.1-.2,0-.4a.22.22,0,0,1,.2-.2A1.7,1.7,0,0,0,47.4,51.2Z"/><path class="cls-1" d="M40.2,47.6a1.7,1.7,0,0,1,.1-.7,1.09,1.09,0,0,1,.8-.8c.2-.1.4,0,.6,0s.2.1.3.2a.78.78,0,0,1,.4.4v.8c-.1.2-.2.5-.3.7a.82.82,0,0,1-.6.4c-.2,0-.3.1-.5.1s-.3-.1-.5-.1l-.1-.1C40.2,48.1,40.1,47.8,40.2,47.6Z"/><rect class="cls-10" x="335.7" y="53.3" width="231.3" height="24.3"/><g class="cls-11"><path class="cls-4" d="M339.6,66.8v7.53H338V55.85h6.3a6.64,6.64,0,0,1,4.55,1.47,5.79,5.79,0,0,1,.06,8.07,6.83,6.83,0,0,1-4.65,1.42Zm0-1.32h4.74a5,5,0,0,0,3.47-1.08,3.86,3.86,0,0,0,1.19-3,4,4,0,0,0-1.19-3.06,4.77,4.77,0,0,0-3.37-1.16H339.6Z"/><path class="cls-4" d="M355.39,74.33h-1.52V54.83h1.52Z"/><path class="cls-4" d="M368.19,74.33a7.21,7.21,0,0,1-.29-1.92,5.3,5.3,0,0,1-2,1.61,6.25,6.25,0,0,1-2.62.56,4.6,4.6,0,0,1-3.21-1.1,3.6,3.6,0,0,1-1.23-2.79,3.68,3.68,0,0,1,1.67-3.17,8,8,0,0,1,4.65-1.17h2.75V64.79a3,3,0,0,0-.91-2.32,3.75,3.75,0,0,0-2.65-.84,4.14,4.14,0,0,0-2.63.81,2.42,2.42,0,0,0-1,2h-1.52a3.53,3.53,0,0,1,1.52-2.84,5.87,5.87,0,0,1,3.75-1.2A5.35,5.35,0,0,1,368,61.49a4.13,4.13,0,0,1,1.36,3.21v6.5a8.06,8.06,0,0,0,.42,3v.15Zm-4.77-1.09a5.1,5.1,0,0,0,2.72-.74,4.33,4.33,0,0,0,1.75-2v-3h-2.72a6.81,6.81,0,0,0-3.55.83,2.5,2.5,0,0,0-1.28,2.22,2.46,2.46,0,0,0,.86,1.92A3.23,3.23,0,0,0,363.41,73.24Z"/><path class="cls-4" d="M375.8,57.08V60.6h2.84v1.24H375.8V71a2.86,2.86,0,0,0,.41,1.7,1.6,1.6,0,0,0,1.38.56,9.38,9.38,0,0,0,1.23-.13l.06,1.23a5,5,0,0,1-1.62.21,2.71,2.71,0,0,1-2.27-.91,4.27,4.27,0,0,1-.71-2.67V61.84h-2.53V60.6h2.53V57.08Z"/><path class="cls-4" d="M387.12,74.59a6,6,0,0,1-3.17-.86,5.88,5.88,0,0,1-2.2-2.41,7.5,7.5,0,0,1-.79-3.46v-.55a8.07,8.07,0,0,1,.77-3.57,6.1,6.1,0,0,1,2.14-2.49,5.28,5.28,0,0,1,3-.91,5,5,0,0,1,4,1.71,6.93,6.93,0,0,1,1.47,4.67v.85h-9.8v.29a5.75,5.75,0,0,0,1.34,3.89,4.26,4.26,0,0,0,3.37,1.56,5,5,0,0,0,2.15-.44A4.77,4.77,0,0,0,391,71.44l1,.72A5.54,5.54,0,0,1,387.12,74.59Zm-.28-12.95a3.8,3.8,0,0,0-2.89,1.26,5.81,5.81,0,0,0-1.43,3.38h8.24v-.17a5,5,0,0,0-1.13-3.22A3.5,3.5,0,0,0,386.84,61.64Z"/><path class="cls-4" d="M396.32,74.33V61.84H394V60.6h2.27V58.93a4.52,4.52,0,0,1,1.07-3.24,3.93,3.93,0,0,1,3-1.13,5.85,5.85,0,0,1,1.61.21L401.88,56a5.92,5.92,0,0,0-1.38-.15,2.48,2.48,0,0,0-2,.78,3.23,3.23,0,0,0-.7,2.22V60.6h3.28v1.24h-3.28V74.33Z"/><path class="cls-4" d="M403,67.26a8.07,8.07,0,0,1,.77-3.57,5.77,5.77,0,0,1,5.35-3.35,5.65,5.65,0,0,1,4.44,1.92,7.4,7.4,0,0,1,1.7,5.1v.32a8.15,8.15,0,0,1-.77,3.59,5.73,5.73,0,0,1-2.17,2.46,5.94,5.94,0,0,1-3.19.86,5.65,5.65,0,0,1-4.44-1.92,7.39,7.39,0,0,1-1.71-5.1Zm1.52.42a6.23,6.23,0,0,0,1.28,4,4.32,4.32,0,0,0,6.68,0,6.43,6.43,0,0,0,1.28-4.17v-.29a7,7,0,0,0-.58-2.88,4.68,4.68,0,0,0-1.64-2,4.19,4.19,0,0,0-2.41-.72,4.06,4.06,0,0,0-3.31,1.59,6.45,6.45,0,0,0-1.28,4.17Z"/><path class="cls-4" d="M424.74,61.89a5.64,5.64,0,0,0-1-.09,3.71,3.71,0,0,0-2.41.79,4.34,4.34,0,0,0-1.4,2.3v9.43H418.4V60.6h1.49l0,2.18a4,4,0,0,1,3.87-2.44,2.49,2.49,0,0,1,1,.17Z"/><path class="cls-4" d="M428.53,60.6l.05,2.23a5.09,5.09,0,0,1,1.9-1.87,5.22,5.22,0,0,1,2.54-.62q3.25,0,4.13,2.67a5.17,5.17,0,0,1,2-2,5.45,5.45,0,0,1,2.72-.69q4.42,0,4.51,4.82v9.17h-1.52V65.28a4.09,4.09,0,0,0-.79-2.73,3.23,3.23,0,0,0-2.55-.89,4,4,0,0,0-2.77,1.06,3.75,3.75,0,0,0-1.26,2.52v9.09h-1.52V65.17a3.76,3.76,0,0,0-.83-2.63,3.31,3.31,0,0,0-2.52-.87,3.84,3.84,0,0,0-2.46.82,4.81,4.81,0,0,0-1.52,2.43v9.42h-1.52V60.6Z"/><path class="cls-4" d="M455.5,74.59a6,6,0,0,1-3.17-.86,5.88,5.88,0,0,1-2.2-2.41,7.5,7.5,0,0,1-.79-3.46v-.55a8.07,8.07,0,0,1,.77-3.57,6.1,6.1,0,0,1,2.14-2.49,5.28,5.28,0,0,1,3-.91,5,5,0,0,1,4,1.71,6.93,6.93,0,0,1,1.47,4.67v.85h-9.8v.29a5.75,5.75,0,0,0,1.34,3.89,4.26,4.26,0,0,0,3.37,1.56,5,5,0,0,0,2.15-.44,4.77,4.77,0,0,0,1.69-1.42l1,.72A5.54,5.54,0,0,1,455.5,74.59Zm-.28-12.95a3.8,3.8,0,0,0-2.89,1.26,5.81,5.81,0,0,0-1.43,3.38h8.24v-.17A5,5,0,0,0,458,62.88,3.5,3.5,0,0,0,455.23,61.64Z"/><path class="cls-4" d="M469.33,67.34a8.28,8.28,0,0,1,1.43-5.1,4.6,4.6,0,0,1,3.88-1.9,4.78,4.78,0,0,1,4.24,2.2V54.83h1.51v19.5H479l-.06-1.83a4.91,4.91,0,0,1-4.29,2.08,4.58,4.58,0,0,1-3.83-1.91,8.32,8.32,0,0,1-1.45-5.16Zm1.54.27a7.16,7.16,0,0,0,1.05,4.14,3.41,3.41,0,0,0,3,1.52,4.09,4.09,0,0,0,4-2.48V64.34a4.06,4.06,0,0,0-4-2.68,3.45,3.45,0,0,0-3,1.5A7.66,7.66,0,0,0,470.87,67.6Z"/><path class="cls-4" d="M489.71,74.59a6,6,0,0,1-3.17-.86,5.88,5.88,0,0,1-2.2-2.41,7.5,7.5,0,0,1-.79-3.46v-.55a8.07,8.07,0,0,1,.77-3.57,6.1,6.1,0,0,1,2.14-2.49,5.28,5.28,0,0,1,3-.91,5,5,0,0,1,4,1.71,6.93,6.93,0,0,1,1.47,4.67v.85h-9.8v.29a5.75,5.75,0,0,0,1.34,3.89,4.26,4.26,0,0,0,3.37,1.56,5,5,0,0,0,2.15-.44,4.77,4.77,0,0,0,1.69-1.42l1,.72A5.54,5.54,0,0,1,489.71,74.59Zm-.28-12.95a3.8,3.8,0,0,0-2.89,1.26,5.81,5.81,0,0,0-1.43,3.38h8.24v-.17a5,5,0,0,0-1.13-3.22A3.5,3.5,0,0,0,489.43,61.64Z"/><path class="cls-4" d="M506.5,57.08V60.6h2.84v1.24H506.5V71a2.86,2.86,0,0,0,.41,1.7,1.6,1.6,0,0,0,1.38.56,9.38,9.38,0,0,0,1.23-.13l.06,1.23a5,5,0,0,1-1.62.21,2.71,2.71,0,0,1-2.27-.91A4.27,4.27,0,0,1,505,71V61.84h-2.53V60.6H505V57.08Z"/><path class="cls-4" d="M517.81,74.59a6,6,0,0,1-3.17-.86,5.88,5.88,0,0,1-2.2-2.41,7.5,7.5,0,0,1-.79-3.46v-.55a8.07,8.07,0,0,1,.77-3.57,6.1,6.1,0,0,1,2.14-2.49,5.28,5.28,0,0,1,3-.91,5,5,0,0,1,4,1.71A6.93,6.93,0,0,1,523,66.72v.85h-9.8v.29a5.75,5.75,0,0,0,1.34,3.89,4.26,4.26,0,0,0,3.37,1.56,5,5,0,0,0,2.15-.44,4.77,4.77,0,0,0,1.69-1.42l1,.72A5.54,5.54,0,0,1,517.81,74.59Zm-.28-12.95a3.8,3.8,0,0,0-2.89,1.26,5.81,5.81,0,0,0-1.43,3.38h8.24v-.17a5,5,0,0,0-1.13-3.22A3.5,3.5,0,0,0,517.53,61.64Z"/><path class="cls-4" d="M534.15,70.84a2.17,2.17,0,0,0-.91-1.82A7,7,0,0,0,530.51,68a12.39,12.39,0,0,1-2.84-.89,3.78,3.78,0,0,1-1.5-1.23,3.05,3.05,0,0,1-.49-1.75A3.27,3.27,0,0,1,527,61.4a5.49,5.49,0,0,1,3.48-1.06,5.65,5.65,0,0,1,3.69,1.14,3.64,3.64,0,0,1,1.39,3h-1.52a2.46,2.46,0,0,0-1-2,4.56,4.56,0,0,0-5-.13,2.06,2.06,0,0,0-.91,1.73,1.87,1.87,0,0,0,.76,1.59,8,8,0,0,0,2.75,1,13,13,0,0,1,3,1A3.88,3.88,0,0,1,535.19,69a3.53,3.53,0,0,1-.92,4.6,6,6,0,0,1-3.66,1,6.15,6.15,0,0,1-3.89-1.16,3.57,3.57,0,0,1-1.49-2.94h1.52a2.64,2.64,0,0,0,1.12,2.08,4.58,4.58,0,0,0,2.74.74,4.31,4.31,0,0,0,2.56-.7A2.09,2.09,0,0,0,534.15,70.84Z"/><path class="cls-4" d="M541.45,57.08V60.6h2.84v1.24h-2.84V71a2.86,2.86,0,0,0,.41,1.7,1.6,1.6,0,0,0,1.38.56,9.38,9.38,0,0,0,1.23-.13l.06,1.23a5,5,0,0,1-1.62.21,2.71,2.71,0,0,1-2.27-.91,4.27,4.27,0,0,1-.71-2.67V61.84H537.4V60.6h2.53V57.08Z"/><path class="cls-4" d="M555.67,70.84a2.17,2.17,0,0,0-.91-1.82A7,7,0,0,0,552,68a12.39,12.39,0,0,1-2.84-.89,3.78,3.78,0,0,1-1.5-1.23,3.05,3.05,0,0,1-.49-1.75,3.27,3.27,0,0,1,1.36-2.68A5.49,5.49,0,0,1,552,60.34a5.65,5.65,0,0,1,3.69,1.14,3.64,3.64,0,0,1,1.39,3h-1.52a2.46,2.46,0,0,0-1-2,4.56,4.56,0,0,0-5-.13,2.06,2.06,0,0,0-.91,1.73,1.87,1.87,0,0,0,.76,1.59,8,8,0,0,0,2.75,1,13,13,0,0,1,3,1A3.88,3.88,0,0,1,556.71,69a3.53,3.53,0,0,1-.92,4.6,6,6,0,0,1-3.66,1,6.15,6.15,0,0,1-3.89-1.16,3.57,3.57,0,0,1-1.49-2.94h1.52a2.64,2.64,0,0,0,1.12,2.08,4.58,4.58,0,0,0,2.74.74,4.31,4.31,0,0,0,2.56-.7A2.09,2.09,0,0,0,555.67,70.84Z"/></g></svg>